#VRML V2.0 utf8
# 3D model generated by easyeda2kicad.py (https://github.com/uPesy/easyeda2kicad.py)

Shape{
    appearance Appearance {
        material  Material 	{
            diffuseColor 0.2235294117647059 0.2235294117647059 0.2235294117647059
            specularColor 0.06666666666666667 0.06666666666666667 0.06666666666666667
            ambientIntensity 0.2235
            transparency 0.0
            shininess 0.5
        }
    }
    geometry IndexedFaceSet {
        ccw TRUE
        solid FALSE
        coord DEF co Coordinate {
            point [
                2.6575 4.1732 4.3307, -0.8071 4.1732 4.3307, 2.6575 3.8583 4.3307, -0.8071 3.8583 4.3307
            ]
        }
        coordIndex [
            0,1,2,-1,2,1,3,-1,
        ]
    }
}
Shape{
    appearance Appearance {
        material  Material 	{
            diffuseColor 0.2980392156862745 0.2980392156862745 0.2980392156862745
            specularColor 0.09019607843137255 0.09019607843137255 0.09019607843137255
            ambientIntensity 0.298
            transparency 0.0
            shininess 0.5
        }
    }
    geometry IndexedFaceSet {
        ccw TRUE
        solid FALSE
        coord DEF co Coordinate {
            point [
                2.6575 4.1732 4.3307, 2.6575 3.8583 4.3307, 2.6677 3.8583 4.3294, 2.6677 4.1732 4.3294, 2.6772 3.8583 4.3254, 2.6772 4.1732 4.3254, 2.6853 3.8583 4.3192, 2.6853 4.1732 4.3192, 2.6916 3.8583 4.311, 2.6916 4.1732 4.311, 2.6955 3.8583 4.3015, 2.6955 4.1732 4.3015, 2.6969 3.8583 4.2913, 2.6969 4.1732 4.2913, -0.8071 3.8583 4.3307, -0.8071 4.1732 4.3307, -0.8173 4.1732 4.3294, -0.8173 3.8583 4.3294, -0.8268 4.1732 4.3254, -0.8268 3.8583 4.3254, -0.8349 4.1732 4.3192, -0.8349 3.8583 4.3192, -0.8412 4.1732 4.311, -0.8412 3.8583 4.311, -0.8451 4.1732 4.3015, -0.8451 3.8583 4.3015, -0.8465 4.1732 4.2913, -0.8465 3.8583 4.2913
            ]
        }
        coordIndex [
            0,1,2,-1,0,2,3,-1,3,2,4,-1,3,4,5,-1,5,4,6,-1,5,6,7,-1,7,6,8,-1,7,8,9,-1,9,8,10,-1,9,10,11,-1,11,10,12,-1,11,12,13,-1,14,15,16,-1,14,16,17,-1,17,16,18,-1,17,18,19,-1,19,18,20,-1,19,20,21,-1,21,20,22,-1,21,22,23,-1,23,22,24,-1,23,24,25,-1,25,24,26,-1,25,26,27,-1,
        ]
    }
}
Shape{
    appearance Appearance {
        material  Material 	{
            diffuseColor 0.2235294117647059 0.2235294117647059 0.2235294117647059
            specularColor 0.06666666666666667 0.06666666666666667 0.06666666666666667
            ambientIntensity 0.2235
            transparency 0.0
            shininess 0.5
        }
    }
    geometry IndexedFaceSet {
        ccw TRUE
        solid FALSE
        coord DEF co Coordinate {
            point [
                1.988 4.1732 0.0, 2.6575 4.1732 0.0, 2.6575 2.1087 0.0, -0.8071 4.1732 0.0, 0.6307 4.1732 0.0, 0.6307 2.1087 0.0, 0.3346 -1.4567 0.0, -0.8071 -1.4567 0.0, 0.3346 -1.122 0.0, -0.8071 1.9094 0.0, 0.6307 -1.122 0.0, 0.6307 1.9094 0.0, 0.7283 1.2402 0.0, 0.7283 1.122 0.0, 1.988 1.9094 0.0, 1.988 -1.4567 0.0, 1.5158 -1.122 0.0, 1.5158 -1.4567 0.0, 0.8048 1.2402 0.0, 0.8048 1.9094 0.0, 0.9488 1.2402 0.0, 0.9488 1.9094 0.0, 1.1221 1.2402 0.0, 0.7856 2.0757 0.0, 0.8048 2.1087 0.0, 0.7856 2.0973 0.0, 0.7646 2.1059 0.0, 0.7628 1.9099 0.0, 0.7567 1.9094 0.0, 0.7856 1.916 0.0, 0.7856 1.9424 0.0, 0.7634 1.9329 0.0, 0.7821 2.0776 0.0, 0.7395 1.9298 0.0, 0.7201 1.932 0.0, 0.7054 1.9373 0.0, 0.6917 1.9464 0.0, 0.6799 1.9596 0.0, 0.6656 2.0112 0.0, 0.6675 2.0325 0.0, 0.6729 2.0494 0.0, 0.7167 2.0862 0.0, 0.7351 2.0883 0.0, 0.7024 2.0809 0.0, 0.6903 2.0728 0.0, 0.681 2.063 0.0, 0.7612 2.0854 0.0, 0.6717 1.9748 0.0, 0.6665 1.9958 0.0, 0.6881 2.1008 0.0, 0.6723 2.0907 0.0, 0.6575 2.0751 0.0, 0.647 2.0564 0.0, 0.6495 1.9625 0.0, 0.6611 1.9441 0.0, 0.6788 1.927 0.0, 0.6975 1.9162 0.0, 0.7195 1.9098 0.0, 0.7246 1.9094 0.0, 0.7393 1.9082 0.0, 0.6411 2.0356 0.0, 0.6391 2.0128 0.0, 0.642 1.9848 0.0, 0.7447 2.1087 0.0, 0.7368 2.1098 0.0, 0.8048 4.1732 0.0, 0.7314 2.1099 0.0, 0.7198 2.1087 0.0, 0.7072 2.1074 0.0, 1.988 2.1087 0.0, 1.1337 4.1732 0.0, 1.1337 2.1087 0.0, 0.9488 4.1732 0.0, 0.9488 2.1087 0.0, 0.5215 1.9106 0.0, 0.5479 1.9106 0.0, -0.8071 2.1087 0.0, 0.5215 2.1075 0.0, 0.8048 -1.122 0.0, 0.8048 1.122 0.0, 0.9488 -1.122 0.0, 0.9488 1.122 0.0, 1.1337 -1.122 0.0, 1.1221 1.122 0.0, 1.1337 1.9094 0.0, 0.5479 2.0859 0.0, 0.6223 2.0859 0.0, 0.6223 2.1075 0.0, 0.8504 1.9322 0.0, 0.8504 1.9971 0.0, 0.9248 1.9322 0.0, 0.92 1.9971 0.0, 0.9248 1.9106 0.0, 0.92 2.0187 0.0, 0.8504 2.0187 0.0, 0.8504 2.0859 0.0, 0.9296 2.0859 0.0, 0.9296 2.1075 0.0, 0.824 2.1075 0.0, 0.824 1.9106 0.0, 1.0236 1.9106 0.0, 1.052 1.9137 0.0, 1.0751 1.9218 0.0, 1.0965 1.9361 0.0, 1.1166 2.0535 0.0, 1.1054 2.0711 0.0, 1.0892 2.0866 0.0, 1.0686 2.0986 0.0, 1.0967 1.9363 0.0, 1.1106 1.9517 0.0, 1.1198 1.9687 0.0, 1.0459 2.1054 0.0, 1.0216 2.1075 0.0, 0.968 2.1075 0.0, 0.968 1.9106 0.0, 1.125 1.9881 0.0, 1.1265 2.0066 0.0, 1.1237 2.0329 0.0, 1.2897 2.1075 0.0, 1.3185 2.1075 0.0, 1.2417 1.9106 0.0, 1.2698 2.0523 0.0, 1.1885 2.0523 0.0, 1.1697 2.1075 0.0, 1.1409 2.1075 0.0, 1.2153 1.9106 0.0, 2.6575 1.9094 0.0, 2.6575 -1.4567 0.0, 2.6955 -1.4567 0.0292, 2.6969 -1.4567 0.0394, 2.6969 -1.4567 0.7874, 1.5158 -1.4567 0.7874, 2.6677 -1.4567 0.0013, 2.6772 -1.4567 0.0053, 2.6916 -1.4567 0.0197, 2.6853 -1.4567 0.0115, 1.5158 -1.1417 0.7874, 2.6969 -1.1417 0.7874, -0.6496 2.8346 2.5591, -0.6496 -1.1417 2.5591, -0.6281 -1.1417 2.8183, -0.6281 2.8346 2.8183, -0.5643 -1.1417 3.0704, -0.5643 2.8346 3.0704, -0.4598 -1.1417 3.3086, -0.4598 2.8346 3.3086, -0.3175 -1.1417 3.5263, -0.3175 2.8346 3.5263, -0.1414 -1.1417 3.7177, -0.1414 2.8346 3.7177, 0.0639 -1.1417 3.8774, 0.0639 2.8346 3.8774, 0.2926 -1.1417 4.0012, 0.2926 2.8346 4.0012, 0.5386 -1.1417 4.0857, 0.5386 2.8346 4.0857, 0.7952 -1.1417 4.1285, 0.7952 2.8346 4.1285, 1.0552 -1.1417 4.1285, 1.0552 2.8346 4.1285, 1.3118 -1.1417 4.0857, 1.3118 2.8346 4.0857, 1.5578 -1.1417 4.0012, 1.5578 2.8346 4.0012, 1.7865 -1.1417 3.8774, 1.7865 2.8346 3.8774, 1.9918 -1.1417 3.7177, 1.9918 2.8346 3.7177, 2.1679 -1.1417 3.5263, 2.1679 2.8346 3.5263, 2.3102 -1.1417 3.3086, 2.3102 2.8346 3.3086, 2.4147 -1.1417 3.0704, 2.4147 2.8346 3.0704, 2.4785 -1.1417 2.8183, 2.4785 2.8346 2.8183, 2.5 -1.1417 2.5591, 2.5 2.8346 2.5591, -0.8465 2.8346 2.5591, -0.8465 -1.1417 2.5591, 2.6969 2.8346 2.5591, 2.6969 -1.1417 2.5591, -0.8071 2.8346 4.3307, 2.6575 2.8346 4.3307, -0.8071 3.1496 4.3307, 2.6575 3.1496 4.3307, -0.8465 -1.4567 0.0394, -0.8465 -1.4567 0.7874, -0.8465 -1.1417 0.7874, -0.8465 4.1732 0.0394, -0.8465 2.8346 4.2913, -0.8465 3.1496 4.2913, -0.8465 3.1496 3.7402, -0.8465 3.8583 4.2913, -0.8465 4.1732 4.2913, -0.8465 3.8583 3.7402, 0.3346 -1.4567 0.7874, -0.8349 -1.4567 0.0115, -0.8268 -1.4567 0.0053, -0.8412 -1.4567 0.0197, -0.8451 -1.4567 0.0292, -0.8173 -1.4567 0.0013, 2.6969 3.1496 3.7402, 2.6969 4.1732 0.0394, 2.6969 3.8583 3.7402, 2.6969 4.1732 4.2913, 2.6969 3.8583 4.2913, 2.6969 3.1496 4.2913, 2.6969 2.8346 4.2913, -0.0752 4.2126 1.7613, -0.8071 4.2126 0.0394, -0.2015 4.2126 1.9527, -0.2917 4.2126 2.1637, 0.5848 4.2126 3.7925, 0.37 4.2126 3.7119, -0.8071 4.2126 4.2913, 0.1731 4.2126 3.5942, 0.0833 4.2126 1.5955, 0.2689 4.2126 1.4606, 0.4756 4.2126 1.3611, 1.5815 4.2126 1.4606, 1.7671 4.2126 1.5955, 2.6575 4.2126 0.0394, 2.6575 4.2126 4.2913, 1.6773 4.2126 3.5942, 1.4804 4.2126 3.7119, 0.0004 4.2126 3.4433, -0.1427 4.2126 3.2639, -0.2514 4.2126 3.0619, -0.3222 4.2126 2.8438, -0.353 4.2126 2.6165, -0.3427 4.2126 2.3873, 1.3748 4.2126 1.3611, 0.6967 4.2126 1.3001, 0.9252 4.2126 1.2795, 1.1537 4.2126 1.3001, 1.9256 4.2126 1.7613, 2.0519 4.2126 1.9527, 2.1421 4.2126 2.1637, 2.1018 4.2126 3.0619, 1.9931 4.2126 3.2639, 1.85 4.2126 3.4433, 2.1931 4.2126 2.3873, 2.2034 4.2126 2.6165, 2.1726 4.2126 2.8438, 1.2656 4.2126 3.7925, 1.0399 4.2126 3.8334, 0.8105 4.2126 3.8334, 1.1221 2.7799 1.2948, 1.1221 2.6879 1.2948, 1.1537 1.8504 1.3001, 1.0239 2.7077 1.2833, 0.9252 1.8504 1.2795, 0.7283 2.6879 1.2948, 0.6967 1.8504 1.3001, 0.8265 2.7077 1.2833, 0.9252 2.7143 1.2795, 0.7283 2.7799 1.2948, 0.9252 2.7711 1.2795, 0.4756 1.8504 1.3611, 0.2689 1.8504 1.4606, 0.0833 1.8504 1.5955, -0.0752 1.8504 1.7613, -0.2015 1.8504 1.9527, -0.2917 1.8504 2.1637, -0.3427 1.8504 2.3873, -0.353 1.8504 2.6165, -0.3222 1.8504 2.8438, -0.2514 1.8504 3.0619, -0.1427 1.8504 3.2639, 0.0004 1.8504 3.4433, 0.1731 1.8504 3.5942, 0.37 1.8504 3.7119, 0.5848 1.8504 3.7925, 0.8105 1.8504 3.8334, 1.0399 1.8504 3.8334, 1.2656 1.8504 3.7925, 1.4804 1.8504 3.7119, 1.6773 1.8504 3.5942, 1.85 1.8504 3.4433, 1.9931 1.8504 3.2639, 2.1018 1.8504 3.0619, 2.1726 1.8504 2.8438, 2.2034 1.8504 2.6165, 2.1931 1.8504 2.3873, 2.1421 1.8504 2.1637, 2.0519 1.8504 1.9527, 1.9256 1.8504 1.7613, 1.7671 1.8504 1.5955, 1.5815 1.8504 1.4606, 1.3748 1.8504 1.3611, 0.7283 1.8504 1.6302, 1.1221 1.8504 1.5106, 0.7283 1.8504 1.5106, 0.4498 1.8504 2.6864, 0.4331 1.8504 2.5591, 1.1221 1.8504 1.6302, 0.7978 1.8504 3.0344, 0.9252 1.8504 3.0512, 1.0526 1.8504 3.0344, 1.1713 1.8504 2.9853, 0.5772 1.8504 2.907, 0.6791 1.8504 2.9853, 0.4498 1.8504 2.4317, 0.499 1.8504 2.313, 0.5772 1.8504 2.2111, 0.6791 1.8504 2.1329, 0.499 1.8504 2.8051, 0.7978 1.8504 2.0837, 0.9252 1.8504 2.0669, 1.0526 1.8504 2.0837, 1.1713 1.8504 2.1329, 1.2732 1.8504 2.2111, 1.3514 1.8504 2.313, 1.2732 1.8504 2.907, 1.3514 1.8504 2.8051, 1.4006 1.8504 2.4317, 1.4173 1.8504 2.5591, 1.4006 1.8504 2.6864, 2.6955 2.8346 4.3015, 2.6916 2.8346 4.311, 2.6853 2.8346 4.3192, 2.6677 2.8346 4.3294, 2.6772 2.8346 4.3254, -0.8173 2.8346 4.3294, -0.8268 2.8346 4.3254, -0.8349 2.8346 4.3192, -0.8412 2.8346 4.311, -0.8451 2.8346 4.3015, 1.5158 -1.1417 3.937, 0.3346 -1.1417 0.7874, 0.3346 -1.1417 3.937, 1.5158 -1.122 3.937, 0.3346 -1.122 3.937
            ]
        }
        coordIndex [
            0,1,2,-1,3,4,5,-1,6,7,8,-1,8,7,9,-1,8,9,10,-1,11,12,13,-1,14,15,16,-1,16,15,17,-1,18,19,20,-1,20,19,21,-1,20,21,22,-1,19,23,24,-1,24,23,25,-1,24,25,26,-1,27,19,28,-1,28,19,18,-1,28,18,12,-1,27,29,19,-1,19,29,30,-1,19,30,23,-1,23,30,31,-1,23,31,32,-1,32,31,33,-1,32,33,34,-1,34,35,32,-1,32,35,36,-1,32,36,37,-1,38,39,32,-1,32,39,40,-1,41,42,43,-1,43,42,44,-1,40,45,32,-1,32,45,44,-1,32,44,46,-1,46,44,42,-1,37,47,32,-1,32,47,48,-1,32,48,38,-1,49,50,5,-1,5,50,51,-1,5,51,52,-1,53,54,11,-1,11,54,55,-1,11,55,56,-1,56,57,11,-1,11,57,58,-1,11,58,12,-1,12,58,59,-1,12,59,28,-1,52,60,5,-1,5,60,61,-1,5,61,11,-1,11,61,62,-1,11,62,53,-1,63,64,65,-1,65,64,4,-1,64,66,4,-1,4,66,67,-1,4,67,5,-1,5,67,68,-1,5,68,49,-1,0,69,70,-1,70,69,71,-1,70,71,72,-1,72,71,73,-1,72,73,65,-1,65,73,24,-1,65,24,63,-1,63,24,26,-1,74,75,11,-1,3,5,76,-1,76,5,77,-1,76,77,9,-1,77,74,9,-1,9,74,11,-1,9,11,10,-1,10,11,13,-1,10,13,78,-1,78,13,79,-1,78,79,80,-1,80,79,81,-1,80,81,82,-1,82,81,83,-1,82,83,84,-1,75,85,11,-1,11,85,86,-1,11,86,5,-1,5,86,87,-1,5,87,77,-1,88,89,90,-1,90,89,91,-1,19,92,21,-1,21,92,90,-1,21,90,73,-1,73,90,91,-1,73,91,93,-1,94,95,93,-1,93,95,96,-1,93,96,73,-1,73,96,97,-1,73,97,24,-1,24,97,98,-1,24,98,19,-1,19,98,99,-1,19,99,92,-1,83,22,84,-1,84,22,21,-1,84,21,100,-1,100,101,84,-1,84,101,102,-1,84,102,103,-1,104,105,71,-1,71,105,106,-1,71,106,107,-1,103,108,84,-1,84,108,109,-1,84,109,110,-1,107,111,71,-1,71,111,112,-1,71,112,73,-1,73,112,113,-1,73,113,21,-1,21,113,114,-1,21,114,100,-1,110,115,84,-1,84,115,116,-1,84,116,71,-1,71,116,117,-1,71,117,104,-1,118,71,119,-1,119,71,69,-1,119,69,120,-1,120,69,14,-1,120,14,84,-1,84,14,16,-1,84,16,82,-1,121,122,118,-1,118,122,123,-1,118,123,71,-1,71,123,124,-1,71,124,84,-1,84,124,125,-1,84,125,120,-1,0,2,69,-1,69,2,126,-1,69,126,14,-1,14,126,127,-1,14,127,15,-1,128,129,127,-1,127,129,130,-1,127,130,15,-1,15,130,131,-1,15,131,17,-1,127,132,128,-1,128,132,133,-1,128,133,134,-1,134,133,135,-1,131,130,136,-1,136,130,137,-1,138,139,140,-1,138,140,141,-1,141,140,142,-1,141,142,143,-1,143,142,144,-1,143,144,145,-1,145,144,146,-1,145,146,147,-1,147,146,148,-1,147,148,149,-1,149,148,150,-1,149,150,151,-1,151,150,152,-1,151,152,153,-1,153,152,154,-1,153,154,155,-1,155,154,156,-1,155,156,157,-1,157,156,158,-1,157,158,159,-1,159,158,160,-1,159,160,161,-1,161,160,162,-1,161,162,163,-1,163,162,164,-1,163,164,165,-1,165,164,166,-1,165,166,167,-1,167,166,168,-1,167,168,169,-1,169,168,170,-1,169,170,171,-1,171,170,172,-1,171,172,173,-1,173,172,174,-1,173,174,175,-1,175,174,176,-1,175,176,177,-1,138,178,139,-1,139,178,179,-1,180,177,181,-1,181,177,176,-1,182,183,184,-1,184,183,185,-1,186,187,188,-1,186,188,189,-1,189,188,179,-1,189,179,178,-1,190,191,192,-1,193,194,195,-1,195,194,189,-1,195,189,192,-1,192,189,178,-1,192,178,190,-1,6,196,7,-1,7,196,187,-1,197,198,199,-1,199,198,200,-1,187,186,7,-1,7,186,200,-1,7,200,201,-1,201,200,198,-1,180,181,137,-1,202,203,204,-1,204,203,205,-1,204,205,206,-1,207,208,202,-1,202,208,180,-1,202,180,203,-1,203,180,137,-1,203,137,129,-1,129,137,130,-1,209,210,211,-1,211,210,212,-1,213,214,215,-1,215,214,216,-1,209,217,210,-1,210,217,218,-1,210,218,219,-1,220,221,222,-1,223,224,225,-1,216,226,215,-1,215,226,227,-1,215,227,228,-1,228,229,215,-1,215,229,230,-1,215,230,210,-1,210,230,231,-1,210,231,212,-1,220,222,232,-1,219,233,210,-1,210,233,234,-1,210,234,222,-1,222,234,235,-1,222,235,232,-1,221,236,222,-1,222,236,237,-1,222,237,238,-1,239,240,223,-1,223,240,241,-1,223,241,224,-1,238,242,222,-1,222,242,243,-1,222,243,223,-1,223,243,244,-1,223,244,239,-1,225,245,223,-1,223,245,246,-1,223,246,215,-1,215,246,247,-1,215,247,213,-1,248,249,250,-1,250,249,251,-1,250,251,252,-1,253,254,255,-1,255,254,252,-1,255,252,256,-1,256,252,251,-1,233,257,234,-1,234,257,258,-1,234,258,235,-1,253,257,254,-1,254,257,233,-1,254,233,259,-1,259,233,219,-1,259,219,260,-1,260,219,218,-1,260,218,261,-1,261,218,217,-1,261,217,262,-1,262,217,209,-1,262,209,263,-1,263,209,211,-1,263,211,264,-1,264,211,212,-1,264,212,265,-1,265,212,231,-1,265,231,266,-1,266,231,230,-1,266,230,267,-1,267,230,229,-1,267,229,268,-1,268,229,228,-1,268,228,269,-1,269,228,227,-1,269,227,270,-1,270,227,226,-1,270,226,271,-1,271,226,216,-1,271,216,272,-1,272,216,214,-1,272,214,273,-1,273,214,213,-1,273,213,274,-1,274,213,247,-1,274,247,275,-1,275,247,246,-1,275,246,276,-1,276,246,245,-1,276,245,277,-1,277,245,225,-1,277,225,278,-1,278,225,224,-1,278,224,279,-1,279,224,241,-1,279,241,280,-1,280,241,240,-1,280,240,281,-1,281,240,239,-1,281,239,282,-1,282,239,244,-1,282,244,283,-1,283,244,243,-1,283,243,284,-1,284,243,242,-1,284,242,285,-1,285,242,238,-1,285,238,286,-1,286,238,237,-1,286,237,287,-1,287,237,236,-1,287,236,288,-1,288,236,221,-1,288,221,289,-1,289,221,220,-1,289,220,290,-1,290,220,232,-1,290,232,250,-1,250,232,235,-1,250,235,248,-1,248,235,258,-1,265,266,291,-1,250,252,292,-1,292,252,293,-1,294,295,266,-1,296,283,284,-1,284,285,296,-1,296,285,286,-1,296,286,287,-1,252,254,293,-1,293,254,259,-1,293,259,291,-1,287,288,296,-1,296,288,289,-1,296,289,292,-1,292,289,290,-1,292,290,250,-1,259,260,291,-1,291,260,261,-1,291,261,262,-1,262,263,291,-1,291,263,264,-1,291,264,265,-1,297,274,298,-1,298,274,275,-1,298,275,299,-1,299,275,276,-1,299,276,300,-1,301,271,302,-1,302,271,272,-1,302,272,297,-1,297,272,273,-1,297,273,274,-1,295,303,266,-1,266,303,304,-1,266,304,291,-1,291,304,305,-1,291,305,306,-1,266,267,294,-1,294,267,268,-1,294,268,307,-1,307,268,269,-1,307,269,301,-1,301,269,270,-1,301,270,271,-1,306,308,291,-1,291,308,309,-1,291,309,296,-1,296,309,310,-1,310,311,296,-1,296,311,312,-1,296,312,283,-1,283,312,313,-1,276,277,300,-1,300,277,278,-1,300,278,314,-1,314,278,279,-1,314,279,315,-1,313,316,283,-1,283,316,317,-1,283,317,282,-1,282,317,318,-1,282,318,281,-1,281,318,315,-1,281,315,280,-1,280,315,279,-1,178,138,141,-1,183,161,163,-1,169,171,208,-1,208,171,173,-1,208,173,180,-1,180,173,175,-1,180,175,177,-1,190,145,147,-1,208,319,169,-1,169,319,320,-1,169,320,321,-1,163,165,183,-1,183,165,167,-1,183,167,322,-1,322,167,169,-1,322,169,323,-1,323,169,321,-1,178,141,190,-1,190,141,143,-1,190,143,145,-1,153,155,182,-1,182,155,157,-1,182,157,183,-1,183,157,159,-1,183,159,161,-1,147,149,182,-1,182,149,151,-1,182,151,153,-1,182,324,147,-1,147,324,325,-1,147,325,326,-1,326,327,147,-1,147,327,328,-1,147,328,190,-1,160,158,329,-1,148,146,330,-1,330,146,144,-1,330,144,142,-1,179,188,139,-1,139,188,330,-1,139,330,140,-1,140,330,142,-1,137,181,136,-1,136,181,176,-1,136,176,174,-1,158,156,329,-1,329,156,154,-1,329,154,331,-1,331,154,152,-1,331,152,330,-1,330,152,150,-1,330,150,148,-1,174,172,136,-1,136,172,170,-1,136,170,168,-1,168,166,136,-1,136,166,164,-1,136,164,329,-1,329,164,162,-1,329,162,160,-1,330,188,196,-1,196,188,187,-1,329,332,136,-1,136,332,16,-1,136,16,131,-1,131,16,17,-1,333,331,330,-1,196,6,330,-1,330,6,8,-1,330,8,333,-1,82,16,332,-1,8,10,333,-1,333,10,78,-1,333,78,332,-1,332,78,80,-1,332,80,82,-1,332,329,333,-1,333,329,331,-1,
        ]
    }
}
Shape{
    appearance Appearance {
        material  Material 	{
            diffuseColor 0.6666666666666666 0.6980392156862745 0.7686274509803922
            specularColor 0.3333333333333333 0.34901960784313724 0.3843137254901961
            ambientIntensity 0.6967
            transparency 0.0
            shininess 0.5
        }
    }
    geometry IndexedFaceSet {
        ccw TRUE
        solid FALSE
        coord DEF co Coordinate {
            point [
                0.7283 2.3153 1.5099, 1.1221 2.3153 1.5099, 0.7283 2.2453 1.5403, 1.1221 2.2453 1.5403, 0.7283 2.1702 1.554, 1.1221 2.1702 1.554, 0.7283 2.094 1.5503, 1.1221 2.094 1.5503, 0.7283 2.075 1.6669, 1.1221 2.075 1.6669, 1.1221 2.1781 1.6718, 0.7283 2.1781 1.6718, 1.1221 2.2796 1.6533, 0.7283 2.2796 1.6533, 1.1221 2.3743 1.6122, 0.7283 2.3743 1.6122, 0.7283 2.8159 1.3572, 1.1221 2.8159 1.3572, 1.1221 1.8504 1.6302, 1.1221 1.8504 1.5106, 1.1221 2.6879 1.2948, 1.1221 2.7799 1.2948, 0.7283 1.8504 1.5106, 0.7283 1.8504 1.6302, 0.7283 2.6879 1.2948, 0.7283 2.7799 1.2948, 0.8265 2.7077 1.2833, 0.9252 2.7143 1.2795, 1.0239 2.7077 1.2833, 0.9252 2.7711 1.2795, 0.7283 1.2402 -1.1811, 0.7283 1.2402 0.0, 0.8048 1.2402 0.0, 0.9252 1.2402 -1.378, 0.8743 1.2402 -1.3712, 0.9488 1.2402 0.0, 0.8268 1.2402 -1.3516, 0.786 1.2402 -1.3203, 0.7547 1.2402 -1.2795, 0.7351 1.2402 -1.232, 1.1221 1.2402 0.0, 1.1221 1.2402 -1.1811, 0.9761 1.2402 -1.3712, 1.1153 1.2402 -1.232, 1.0957 1.2402 -1.2795, 1.0644 1.2402 -1.3203, 1.0236 1.2402 -1.3516, 1.1221 1.122 -1.1811, 1.1221 1.122 0.0, 0.9488 1.122 0.0, 0.8048 1.122 0.0, 0.786 1.122 -1.3203, 0.8268 1.122 -1.3516, 0.8743 1.122 -1.3712, 0.9252 1.122 -1.378, 0.9761 1.122 -1.3712, 1.1153 1.122 -1.232, 0.7283 1.122 0.0, 0.7283 1.122 -1.1811, 0.7547 1.122 -1.2795, 0.7351 1.122 -1.232, 1.0236 1.122 -1.3516, 1.0644 1.122 -1.3203, 1.0957 1.122 -1.2795
            ]
        }
        coordIndex [
            0,1,2,-1,2,1,3,-1,2,3,4,-1,4,3,5,-1,4,5,6,-1,6,5,7,-1,8,9,10,-1,8,10,11,-1,11,10,12,-1,11,12,13,-1,13,12,14,-1,13,14,15,-1,16,15,17,-1,17,15,14,-1,18,19,9,-1,9,19,7,-1,9,7,10,-1,10,7,5,-1,10,5,12,-1,12,5,3,-1,12,3,14,-1,14,3,1,-1,14,1,17,-1,17,1,20,-1,17,20,21,-1,22,23,6,-1,6,23,8,-1,6,8,4,-1,4,8,11,-1,4,11,2,-1,2,11,13,-1,2,13,0,-1,0,13,15,-1,0,15,24,-1,24,15,16,-1,24,16,25,-1,6,7,22,-1,22,7,19,-1,18,9,23,-1,23,9,8,-1,24,26,0,-1,0,26,27,-1,0,27,1,-1,1,27,28,-1,1,28,20,-1,17,21,16,-1,16,21,29,-1,16,29,25,-1,30,31,32,-1,33,34,35,-1,35,34,36,-1,35,36,32,-1,32,36,37,-1,32,37,30,-1,30,37,38,-1,30,38,39,-1,35,40,33,-1,33,40,41,-1,33,41,42,-1,42,41,43,-1,43,44,42,-1,42,44,45,-1,42,45,46,-1,47,48,49,-1,50,51,49,-1,49,51,52,-1,52,53,49,-1,49,53,54,-1,49,54,47,-1,47,54,55,-1,47,55,56,-1,50,57,51,-1,51,57,58,-1,51,58,59,-1,59,58,60,-1,61,62,55,-1,55,62,63,-1,55,63,56,-1,58,57,30,-1,30,57,31,-1,41,40,47,-1,47,40,48,-1,58,30,39,-1,58,39,60,-1,60,39,38,-1,60,38,59,-1,59,38,37,-1,59,37,51,-1,51,37,36,-1,51,36,52,-1,52,36,34,-1,52,34,53,-1,53,34,33,-1,53,33,54,-1,41,47,56,-1,41,56,43,-1,43,56,63,-1,43,63,44,-1,44,63,62,-1,44,62,45,-1,45,62,61,-1,45,61,46,-1,46,61,55,-1,46,55,42,-1,42,55,54,-1,42,54,33,-1,
        ]
    }
}
Shape{
    appearance Appearance {
        material  Material 	{
            diffuseColor 0.2980392156862745 0.2980392156862745 0.2980392156862745
            specularColor 0.09019607843137255 0.09019607843137255 0.09019607843137255
            ambientIntensity 0.298
            transparency 0.0
            shininess 0.5
        }
    }
    geometry IndexedFaceSet {
        ccw TRUE
        solid FALSE
        coord DEF co Coordinate {
            point [
                2.6575 3.1496 4.3307, 2.6575 2.8346 4.3307, 2.6677 2.8346 4.3294, 2.6677 3.1496 4.3294, 2.6772 2.8346 4.3254, 2.6772 3.1496 4.3254, 2.6853 2.8346 4.3192, 2.6853 3.1496 4.3192, 2.6916 2.8346 4.311, 2.6916 3.1496 4.311, 2.6955 2.8346 4.3015, 2.6955 3.1496 4.3015, 2.6969 2.8346 4.2913, 2.6969 3.1496 4.2913, 2.6575 4.2126 4.2913, 2.6575 4.2113 4.3015, 2.6673 4.21 4.3015, 2.6673 4.1903 4.3254, 2.6626 4.1821 4.3294, 2.6647 4.1804 4.3294, 2.6575 4.1732 4.3307, 2.6677 4.1732 4.3294, 2.6673 4.1759 4.3294, 2.6601 4.1831 4.3294, 2.6626 4.1922 4.3254, 2.6647 4.2001 4.3192, 2.6575 4.1834 4.3294, 2.6714 4.1871 4.3254, 2.6663 4.1783 4.3294, 2.6745 4.1831 4.3254, 2.6765 4.1783 4.3254, 2.6772 4.1732 4.3254, 2.6575 4.1929 4.3254, 2.6575 4.2011 4.3192, 2.6575 4.2073 4.311, 2.6714 4.1973 4.3192, 2.6772 4.1929 4.3192, 2.6816 4.1871 4.3192, 2.6844 4.1804 4.3192, 2.6853 4.1732 4.3192, 2.6663 4.2062 4.311, 2.6745 4.2028 4.311, 2.6816 4.1973 4.311, 2.687 4.1903 4.311, 2.6904 4.1821 4.311, 2.6916 4.1732 4.311, 2.6765 4.2062 4.3015, 2.6844 4.2001 4.3015, 2.6904 4.1922 4.3015, 2.6942 4.1831 4.3015, 2.6955 4.1732 4.3015, 2.6677 4.2113 4.2913, 2.6772 4.2073 4.2913, 2.6853 4.2011 4.2913, 2.6916 4.1929 4.2913, 2.6955 4.1834 4.2913, 2.6969 4.1732 4.2913, 2.6677 -1.4567 0.0013, 2.6575 -1.4567 0.0, 2.6575 1.9094 0.0, 2.6575 2.1087 0.0, 2.6575 4.1732 0.0, 2.6677 4.1732 0.0013, 2.6772 4.1732 0.0053, 2.6772 -1.4567 0.0053, 2.6853 4.1732 0.0115, 2.6853 -1.4567 0.0115, 2.6916 4.1732 0.0197, 2.6916 -1.4567 0.0197, 2.6955 4.1732 0.0292, 2.6955 -1.4567 0.0292, 2.6969 4.1732 0.0394, 2.6969 -1.4567 0.0394, 2.6955 4.1834 0.0394, 2.6916 4.1929 0.0394, 2.6853 4.2011 0.0394, 2.6772 4.2073 0.0394, 2.6677 4.2113 0.0394, 2.6575 4.2126 0.0394, -0.8071 4.1732 4.3307, -0.8071 4.1834 4.3294, -0.8071 4.1929 4.3254, -0.8071 4.2011 4.3192, -0.8071 4.2073 4.311, -0.8071 4.2113 4.3015, -0.8071 4.2126 4.2913, -0.8071 2.8346 4.3307, -0.8071 3.1496 4.3307, -0.8173 3.1496 4.3294, -0.8173 2.8346 4.3294, -0.8268 3.1496 4.3254, -0.8268 2.8346 4.3254, -0.8349 3.1496 4.3192, -0.8349 2.8346 4.3192, -0.8412 3.1496 4.311, -0.8412 2.8346 4.311, -0.8451 3.1496 4.3015, -0.8451 2.8346 4.3015, -0.8465 3.1496 4.2913, -0.8465 2.8346 4.2913, 2.6673 4.21 0.0292, 2.6765 4.2062 0.0292, 2.6663 4.2062 0.0197, 2.6745 4.2028 0.0197, 2.6647 4.2001 0.0115, 2.6714 4.1973 0.0115, 2.6626 4.1922 0.0053, 2.6673 4.1903 0.0053, 2.6601 4.1831 0.0013, 2.6626 4.1821 0.0013, 2.6844 4.2001 0.0292, 2.6816 4.1973 0.0197, 2.6772 4.1929 0.0115, 2.6714 4.1871 0.0053, 2.6647 4.1804 0.0013, 2.6575 4.2113 0.0292, 2.6575 4.2073 0.0197, 2.6575 4.2011 0.0115, 2.6575 4.1929 0.0053, 2.6575 4.1834 0.0013, 2.6904 4.1922 0.0292, 2.6942 4.1831 0.0292, 2.687 4.1903 0.0197, 2.6904 4.1821 0.0197, 2.6816 4.1871 0.0115, 2.6844 4.1804 0.0115, 2.6745 4.1831 0.0053, 2.6765 4.1783 0.0053, 2.6663 4.1783 0.0013, 2.6673 4.1759 0.0013, -0.8465 4.1732 4.2913, -0.8451 4.1732 4.3015, -0.8438 4.1831 4.3015, -0.8241 4.1831 4.3254, -0.8159 4.1783 4.3294, -0.8143 4.1804 4.3294, -0.8097 4.1831 4.3294, -0.8169 4.1759 4.3294, -0.8261 4.1783 4.3254, -0.834 4.1804 4.3192, -0.8173 4.1732 4.3294, -0.821 4.1871 4.3254, -0.8122 4.1821 4.3294, -0.8169 4.1903 4.3254, -0.8122 4.1922 4.3254, -0.8268 4.1732 4.3254, -0.8349 4.1732 4.3192, -0.8412 4.1732 4.311, -0.8312 4.1871 4.3192, -0.8268 4.1929 4.3192, -0.821 4.1973 4.3192, -0.8143 4.2001 4.3192, -0.84 4.1821 4.311, -0.8366 4.1903 4.311, -0.8312 4.1973 4.311, -0.8241 4.2028 4.311, -0.8159 4.2062 4.311, -0.84 4.1922 4.3015, -0.834 4.2001 4.3015, -0.8261 4.2062 4.3015, -0.8169 4.21 4.3015, -0.8451 4.1834 4.2913, -0.8412 4.1929 4.2913, -0.8349 4.2011 4.2913, -0.8268 4.2073 4.2913, -0.8173 4.2113 4.2913, 1.988 4.1732 0.0, 1.1337 4.1732 0.0, 0.9488 4.1732 0.0, 0.8048 4.1732 0.0, -0.8071 4.1834 0.0013, 0.6307 4.1732 0.0, -0.8071 4.1732 0.0, -0.8071 4.1929 0.0053, -0.8071 4.2011 0.0115, -0.8071 4.2073 0.0197, -0.8071 4.2113 0.0292, -0.8071 4.2126 0.0394, -0.8173 4.2113 0.0394, -0.8268 4.2073 0.0394, -0.8349 4.2011 0.0394, -0.8412 4.1929 0.0394, -0.8451 4.1834 0.0394, -0.8465 4.1732 0.0394, -0.8438 4.1831 0.0292, -0.84 4.1922 0.0292, -0.84 4.1821 0.0197, -0.8366 4.1903 0.0197, -0.834 4.1804 0.0115, -0.8312 4.1871 0.0115, -0.8261 4.1783 0.0053, -0.8241 4.1831 0.0053, -0.8169 4.1759 0.0013, -0.8159 4.1783 0.0013, -0.834 4.2001 0.0292, -0.8312 4.1973 0.0197, -0.8268 4.1929 0.0115, -0.821 4.1871 0.0053, -0.8143 4.1804 0.0013, -0.8451 4.1732 0.0292, -0.8412 4.1732 0.0197, -0.8349 4.1732 0.0115, -0.8268 4.1732 0.0053, -0.8173 4.1732 0.0013, -0.8261 4.2062 0.0292, -0.8169 4.21 0.0292, -0.8241 4.2028 0.0197, -0.8159 4.2062 0.0197, -0.821 4.1973 0.0115, -0.8143 4.2001 0.0115, -0.8169 4.1903 0.0053, -0.8122 4.1922 0.0053, -0.8122 4.1821 0.0013, -0.8097 4.1831 0.0013, -0.8071 1.9094 0.0, -0.8071 -1.4567 0.0, -0.8173 -1.4567 0.0013, -0.8071 2.1087 0.0, -0.8268 -1.4567 0.0053, -0.8349 -1.4567 0.0115, -0.8412 -1.4567 0.0197, -0.8451 -1.4567 0.0292, -0.8465 -1.4567 0.0394
            ]
        }
        coordIndex [
            0,1,2,-1,0,2,3,-1,3,2,4,-1,3,4,5,-1,5,4,6,-1,5,6,7,-1,7,6,8,-1,7,8,9,-1,9,8,10,-1,9,10,11,-1,11,10,12,-1,11,12,13,-1,14,15,16,-1,17,18,19,-1,20,21,22,-1,19,18,20,-1,23,20,18,-1,23,18,24,-1,24,18,17,-1,24,17,25,-1,26,20,23,-1,27,28,29,-1,29,28,22,-1,29,22,30,-1,30,22,21,-1,30,21,31,-1,26,23,32,-1,32,23,24,-1,32,24,33,-1,33,24,25,-1,33,25,34,-1,35,27,36,-1,36,27,29,-1,36,29,37,-1,37,29,30,-1,37,30,38,-1,38,30,31,-1,38,31,39,-1,40,35,41,-1,41,35,36,-1,41,36,42,-1,42,36,37,-1,42,37,43,-1,43,37,38,-1,43,38,44,-1,44,38,39,-1,44,39,45,-1,15,40,16,-1,16,40,41,-1,16,41,46,-1,46,41,42,-1,46,42,47,-1,47,42,43,-1,47,43,48,-1,48,43,44,-1,48,44,49,-1,49,44,45,-1,49,45,50,-1,14,16,51,-1,51,16,46,-1,51,46,52,-1,52,46,47,-1,52,47,53,-1,53,47,48,-1,53,48,54,-1,54,48,49,-1,54,49,55,-1,55,49,50,-1,55,50,56,-1,28,20,22,-1,15,34,40,-1,40,34,25,-1,40,25,35,-1,35,25,17,-1,35,17,27,-1,27,17,19,-1,27,19,28,-1,28,19,20,-1,57,58,59,-1,60,61,62,-1,60,62,59,-1,59,62,57,-1,57,62,63,-1,57,63,64,-1,64,63,65,-1,64,65,66,-1,66,65,67,-1,66,67,68,-1,68,67,69,-1,68,69,70,-1,70,69,71,-1,70,71,72,-1,56,71,73,-1,56,73,55,-1,55,73,74,-1,55,74,54,-1,54,74,75,-1,54,75,53,-1,53,75,76,-1,53,76,52,-1,52,76,77,-1,52,77,51,-1,51,77,78,-1,51,78,14,-1,79,20,26,-1,79,26,80,-1,80,26,32,-1,80,32,81,-1,81,32,33,-1,81,33,82,-1,82,33,34,-1,82,34,83,-1,83,34,15,-1,83,15,84,-1,84,15,14,-1,84,14,85,-1,86,87,88,-1,86,88,89,-1,89,88,90,-1,89,90,91,-1,91,90,92,-1,91,92,93,-1,93,92,94,-1,93,94,95,-1,95,94,96,-1,95,96,97,-1,97,96,98,-1,97,98,99,-1,77,76,100,-1,100,76,101,-1,100,101,102,-1,102,101,103,-1,102,103,104,-1,104,103,105,-1,104,105,106,-1,106,105,107,-1,106,107,108,-1,108,107,109,-1,108,109,61,-1,76,75,101,-1,101,75,110,-1,101,110,103,-1,103,110,111,-1,103,111,105,-1,105,111,112,-1,105,112,107,-1,107,112,113,-1,107,113,109,-1,109,113,114,-1,109,114,61,-1,78,77,115,-1,115,77,100,-1,115,100,116,-1,116,100,102,-1,116,102,117,-1,117,102,104,-1,117,104,118,-1,118,104,106,-1,118,106,119,-1,119,106,108,-1,119,108,61,-1,74,73,120,-1,120,73,121,-1,120,121,122,-1,122,121,123,-1,122,123,124,-1,124,123,125,-1,124,125,126,-1,126,125,127,-1,126,127,128,-1,128,127,129,-1,128,129,61,-1,73,71,121,-1,121,71,69,-1,121,69,123,-1,123,69,67,-1,123,67,125,-1,125,67,65,-1,125,65,127,-1,127,65,63,-1,127,63,129,-1,129,63,62,-1,129,62,61,-1,75,74,110,-1,110,74,120,-1,110,120,111,-1,111,120,122,-1,111,122,112,-1,112,122,124,-1,112,124,113,-1,113,124,126,-1,113,126,114,-1,114,126,128,-1,114,128,61,-1,130,131,132,-1,133,134,135,-1,79,80,136,-1,135,134,79,-1,137,79,134,-1,137,134,138,-1,138,134,133,-1,138,133,139,-1,140,79,137,-1,141,142,143,-1,143,142,136,-1,143,136,144,-1,144,136,80,-1,144,80,81,-1,140,137,145,-1,145,137,138,-1,145,138,146,-1,146,138,139,-1,146,139,147,-1,148,141,149,-1,149,141,143,-1,149,143,150,-1,150,143,144,-1,150,144,151,-1,151,144,81,-1,151,81,82,-1,152,148,153,-1,153,148,149,-1,153,149,154,-1,154,149,150,-1,154,150,155,-1,155,150,151,-1,155,151,156,-1,156,151,82,-1,156,82,83,-1,131,152,132,-1,132,152,153,-1,132,153,157,-1,157,153,154,-1,157,154,158,-1,158,154,155,-1,158,155,159,-1,159,155,156,-1,159,156,160,-1,160,156,83,-1,160,83,84,-1,130,132,161,-1,161,132,157,-1,161,157,162,-1,162,157,158,-1,162,158,163,-1,163,158,159,-1,163,159,164,-1,164,159,160,-1,164,160,165,-1,165,160,84,-1,165,84,85,-1,142,79,136,-1,131,147,152,-1,152,147,139,-1,152,139,148,-1,148,139,133,-1,148,133,141,-1,141,133,135,-1,141,135,142,-1,142,135,79,-1,61,166,119,-1,119,166,167,-1,119,167,168,-1,168,169,170,-1,170,169,171,-1,170,171,172,-1,168,170,119,-1,119,170,173,-1,119,173,118,-1,118,173,174,-1,118,174,117,-1,117,174,175,-1,117,175,116,-1,116,175,176,-1,116,176,115,-1,115,176,177,-1,115,177,78,-1,85,177,178,-1,85,178,165,-1,165,178,179,-1,165,179,164,-1,164,179,180,-1,164,180,163,-1,163,180,181,-1,163,181,162,-1,162,181,182,-1,162,182,161,-1,161,182,183,-1,161,183,130,-1,182,181,184,-1,184,181,185,-1,184,185,186,-1,186,185,187,-1,186,187,188,-1,188,187,189,-1,188,189,190,-1,190,189,191,-1,190,191,192,-1,192,191,193,-1,192,193,172,-1,181,180,185,-1,185,180,194,-1,185,194,187,-1,187,194,195,-1,187,195,189,-1,189,195,196,-1,189,196,191,-1,191,196,197,-1,191,197,193,-1,193,197,198,-1,193,198,172,-1,183,182,199,-1,199,182,184,-1,199,184,200,-1,200,184,186,-1,200,186,201,-1,201,186,188,-1,201,188,202,-1,202,188,190,-1,202,190,203,-1,203,190,192,-1,203,192,172,-1,179,178,204,-1,204,178,205,-1,204,205,206,-1,206,205,207,-1,206,207,208,-1,208,207,209,-1,208,209,210,-1,210,209,211,-1,210,211,212,-1,212,211,213,-1,212,213,172,-1,178,177,205,-1,205,177,176,-1,205,176,207,-1,207,176,175,-1,207,175,209,-1,209,175,174,-1,209,174,211,-1,211,174,173,-1,211,173,213,-1,213,173,170,-1,213,170,172,-1,180,179,194,-1,194,179,204,-1,194,204,195,-1,195,204,206,-1,195,206,196,-1,196,206,208,-1,196,208,197,-1,197,208,210,-1,197,210,198,-1,198,210,212,-1,198,212,172,-1,214,215,216,-1,214,203,217,-1,217,203,172,-1,214,216,203,-1,203,216,218,-1,203,218,202,-1,202,218,219,-1,202,219,201,-1,201,219,220,-1,201,220,200,-1,200,220,221,-1,200,221,199,-1,199,221,222,-1,199,222,183,-1,
        ]
    }
}
Shape{
    appearance Appearance {
        material  Material 	{
            diffuseColor 1.0 1.0 1.0
            specularColor 0.5019607843137255 0.5019607843137255 0.5019607843137255
            ambientIntensity 1.0
            transparency 0.0
            shininess 0.5
        }
    }
    geometry IndexedFaceSet {
        ccw TRUE
        solid FALSE
        coord DEF co Coordinate {
            point [
                1.2417 1.9106 0.0004, 1.3185 2.1075 0.0004, 1.2417 1.9106 0.0, 1.3185 2.1075 0.0, 1.2897 2.1075 0.0004, 1.2897 2.1075 0.0, 1.2698 2.0523 0.0004, 1.2698 2.0523 0.0, 1.1885 2.0523 0.0004, 1.1885 2.0523 0.0, 1.1697 2.1075 0.0004, 1.1697 2.1075 0.0, 1.1409 2.1075 0.0004, 1.1409 2.1075 0.0, 1.2153 1.9106 0.0004, 1.2153 1.9106 0.0, 1.1951 2.0307 0.0004, 1.2245 1.9484 0.0004, 1.2264 1.9416 0.0004, 1.2276 1.9346 0.0004, 1.2283 1.9346 0.0004, 1.2296 1.9416 0.0004, 1.2609 2.0307 0.0004, 1.2313 1.9484 0.0004, 1.1951 2.0307 0.0, 1.2609 2.0307 0.0, 1.2245 1.9484 0.0, 1.2264 1.9416 0.0, 1.2276 1.9346 0.0, 1.2283 1.9346 0.0, 1.2296 1.9416 0.0, 1.2313 1.9484 0.0, 1.0216 2.1075 0.0004, 0.968 2.1075 0.0004, 1.0216 2.1075 0.0, 0.968 2.1075 0.0, 0.968 1.9106 0.0004, 0.968 1.9106 0.0, 1.0236 1.9106 0.0004, 1.0236 1.9106 0.0, 1.1265 2.0066 0.0004, 1.1265 2.0066 0.0, 1.125 1.9881 0.0, 1.125 1.9881 0.0004, 1.1198 1.9687 0.0, 1.1198 1.9687 0.0004, 1.1106 1.9517 0.0, 1.1106 1.9517 0.0004, 1.0967 1.9363 0.0, 1.0967 1.9363 0.0004, 1.0965 1.9361 0.0, 1.0965 1.9361 0.0004, 1.0751 1.9218 0.0, 1.0751 1.9218 0.0004, 1.052 1.9137 0.0, 1.052 1.9137 0.0004, 1.0459 2.1054 0.0, 1.0459 2.1054 0.0004, 1.0686 2.0986 0.0, 1.0686 2.0986 0.0004, 1.0892 2.0866 0.0, 1.0892 2.0866 0.0004, 1.1054 2.0711 0.0, 1.1054 2.0711 0.0004, 1.1166 2.0535 0.0, 1.1166 2.0535 0.0004, 1.1237 2.0329 0.0, 1.1237 2.0329 0.0004, 1.087 1.9598 0.0004, 1.0774 1.9497 0.0004, 1.063 1.9404 0.0004, 1.0468 1.9347 0.0004, 1.0235 1.9322 0.0004, 0.9944 1.9322 0.0004, 0.9944 2.0859 0.0004, 1.0224 2.0859 0.0004, 1.0432 2.0839 0.0004, 1.0597 2.0788 0.0004, 1.0731 2.0708 0.0004, 1.0842 2.0599 0.0004, 1.0925 2.0463 0.0004, 1.0983 2.0278 0.0004, 1.1001 2.0071 0.0004, 1.0984 1.9876 0.0004, 1.0938 1.972 0.0004, 1.0235 1.9322 0.0, 0.9944 1.9322 0.0, 1.0468 1.9347 0.0, 1.063 1.9404 0.0, 1.0774 1.9497 0.0, 1.087 1.9598 0.0, 1.0938 1.972 0.0, 1.0984 1.9876 0.0, 1.1001 2.0071 0.0, 1.0983 2.0278 0.0, 1.0925 2.0463 0.0, 1.0842 2.0599 0.0, 1.0731 2.0708 0.0, 1.0597 2.0788 0.0, 1.0432 2.0839 0.0, 1.0224 2.0859 0.0, 0.9944 2.0859 0.0, 0.9296 2.0859 0.0004, 0.9296 2.1075 0.0004, 0.9296 2.0859 0.0, 0.9296 2.1075 0.0, 0.824 2.1075 0.0004, 0.824 2.1075 0.0, 0.824 1.9106 0.0004, 0.824 1.9106 0.0, 0.9248 1.9106 0.0004, 0.9248 1.9106 0.0, 0.9248 1.9322 0.0004, 0.9248 1.9322 0.0, 0.8504 1.9322 0.0004, 0.8504 1.9322 0.0, 0.8504 1.9971 0.0004, 0.8504 1.9971 0.0, 0.92 1.9971 0.0004, 0.92 1.9971 0.0, 0.92 2.0187 0.0004, 0.92 2.0187 0.0, 0.8504 2.0187 0.0004, 0.8504 2.0187 0.0, 0.8504 2.0859 0.0004, 0.8504 2.0859 0.0, 0.7856 2.0757 0.0004, 0.7856 2.0973 0.0004, 0.7856 2.0757 0.0, 0.7856 2.0973 0.0, 0.7646 2.1059 0.0004, 0.7314 2.1099 0.0004, 0.7314 2.1099 0.0, 0.7368 2.1098 0.0, 0.7368 2.1098 0.0004, 0.7447 2.1087 0.0, 0.7646 2.1059 0.0, 0.7198 2.1087 0.0, 0.7072 2.1074 0.0004, 0.7072 2.1074 0.0, 0.6881 2.1008 0.0004, 0.6881 2.1008 0.0, 0.6723 2.0907 0.0004, 0.6723 2.0907 0.0, 0.6575 2.0751 0.0004, 0.6575 2.0751 0.0, 0.647 2.0564 0.0004, 0.647 2.0564 0.0, 0.6411 2.0356 0.0004, 0.6411 2.0356 0.0, 0.6391 2.0128 0.0004, 0.6391 2.0128 0.0, 0.7195 1.9098 0.0004, 0.7393 1.9082 0.0004, 0.7246 1.9094 0.0, 0.7393 1.9082 0.0, 0.7195 1.9098 0.0, 0.6975 1.9162 0.0, 0.6975 1.9162 0.0004, 0.6788 1.927 0.0, 0.6788 1.927 0.0004, 0.6611 1.9441 0.0, 0.6611 1.9441 0.0004, 0.6495 1.9625 0.0, 0.6495 1.9625 0.0004, 0.642 1.9848 0.0, 0.642 1.9848 0.0004, 0.7567 1.9094 0.0, 0.7628 1.9099 0.0004, 0.7628 1.9099 0.0, 0.7856 1.916 0.0004, 0.7856 1.916 0.0, 0.7856 1.9424 0.0004, 0.7856 1.9424 0.0, 0.7395 1.9298 0.0004, 0.7395 1.9298 0.0, 0.7634 1.9329 0.0, 0.7634 1.9329 0.0004, 0.6656 2.0112 0.0004, 0.6656 2.0112 0.0, 0.6665 1.9958 0.0, 0.6665 1.9958 0.0004, 0.6717 1.9748 0.0, 0.6717 1.9748 0.0004, 0.6799 1.9596 0.0, 0.6799 1.9596 0.0004, 0.6917 1.9464 0.0, 0.6917 1.9464 0.0004, 0.7054 1.9373 0.0, 0.7054 1.9373 0.0004, 0.7201 1.932 0.0, 0.7201 1.932 0.0004, 0.7351 2.0883 0.0004, 0.7351 2.0883 0.0, 0.7167 2.0862 0.0, 0.7167 2.0862 0.0004, 0.7024 2.0809 0.0, 0.7024 2.0809 0.0004, 0.6903 2.0728 0.0, 0.6903 2.0728 0.0004, 0.681 2.063 0.0, 0.681 2.063 0.0004, 0.6729 2.0494 0.0, 0.6729 2.0494 0.0004, 0.6675 2.0325 0.0, 0.6675 2.0325 0.0004, 0.7821 2.0776 0.0, 0.7821 2.0776 0.0004, 0.7612 2.0854 0.0, 0.7612 2.0854 0.0004, 0.6223 2.0859 0.0004, 0.6223 2.1075 0.0004, 0.6223 2.0859 0.0, 0.6223 2.1075 0.0, 0.5215 2.1075 0.0004, 0.5215 2.1075 0.0, 0.5215 1.9106 0.0004, 0.5215 1.9106 0.0, 0.5479 1.9106 0.0004, 0.5479 1.9106 0.0, 0.5479 2.0859 0.0004, 0.5479 2.0859 0.0
            ]
        }
        coordIndex [
            0,1,2,-1,2,1,3,-1,1,4,3,-1,3,4,5,-1,4,6,5,-1,5,6,7,-1,6,8,7,-1,7,8,9,-1,8,10,9,-1,9,10,11,-1,10,12,11,-1,11,12,13,-1,12,14,13,-1,13,14,15,-1,14,0,15,-1,15,0,2,-1,16,17,14,-1,12,10,8,-1,17,18,14,-1,14,18,19,-1,14,19,0,-1,0,19,20,-1,0,20,21,-1,14,12,16,-1,16,12,8,-1,16,8,22,-1,22,8,6,-1,21,23,0,-1,0,23,22,-1,0,22,1,-1,1,22,6,-1,1,6,4,-1,16,22,24,-1,24,22,25,-1,17,16,26,-1,26,16,24,-1,17,26,27,-1,17,27,18,-1,18,27,28,-1,18,28,19,-1,20,19,29,-1,29,19,28,-1,20,29,30,-1,20,30,21,-1,21,30,31,-1,21,31,23,-1,22,23,25,-1,25,23,31,-1,32,33,34,-1,34,33,35,-1,33,36,35,-1,35,36,37,-1,36,38,37,-1,37,38,39,-1,40,41,42,-1,40,42,43,-1,43,42,44,-1,43,44,45,-1,45,44,46,-1,45,46,47,-1,47,46,48,-1,47,48,49,-1,49,48,50,-1,49,50,51,-1,51,50,52,-1,51,52,53,-1,53,52,54,-1,53,54,55,-1,55,54,39,-1,55,39,38,-1,32,34,56,-1,32,56,57,-1,57,56,58,-1,57,58,59,-1,59,58,60,-1,59,60,61,-1,61,60,62,-1,61,62,63,-1,63,62,64,-1,63,64,65,-1,65,64,66,-1,65,66,67,-1,67,66,41,-1,67,41,40,-1,45,47,68,-1,68,47,49,-1,68,49,69,-1,69,49,51,-1,69,51,70,-1,70,51,53,-1,70,53,71,-1,71,53,55,-1,71,55,72,-1,72,55,38,-1,72,38,73,-1,73,38,36,-1,73,36,74,-1,74,36,33,-1,74,33,75,-1,75,33,32,-1,75,32,76,-1,76,32,57,-1,76,57,77,-1,77,57,59,-1,77,59,78,-1,78,59,61,-1,78,61,79,-1,79,61,63,-1,79,63,80,-1,80,63,65,-1,80,65,81,-1,81,65,67,-1,81,67,82,-1,82,67,40,-1,82,40,83,-1,83,40,43,-1,83,43,84,-1,84,43,45,-1,84,45,68,-1,72,73,85,-1,85,73,86,-1,72,85,87,-1,72,87,71,-1,71,87,88,-1,71,88,70,-1,70,88,89,-1,70,89,69,-1,69,89,90,-1,69,90,68,-1,68,90,91,-1,68,91,84,-1,84,91,92,-1,84,92,83,-1,83,92,93,-1,83,93,82,-1,82,93,94,-1,82,94,81,-1,81,94,95,-1,81,95,80,-1,80,95,96,-1,80,96,79,-1,79,96,97,-1,79,97,78,-1,78,97,98,-1,78,98,77,-1,77,98,99,-1,77,99,76,-1,76,99,100,-1,76,100,75,-1,74,75,101,-1,101,75,100,-1,73,74,86,-1,86,74,101,-1,102,103,104,-1,104,103,105,-1,103,106,105,-1,105,106,107,-1,106,108,107,-1,107,108,109,-1,108,110,109,-1,109,110,111,-1,110,112,111,-1,111,112,113,-1,112,114,113,-1,113,114,115,-1,114,116,115,-1,115,116,117,-1,116,118,117,-1,117,118,119,-1,118,120,119,-1,119,120,121,-1,120,122,121,-1,121,122,123,-1,122,124,123,-1,123,124,125,-1,124,102,125,-1,125,102,104,-1,106,103,102,-1,102,124,106,-1,106,124,122,-1,106,122,108,-1,112,110,114,-1,114,110,108,-1,114,108,116,-1,116,108,122,-1,116,122,118,-1,118,122,120,-1,126,127,128,-1,128,127,129,-1,129,127,130,-1,131,132,133,-1,131,133,134,-1,134,133,135,-1,134,135,130,-1,130,135,136,-1,130,136,129,-1,132,131,137,-1,137,131,138,-1,137,138,139,-1,139,138,140,-1,139,140,141,-1,141,140,142,-1,141,142,143,-1,143,142,144,-1,143,144,145,-1,145,144,146,-1,145,146,147,-1,147,146,148,-1,147,148,149,-1,149,148,150,-1,149,150,151,-1,152,153,154,-1,154,153,155,-1,154,156,152,-1,152,156,157,-1,152,157,158,-1,158,157,159,-1,158,159,160,-1,160,159,161,-1,160,161,162,-1,162,161,163,-1,162,163,164,-1,164,163,165,-1,164,165,166,-1,166,165,151,-1,166,151,150,-1,155,153,167,-1,167,153,168,-1,167,168,169,-1,169,168,170,-1,169,170,171,-1,170,172,171,-1,171,172,173,-1,174,175,176,-1,174,176,177,-1,177,176,173,-1,177,173,172,-1,178,179,180,-1,178,180,181,-1,181,180,182,-1,181,182,183,-1,183,182,184,-1,183,184,185,-1,185,184,186,-1,185,186,187,-1,187,186,188,-1,187,188,189,-1,189,188,190,-1,189,190,191,-1,191,190,175,-1,191,175,174,-1,192,193,194,-1,192,194,195,-1,195,194,196,-1,195,196,197,-1,197,196,198,-1,197,198,199,-1,199,198,200,-1,199,200,201,-1,201,200,202,-1,201,202,203,-1,203,202,204,-1,203,204,205,-1,205,204,179,-1,205,179,178,-1,126,128,206,-1,126,206,207,-1,207,206,208,-1,207,208,209,-1,209,208,193,-1,209,193,192,-1,195,131,192,-1,192,131,134,-1,192,134,209,-1,209,134,130,-1,209,130,207,-1,207,130,127,-1,207,127,126,-1,172,170,177,-1,177,170,168,-1,177,168,174,-1,174,168,153,-1,174,153,191,-1,191,153,152,-1,191,152,189,-1,189,152,158,-1,189,158,187,-1,187,158,160,-1,187,160,185,-1,185,160,162,-1,185,162,183,-1,183,162,164,-1,183,164,181,-1,181,164,166,-1,181,166,178,-1,178,166,150,-1,178,150,205,-1,205,150,148,-1,205,148,203,-1,203,148,146,-1,203,146,201,-1,201,146,144,-1,201,144,199,-1,199,144,142,-1,199,142,197,-1,197,142,140,-1,197,140,195,-1,195,140,138,-1,195,138,131,-1,210,211,212,-1,212,211,213,-1,211,214,213,-1,213,214,215,-1,214,216,215,-1,215,216,217,-1,216,218,217,-1,217,218,219,-1,218,220,219,-1,219,220,221,-1,220,210,221,-1,221,210,212,-1,218,216,220,-1,220,216,214,-1,220,214,210,-1,210,214,211,-1,
        ]
    }
}
Shape{
    appearance Appearance {
        material  Material 	{
            diffuseColor 0.2235294117647059 0.2235294117647059 0.2235294117647059
            specularColor 0.06666666666666667 0.06666666666666667 0.06666666666666667
            ambientIntensity 0.2235
            transparency 0.0
            shininess 0.5
        }
    }
    geometry IndexedFaceSet {
        ccw TRUE
        solid FALSE
        coord DEF co Coordinate {
            point [
                1.1951 2.0307 0.0, 1.2609 2.0307 0.0, 1.2245 1.9484 0.0, 1.2313 1.9484 0.0, 1.2264 1.9416 0.0, 1.2296 1.9416 0.0, 1.2276 1.9346 0.0, 1.2283 1.9346 0.0, 0.9944 1.9322 0.0, 0.9944 2.0859 0.0, 1.0235 1.9322 0.0, 1.0224 2.0859 0.0, 1.0432 2.0839 0.0, 1.1001 2.0071 0.0, 1.0984 1.9876 0.0, 1.0938 1.972 0.0, 1.0468 1.9347 0.0, 1.0597 2.0788 0.0, 1.0731 2.0708 0.0, 1.0842 2.0599 0.0, 1.0925 2.0463 0.0, 1.0983 2.0278 0.0, 1.087 1.9598 0.0, 1.0774 1.9497 0.0, 1.063 1.9404 0.0
            ]
        }
        coordIndex [
            0,1,2,-1,2,1,3,-1,2,3,4,-1,4,3,5,-1,4,5,6,-1,6,5,7,-1,8,9,10,-1,10,9,11,-1,10,11,12,-1,13,14,10,-1,10,14,15,-1,10,15,16,-1,12,17,10,-1,10,17,18,-1,10,18,19,-1,19,20,10,-1,10,20,21,-1,10,21,13,-1,22,23,15,-1,15,23,24,-1,15,24,16,-1,
        ]
    }
}
Shape{
    appearance Appearance {
        material  Material 	{
            diffuseColor 0.6666666666666666 0.6980392156862745 0.7686274509803922
            specularColor 0.3333333333333333 0.34901960784313724 0.3843137254901961
            ambientIntensity 0.6967
            transparency 0.0
            shininess 0.5
        }
    }
    geometry IndexedFaceSet {
        ccw TRUE
        solid FALSE
        coord DEF co Coordinate {
            point [
                0.9252 1.8504 3.0512, 0.7978 2.2441 3.0344, 0.7978 1.8504 3.0344, 0.6791 2.2441 2.9853, 0.6791 1.8504 2.9853, 0.5772 2.2441 2.907, 0.5772 1.8504 2.907, 0.499 2.2441 2.8051, 0.499 1.8504 2.8051, 0.4498 2.2441 2.6864, 0.4498 1.8504 2.6864, 0.4331 2.2441 2.5591, 0.4331 1.8504 2.5591, 0.4498 2.2441 2.4317, 0.4498 1.8504 2.4317, 0.499 2.2441 2.313, 0.499 1.8504 2.313, 0.5772 2.2441 2.2111, 0.5772 1.8504 2.2111, 0.6791 2.2441 2.1329, 0.6791 1.8504 2.1329, 0.7978 2.2441 2.0837, 0.7978 1.8504 2.0837, 0.9252 2.2441 2.0669, 0.9252 1.8504 2.0669, 1.0526 2.2441 2.0837, 1.0526 1.8504 2.0837, 1.1713 2.2441 2.1329, 1.1713 1.8504 2.1329, 1.2732 2.2441 2.2111, 1.2732 1.8504 2.2111, 1.3514 2.2441 2.313, 1.3514 1.8504 2.313, 1.4006 2.2441 2.4317, 1.4006 1.8504 2.4317, 1.4173 2.2441 2.5591, 1.4173 1.8504 2.5591, 1.4006 2.2441 2.6864, 1.4006 1.8504 2.6864, 1.3514 2.2441 2.8051, 1.3514 1.8504 2.8051, 1.2732 2.2441 2.907, 1.2732 1.8504 2.907, 1.1713 2.2441 2.9853, 1.1713 1.8504 2.9853, 1.0526 2.2441 3.0344, 1.0526 1.8504 3.0344, 0.9252 2.2441 3.0512, 0.9252 2.2441 2.9528, 1.0271 2.2441 2.9393, 1.1221 2.2441 2.9, 1.2036 2.2441 2.8374, 1.2662 2.2441 2.7559, 1.3055 2.2441 2.661, 1.3189 2.2441 2.5591, 1.3055 2.2441 2.4572, 1.2662 2.2441 2.3622, 1.2036 2.2441 2.2807, 1.1221 2.2441 2.2181, 1.0271 2.2441 2.1788, 0.9252 2.2441 2.1654, 0.8233 2.2441 2.1788, 0.7283 2.2441 2.2181, 0.6468 2.2441 2.2807, 0.5842 2.2441 2.3622, 0.5449 2.2441 2.4572, 0.5315 2.2441 2.5591, 0.5449 2.2441 2.661, 0.5842 2.2441 2.7559, 0.6468 2.2441 2.8374, 0.7283 2.2441 2.9, 0.8233 2.2441 2.9393, 1.0666 3.8189 2.2776, 0.9978 3.8189 2.2526, 0.9252 3.8189 2.5591, 0.9252 3.8189 2.2441, 0.8526 3.8189 2.2526, 1.2144 3.8189 2.4343, 1.1778 3.8189 2.371, 1.1277 3.8189 2.3178, 1.2269 3.8189 2.6494, 1.2396 3.8189 2.5774, 1.2354 3.8189 2.5044, 1.0983 3.8189 2.8222, 1.1543 3.8189 2.7752, 1.198 3.8189 2.7165, 0.8886 3.8189 2.8719, 0.9618 3.8189 2.8719, 1.0329 3.8189 2.855, 0.6961 3.8189 2.7752, 0.7521 3.8189 2.8222, 0.8175 3.8189 2.855, 0.6108 3.8189 2.5774, 0.6235 3.8189 2.6494, 0.6524 3.8189 2.7165, 0.6726 3.8189 2.371, 0.636 3.8189 2.4343, 0.615 3.8189 2.5044, 0.7838 3.8189 2.2776, 0.7227 3.8189 2.3178, 0.8237 3.7402 2.1799, 0.7485 3.7402 2.2072, 0.7497 3.7605 2.2096, 0.7294 3.7402 2.2198, 0.6721 3.7402 2.2575, 0.6739 3.7605 2.2595, 0.5335 3.7402 2.5592, 0.5322 3.7402 2.5819, 0.5348 3.7605 2.5818, 0.5461 3.7402 2.6608, 0.548 3.7402 2.672, 0.5506 3.7605 2.6712, 0.6476 3.7402 2.8366, 0.7089 3.7402 2.888, 0.7103 3.7605 2.8857, 0.7292 3.7402 2.8982, 0.7905 3.7402 2.929, 0.7915 3.7605 2.9265, 1.1212 3.7402 2.8982, 1.1415 3.7402 2.888, 1.1401 3.7605 2.8857, 1.2028 3.7402 2.8366, 1.2116 3.7402 2.8292, 1.2096 3.7605 2.8274, 1.3043 3.7402 2.6608, 1.3182 3.7402 2.5819, 1.3156 3.7605 2.5818, 1.3169 3.7402 2.5592, 1.3129 3.7402 2.4907, 1.3103 3.7605 2.4912, 1.121 3.7402 2.2198, 1.1019 3.7402 2.2072, 1.1007 3.7605 2.2096, 1.0267 3.7402 2.1799, 1.016 3.7402 2.176, 1.0154 3.7605 2.1786, 1.1408 3.8162 2.3022, 1.1942 3.8162 2.3588, 1.153 3.8083 2.2876, 1.2094 3.8083 2.3475, 1.1634 3.7958 2.2751, 1.2225 3.7958 2.3377, 1.1715 3.7795 2.2655, 1.0399 3.8162 2.8742, 0.9641 3.8162 2.8921, 1.0464 3.8083 2.892, 0.9663 3.8083 2.911, 1.052 3.7958 2.9073, 0.9682 3.7958 2.9272, 1.0562 3.7795 2.9191, 0.595 3.8162 2.5008, 0.6173 3.8162 2.4262, 0.5763 3.8083 2.4975, 0.5998 3.8083 2.4187, 0.5602 3.7958 2.4947, 0.5849 3.7958 2.4123, 0.5479 3.7795 2.4925, 1.0757 3.8162 2.2594, 1.0842 3.8083 2.2424, 1.0915 3.7958 2.2278, 1.0972 3.7795 2.2167, 1.1095 3.8162 2.8392, 1.1199 3.8083 2.8551, 1.1289 3.7958 2.8687, 1.1357 3.7795 2.8792, 0.5904 3.8162 2.5786, 0.5715 3.8083 2.5797, 0.5552 3.7958 2.5806, 0.5427 3.7795 2.5813, 1.2325 3.7795 2.3303, 1.2388 3.7605 2.3256, 1.1765 3.7605 2.2595, 0.9697 3.7795 2.9396, 0.9706 3.7605 2.9474, 1.0589 3.7605 2.9265, 0.5734 3.7795 2.4073, 0.5662 3.7605 2.4042, 0.5401 3.7605 2.4912, 0.9252 3.8162 2.2237, 1.0025 3.8162 2.2328, 0.9252 3.8083 2.2047, 1.0069 3.8083 2.2143, 0.9252 3.7958 2.1884, 1.0107 3.7958 2.1984, 0.9252 3.7795 2.1759, 1.0136 3.7795 2.1862, 0.9252 3.7605 2.168, 0.9252 3.7402 2.1654, 1.1783 3.7402 2.2575, 1.3031 3.7402 2.4579, 1.2867 3.7402 2.4031, 1.2842 3.7605 2.4042, 1.277 3.7795 2.4073, 1.2655 3.7958 2.4123, 1.2506 3.8083 2.4187, 1.2331 3.8162 2.4262, 1.2638 3.7402 2.3635, 1.241 3.7402 2.324, 1.2018 3.7402 2.2824, 1.3025 3.7795 2.4925, 1.2902 3.7958 2.4947, 1.2741 3.8083 2.4975, 1.2554 3.8162 2.5008, 1.3077 3.7795 2.5813, 1.2952 3.7958 2.5806, 1.2789 3.8083 2.5797, 1.26 3.8162 2.5786, 1.3024 3.7402 2.672, 1.2998 3.7605 2.6712, 1.2923 3.7795 2.6689, 1.2803 3.7958 2.6654, 1.2646 3.8083 2.6607, 1.2465 3.8162 2.6552, 1.2156 3.8162 2.7267, 1.2321 3.8083 2.7362, 1.2462 3.7958 2.7444, 1.257 3.7795 2.7506, 1.2638 3.7605 2.7546, 1.2662 3.7402 2.7559, 1.1691 3.8162 2.7892, 1.1829 3.8083 2.8022, 1.1948 3.7958 2.8134, 1.2039 3.7795 2.822, 1.0599 3.7402 2.929, 0.8239 3.7402 2.9369, 0.8795 3.7402 2.9501, 0.8798 3.7605 2.9474, 0.8807 3.7795 2.9396, 0.8822 3.7958 2.9272, 0.8841 3.8083 2.911, 0.8863 3.8162 2.8921, 0.9252 3.7402 2.9501, 0.9709 3.7402 2.9501, 1.0265 3.7402 2.9369, 0.7942 3.7795 2.9191, 0.7984 3.7958 2.9073, 0.804 3.8083 2.892, 0.8105 3.8162 2.8742, 0.7147 3.7795 2.8792, 0.7215 3.7958 2.8687, 0.7305 3.8083 2.8551, 0.7409 3.8162 2.8392, 0.6388 3.7402 2.8292, 0.6408 3.7605 2.8274, 0.6465 3.7795 2.822, 0.6556 3.7958 2.8134, 0.6675 3.8083 2.8022, 0.6813 3.8162 2.7892, 0.6348 3.8162 2.7267, 0.6183 3.8083 2.7362, 0.6042 3.7958 2.7444, 0.5934 3.7795 2.7506, 0.5866 3.7605 2.7546, 0.5842 3.7402 2.7559, 0.6039 3.8162 2.6552, 0.5858 3.8083 2.6607, 0.5701 3.7958 2.6654, 0.5581 3.7795 2.6689, 0.5375 3.7402 2.4907, 0.6486 3.7402 2.2824, 0.6094 3.7402 2.324, 0.6116 3.7605 2.3256, 0.6179 3.7795 2.3303, 0.6279 3.7958 2.3377, 0.641 3.8083 2.3475, 0.6562 3.8162 2.3588, 0.5866 3.7402 2.3635, 0.5637 3.7402 2.4031, 0.5473 3.7402 2.4579, 0.6789 3.7795 2.2655, 0.687 3.7958 2.2751, 0.6974 3.8083 2.2876, 0.7096 3.8162 2.3022, 0.7532 3.7795 2.2167, 0.7589 3.7958 2.2278, 0.7662 3.8083 2.2424, 0.7747 3.8162 2.2594, 0.8344 3.7402 2.176, 0.835 3.7605 2.1786, 0.8368 3.7795 2.1862, 0.8397 3.7958 2.1984, 0.8435 3.8083 2.2143, 0.8479 3.8162 2.2328
            ]
        }
        coordIndex [
            0,1,2,-1,2,1,3,-1,2,3,4,-1,4,3,5,-1,4,5,6,-1,6,5,7,-1,6,7,8,-1,8,7,9,-1,8,9,10,-1,10,9,11,-1,10,11,12,-1,12,11,13,-1,12,13,14,-1,14,13,15,-1,14,15,16,-1,16,15,17,-1,16,17,18,-1,18,17,19,-1,18,19,20,-1,20,19,21,-1,20,21,22,-1,22,21,23,-1,22,23,24,-1,24,23,25,-1,24,25,26,-1,26,25,27,-1,26,27,28,-1,28,27,29,-1,28,29,30,-1,30,29,31,-1,30,31,32,-1,32,31,33,-1,32,33,34,-1,34,33,35,-1,34,35,36,-1,36,35,37,-1,36,37,38,-1,38,37,39,-1,38,39,40,-1,40,39,41,-1,40,41,42,-1,42,41,43,-1,42,43,44,-1,44,43,45,-1,44,45,46,-1,46,45,47,-1,46,47,0,-1,0,47,1,-1,48,47,49,-1,49,47,45,-1,49,45,50,-1,50,45,43,-1,50,43,51,-1,51,43,41,-1,51,41,52,-1,52,41,39,-1,52,39,53,-1,53,39,37,-1,53,37,54,-1,54,37,35,-1,54,35,55,-1,55,35,33,-1,55,33,56,-1,56,33,31,-1,56,31,57,-1,57,31,29,-1,57,29,58,-1,58,29,27,-1,58,27,59,-1,59,27,25,-1,59,25,60,-1,60,25,23,-1,60,23,61,-1,61,23,21,-1,61,21,62,-1,62,21,19,-1,62,19,63,-1,63,19,17,-1,63,17,64,-1,64,17,15,-1,64,15,65,-1,65,15,13,-1,65,13,66,-1,66,13,11,-1,66,11,67,-1,67,11,9,-1,67,9,68,-1,68,9,7,-1,68,7,69,-1,69,7,5,-1,69,5,70,-1,70,5,3,-1,70,3,71,-1,71,3,1,-1,71,1,48,-1,48,1,47,-1,72,73,74,-1,74,73,75,-1,74,75,76,-1,77,78,74,-1,74,78,79,-1,74,79,72,-1,80,81,74,-1,74,81,82,-1,74,82,77,-1,83,84,74,-1,74,84,85,-1,74,85,80,-1,86,87,74,-1,74,87,88,-1,74,88,83,-1,89,90,74,-1,74,90,91,-1,74,91,86,-1,92,93,74,-1,74,93,94,-1,74,94,89,-1,95,96,74,-1,74,96,97,-1,74,97,92,-1,76,98,74,-1,74,98,99,-1,74,99,95,-1,100,101,102,-1,103,104,105,-1,106,107,108,-1,109,110,111,-1,112,113,114,-1,115,116,117,-1,118,119,120,-1,121,122,123,-1,124,125,126,-1,127,128,129,-1,130,131,132,-1,133,134,135,-1,79,78,136,-1,136,78,137,-1,136,137,138,-1,138,137,139,-1,138,139,140,-1,140,139,141,-1,140,141,142,-1,88,87,143,-1,143,87,144,-1,143,144,145,-1,145,144,146,-1,145,146,147,-1,147,146,148,-1,147,148,149,-1,97,96,150,-1,150,96,151,-1,150,151,152,-1,152,151,153,-1,152,153,154,-1,154,153,155,-1,154,155,156,-1,72,79,157,-1,157,79,136,-1,157,136,158,-1,158,136,138,-1,158,138,159,-1,159,138,140,-1,159,140,160,-1,160,140,142,-1,160,142,132,-1,83,88,161,-1,161,88,143,-1,161,143,162,-1,162,143,145,-1,162,145,163,-1,163,145,147,-1,163,147,164,-1,164,147,149,-1,164,149,120,-1,92,97,165,-1,165,97,150,-1,165,150,166,-1,166,150,152,-1,166,152,167,-1,167,152,154,-1,167,154,168,-1,168,154,156,-1,168,156,108,-1,169,170,171,-1,172,173,174,-1,175,176,177,-1,75,73,178,-1,178,73,179,-1,178,179,180,-1,180,179,181,-1,180,181,182,-1,182,181,183,-1,182,183,184,-1,184,183,185,-1,184,185,186,-1,186,185,135,-1,186,135,187,-1,187,135,134,-1,131,133,132,-1,132,133,135,-1,132,135,160,-1,160,135,185,-1,160,185,159,-1,159,185,183,-1,159,183,158,-1,158,183,181,-1,158,181,157,-1,157,181,179,-1,157,179,72,-1,72,179,73,-1,141,169,142,-1,142,169,171,-1,142,171,132,-1,132,171,188,-1,132,188,130,-1,189,190,191,-1,191,190,170,-1,191,170,192,-1,192,170,169,-1,192,169,193,-1,193,169,141,-1,193,141,194,-1,194,141,139,-1,194,139,195,-1,195,139,137,-1,195,137,77,-1,77,137,78,-1,190,196,170,-1,170,196,197,-1,170,197,171,-1,171,197,198,-1,171,198,188,-1,128,189,129,-1,129,189,191,-1,129,191,199,-1,199,191,192,-1,199,192,200,-1,200,192,193,-1,200,193,201,-1,201,193,194,-1,201,194,202,-1,202,194,195,-1,202,195,82,-1,82,195,77,-1,125,127,126,-1,126,127,129,-1,126,129,203,-1,203,129,199,-1,203,199,204,-1,204,199,200,-1,204,200,205,-1,205,200,201,-1,205,201,206,-1,206,201,202,-1,206,202,81,-1,81,202,82,-1,207,124,208,-1,208,124,126,-1,208,126,209,-1,209,126,203,-1,209,203,210,-1,210,203,204,-1,210,204,211,-1,211,204,205,-1,211,205,212,-1,212,205,206,-1,212,206,80,-1,80,206,81,-1,80,85,212,-1,212,85,213,-1,212,213,211,-1,211,213,214,-1,211,214,210,-1,210,214,215,-1,210,215,209,-1,209,215,216,-1,209,216,208,-1,208,216,217,-1,208,217,207,-1,207,217,218,-1,85,84,213,-1,213,84,219,-1,213,219,214,-1,214,219,220,-1,214,220,215,-1,215,220,221,-1,215,221,216,-1,216,221,222,-1,216,222,217,-1,217,222,123,-1,217,123,218,-1,218,123,122,-1,119,121,120,-1,120,121,123,-1,120,123,164,-1,164,123,222,-1,164,222,163,-1,163,222,221,-1,163,221,162,-1,162,221,220,-1,162,220,161,-1,161,220,219,-1,161,219,83,-1,83,219,84,-1,148,172,149,-1,149,172,174,-1,149,174,120,-1,120,174,223,-1,120,223,118,-1,224,225,226,-1,226,225,173,-1,226,173,227,-1,227,173,172,-1,227,172,228,-1,228,172,148,-1,228,148,229,-1,229,148,146,-1,229,146,230,-1,230,146,144,-1,230,144,86,-1,86,144,87,-1,225,231,173,-1,173,231,232,-1,173,232,174,-1,174,232,233,-1,174,233,223,-1,116,224,117,-1,117,224,226,-1,117,226,234,-1,234,226,227,-1,234,227,235,-1,235,227,228,-1,235,228,236,-1,236,228,229,-1,236,229,237,-1,237,229,230,-1,237,230,91,-1,91,230,86,-1,113,115,114,-1,114,115,117,-1,114,117,238,-1,238,117,234,-1,238,234,239,-1,239,234,235,-1,239,235,240,-1,240,235,236,-1,240,236,241,-1,241,236,237,-1,241,237,90,-1,90,237,91,-1,242,112,243,-1,243,112,114,-1,243,114,244,-1,244,114,238,-1,244,238,245,-1,245,238,239,-1,245,239,246,-1,246,239,240,-1,246,240,247,-1,247,240,241,-1,247,241,89,-1,89,241,90,-1,89,94,247,-1,247,94,248,-1,247,248,246,-1,246,248,249,-1,246,249,245,-1,245,249,250,-1,245,250,244,-1,244,250,251,-1,244,251,243,-1,243,251,252,-1,243,252,242,-1,242,252,253,-1,94,93,248,-1,248,93,254,-1,248,254,249,-1,249,254,255,-1,249,255,250,-1,250,255,256,-1,250,256,251,-1,251,256,257,-1,251,257,252,-1,252,257,111,-1,252,111,253,-1,253,111,110,-1,107,109,108,-1,108,109,111,-1,108,111,168,-1,168,111,257,-1,168,257,167,-1,167,257,256,-1,167,256,166,-1,166,256,255,-1,166,255,165,-1,165,255,254,-1,165,254,92,-1,92,254,93,-1,155,175,156,-1,156,175,177,-1,156,177,108,-1,108,177,258,-1,108,258,106,-1,259,260,261,-1,261,260,176,-1,261,176,262,-1,262,176,175,-1,262,175,263,-1,263,175,155,-1,263,155,264,-1,264,155,153,-1,264,153,265,-1,265,153,151,-1,265,151,95,-1,95,151,96,-1,260,266,176,-1,176,266,267,-1,176,267,177,-1,177,267,268,-1,177,268,258,-1,104,259,105,-1,105,259,261,-1,105,261,269,-1,269,261,262,-1,269,262,270,-1,270,262,263,-1,270,263,271,-1,271,263,264,-1,271,264,272,-1,272,264,265,-1,272,265,99,-1,99,265,95,-1,101,103,102,-1,102,103,105,-1,102,105,273,-1,273,105,269,-1,273,269,274,-1,274,269,270,-1,274,270,275,-1,275,270,271,-1,275,271,276,-1,276,271,272,-1,276,272,98,-1,98,272,99,-1,277,100,278,-1,278,100,102,-1,278,102,279,-1,279,102,273,-1,279,273,280,-1,280,273,274,-1,280,274,281,-1,281,274,275,-1,281,275,282,-1,282,275,276,-1,282,276,76,-1,76,276,98,-1,76,75,282,-1,282,75,178,-1,282,178,281,-1,281,178,180,-1,281,180,280,-1,280,180,182,-1,280,182,279,-1,279,182,184,-1,279,184,278,-1,278,184,186,-1,278,186,277,-1,277,186,187,-1,232,48,49,-1,50,223,49,-1,49,223,233,-1,49,233,232,-1,51,119,50,-1,50,119,118,-1,50,118,223,-1,52,122,51,-1,51,122,121,-1,51,121,119,-1,53,207,52,-1,52,207,218,-1,52,218,122,-1,54,125,53,-1,53,125,124,-1,53,124,207,-1,55,128,54,-1,54,128,127,-1,54,127,125,-1,56,190,55,-1,55,190,189,-1,55,189,128,-1,57,197,56,-1,56,197,196,-1,56,196,190,-1,58,188,57,-1,57,188,198,-1,57,198,197,-1,59,131,58,-1,58,131,130,-1,58,130,188,-1,60,134,59,-1,59,134,133,-1,59,133,131,-1,61,277,60,-1,60,277,187,-1,60,187,134,-1,62,101,61,-1,61,101,100,-1,61,100,277,-1,63,104,62,-1,62,104,103,-1,62,103,101,-1,64,260,63,-1,63,260,259,-1,63,259,104,-1,65,267,64,-1,64,267,266,-1,64,266,260,-1,66,258,65,-1,65,258,268,-1,65,268,267,-1,67,107,66,-1,66,107,106,-1,66,106,258,-1,68,110,67,-1,67,110,109,-1,67,109,107,-1,69,242,68,-1,68,242,253,-1,68,253,110,-1,70,113,69,-1,69,113,112,-1,69,112,242,-1,71,116,70,-1,70,116,115,-1,70,115,113,-1,232,231,48,-1,48,231,225,-1,48,225,71,-1,71,225,224,-1,71,224,116,-1,
        ]
    }
}
Shape{
    appearance Appearance {
        material  Material 	{
            diffuseColor 0.2235294117647059 0.2235294117647059 0.2235294117647059
            specularColor 0.06666666666666667 0.06666666666666667 0.06666666666666667
            ambientIntensity 0.2235
            transparency 0.0
            shininess 0.5
        }
    }
    geometry IndexedFaceSet {
        ccw TRUE
        solid FALSE
        coord DEF co Coordinate {
            point [
                -0.8465 3.8583 3.7402, -0.2362 3.8583 3.7402, -0.8465 3.8583 4.2913, -0.2362 3.8583 4.1339, -0.8451 3.8583 4.3015, 1.9095 3.8583 4.1339, 1.9095 3.8583 3.7402, 2.6969 3.8583 3.7402, 2.6677 3.8583 4.3294, 2.6575 3.8583 4.3307, -0.8071 3.8583 4.3307, -0.8173 3.8583 4.3294, -0.8268 3.8583 4.3254, -0.8349 3.8583 4.3192, -0.8412 3.8583 4.311, 2.6969 3.8583 4.2913, 2.6955 3.8583 4.3015, 2.6916 3.8583 4.311, 2.6853 3.8583 4.3192, 2.6772 3.8583 4.3254, 2.6677 3.1496 4.3294, 2.6772 3.1496 4.3254, 1.9095 3.1496 4.1339, 2.6969 3.1496 3.7402, 1.9095 3.1496 3.7402, 2.6969 3.1496 4.2913, 2.6955 3.1496 4.3015, -0.2362 3.1496 3.7402, -0.8465 3.1496 3.7402, -0.2362 3.1496 4.1339, -0.8465 3.1496 4.2913, -0.8451 3.1496 4.3015, 2.6853 3.1496 4.3192, 2.6916 3.1496 4.311, -0.8412 3.1496 4.311, -0.8349 3.1496 4.3192, -0.8268 3.1496 4.3254, -0.8173 3.1496 4.3294, -0.8071 3.1496 4.3307, 2.6575 3.1496 4.3307
            ]
        }
        coordIndex [
            0,1,2,-1,2,1,3,-1,2,3,4,-1,5,6,7,-1,8,9,5,-1,5,9,10,-1,5,10,3,-1,3,10,11,-1,3,11,12,-1,12,13,3,-1,3,13,14,-1,3,14,4,-1,7,15,5,-1,5,15,16,-1,5,16,17,-1,17,18,5,-1,5,18,19,-1,5,19,8,-1,20,21,22,-1,23,24,25,-1,25,24,22,-1,25,22,26,-1,27,28,29,-1,29,28,30,-1,29,30,31,-1,21,32,22,-1,22,32,33,-1,22,33,26,-1,31,34,29,-1,29,34,35,-1,29,35,36,-1,36,37,29,-1,29,37,38,-1,29,38,22,-1,22,38,39,-1,22,39,20,-1,3,29,5,-1,5,29,22,-1,1,0,27,-1,27,0,28,-1,1,27,3,-1,3,27,29,-1,6,24,7,-1,7,24,23,-1,24,6,22,-1,22,6,5,-1,
        ]
    }
}
Shape{
    appearance Appearance {
        material  Material 	{
            diffuseColor 0.6666666666666666 0.6980392156862745 0.7686274509803922
            specularColor 0.3333333333333333 0.34901960784313724 0.3843137254901961
            ambientIntensity 0.6967
            transparency 0.0
            shininess 0.5
        }
    }
    geometry IndexedFaceSet {
        ccw TRUE
        solid FALSE
        coord DEF co Coordinate {
            point [
                -0.8071 0.3937 1.3018, -0.8071 -0.3937 1.3018, -0.8071 0.3937 0.1604, -0.8071 -0.3937 0.1604, -0.8071 0.1968 0.0, -0.8071 -0.1969 0.0, -0.8071 0.1968 -1.1811, -0.8071 -0.1969 -1.1811, -0.8071 -0.1901 -1.232, -0.8071 -0.1705 -1.2795, -0.8071 -0.1392 -1.3203, -0.8071 0.0984 -1.3516, -0.8071 0.1392 -1.3203, -0.8071 0.1705 -1.2795, -0.8071 -0.0984 -1.3516, -0.8071 -0.051 -1.3712, -0.8071 -0.0 -1.378, -0.8071 0.0509 -1.3712, -0.8071 0.1901 -1.232, -0.9252 -0.3937 1.3018, -0.9252 0.3937 1.3018, -0.9252 -0.3937 0.1604, -0.9252 0.3937 0.1604, -0.9252 -0.1969 0.0, -0.9252 0.1968 0.0, -0.9252 -0.1969 -1.1811, -0.9252 0.1968 -1.1811, -0.9252 0.1705 -1.2795, -0.9252 0.1392 -1.3203, -0.9252 0.0984 -1.3516, -0.9252 0.1901 -1.232, -0.9252 -0.0 -1.378, -0.9252 -0.051 -1.3712, -0.9252 -0.0984 -1.3516, -0.9252 -0.1392 -1.3203, -0.9252 0.0509 -1.3712, -0.9252 -0.1705 -1.2795, -0.9252 -0.1901 -1.232, -0.9212 -0.3937 1.3324, -0.9212 0.3937 1.3324, -0.9094 -0.3937 1.3609, -0.9094 0.3937 1.3609, -0.8906 -0.3937 1.3853, -0.8906 0.3937 1.3853, -0.8661 -0.3937 1.4041, -0.8661 0.3937 1.4041, -0.8377 -0.3937 1.4159, -0.8377 0.3937 1.4159, -0.8071 -0.3937 1.4199, -0.8071 0.3937 1.4199, -0.5803 0.3937 1.4199, -0.5803 -0.3937 1.4199, -0.5803 0.3937 1.3018, -0.5803 -0.3937 1.3018, 1.1221 -1.2402 0.0787, 1.1221 -1.2402 -1.189, 1.1221 -1.122 0.0787, 1.1221 -1.122 -1.189, 1.378 -1.2402 0.0787, 1.378 -1.122 0.0787, 1.4085 -1.122 0.0828, 1.4085 -1.2402 0.0828, 1.437 -1.122 0.0946, 1.437 -1.2402 0.0946, 1.4615 -1.122 0.1133, 1.4615 -1.2402 0.1133, 1.4802 -1.122 0.1378, 1.4802 -1.2402 0.1378, 1.492 -1.122 0.1663, 1.492 -1.2402 0.1663, 1.4961 -1.122 0.1969, 1.4961 -1.2402 0.1969, 1.4961 -1.2402 2.1286, 1.4961 -1.122 2.1286, 1.492 -1.122 2.1592, 1.492 -1.2402 2.1592, 1.4802 -1.122 2.1877, 1.4802 -1.2402 2.1877, 1.4615 -1.122 2.2122, 1.4615 -1.2402 2.2122, 1.437 -1.122 2.2309, 1.437 -1.2402 2.2309, 1.4085 -1.122 2.2427, 1.4085 -1.2402 2.2427, 1.378 -1.122 2.2468, 1.378 -1.2402 2.2468, 0.4724 -1.2402 2.2468, 0.4724 -1.122 2.2468, 0.4419 -1.122 2.2427, 0.4419 -1.2402 2.2427, 0.4134 -1.122 2.2309, 0.4134 -1.2402 2.2309, 0.3889 -1.122 2.2122, 0.3889 -1.2402 2.2122, 0.3702 -1.122 2.1877, 0.3702 -1.2402 2.1877, 0.3584 -1.122 2.1592, 0.3584 -1.2402 2.1592, 0.3543 -1.122 2.1286, 0.3543 -1.2402 2.1286, 0.3543 -1.2402 0.1969, 0.3543 -1.122 0.1969, 0.3584 -1.122 0.1663, 0.3584 -1.2402 0.1663, 0.3702 -1.122 0.1378, 0.3702 -1.2402 0.1378, 0.3889 -1.122 0.1133, 0.3889 -1.2402 0.1133, 0.4134 -1.122 0.0946, 0.4134 -1.2402 0.0946, 0.4419 -1.122 0.0828, 0.4419 -1.2402 0.0828, 0.4724 -1.122 0.0787, 0.4724 -1.2402 0.0787, 0.7283 -1.2402 0.0787, 0.7283 -1.122 0.0787, 0.7283 -1.2402 -1.189, 0.7283 -1.122 -1.189, 0.7348 -1.122 -1.2379, 0.7348 -1.2402 -1.2379, 0.7537 -1.122 -1.2835, 0.7537 -1.2402 -1.2835, 0.7837 -1.122 -1.3226, 0.7837 -1.2402 -1.3226, 0.8228 -1.122 -1.3526, 0.8228 -1.2402 -1.3526, 0.8684 -1.122 -1.3715, 0.8684 -1.2402 -1.3715, 0.9173 -1.122 -1.378, 0.9173 -1.2402 -1.378, 0.9331 -1.2402 -1.378, 0.9331 -1.122 -1.378, 0.982 -1.122 -1.3715, 0.982 -1.2402 -1.3715, 1.0276 -1.122 -1.3526, 1.0276 -1.2402 -1.3526, 1.0667 -1.122 -1.3226, 1.0667 -1.2402 -1.3226, 1.0967 -1.122 -1.2835, 1.0967 -1.2402 -1.2835, 1.1156 -1.122 -1.2379, 1.1156 -1.2402 -1.2379, 1.2062 -1.2402 2.0352, 0.8668 -1.2402 1.5191, 0.792 -1.2402 1.5415, 0.7243 -1.2402 2.1202, 0.792 -1.2402 2.1593, 0.8668 -1.2402 2.1817, 0.9448 -1.2402 2.1862, 1.0217 -1.2402 2.1726, 0.9252 -1.2402 1.514, 0.6675 -1.2402 2.0666, 1.2413 -1.2402 1.9654, 1.2593 -1.2402 1.8894, 1.2593 -1.2402 1.8113, 1.2413 -1.2402 1.7354, 1.2062 -1.2402 1.6656, 0.7243 -1.2402 1.5806, 0.6675 -1.2402 1.6342, 0.6246 -1.2402 1.6994, 0.5979 -1.2402 1.7728, 0.5888 -1.2402 1.8504, 1.0934 -1.2402 2.1417, 1.156 -1.2402 2.0951, 1.0217 -1.2402 1.5282, 0.9448 -1.2402 1.5146, 0.6246 -1.2402 2.0014, 0.5979 -1.2402 1.928, 1.156 -1.2402 1.6057, 1.0934 -1.2402 1.5591, 1.1191 -1.3583 1.6736, 1.1596 -1.3583 1.668, 1.1483 -1.3583 1.7123, 1.1864 -1.3583 1.709, 1.1699 -1.3583 1.7556, 1.2061 -1.3583 1.754, 1.1831 -1.3583 1.8022, 1.2181 -1.3583 1.8015, 1.1876 -1.3583 1.8504, 1.2222 -1.3583 1.8504, 1.1831 -1.3583 1.8986, 1.2181 -1.3583 1.8993, 1.1699 -1.3583 1.9452, 1.2061 -1.3583 1.9468, 1.1483 -1.3583 1.9885, 1.1864 -1.3583 1.9918, 1.1191 -1.3583 2.0272, 1.1596 -1.3583 2.0328, 1.1264 -1.3583 2.0689, 1.0833 -1.3583 2.0598, 1.0876 -1.3583 2.099, 1.0421 -1.3583 2.0853, 1.0445 -1.3583 2.1224, 0.997 -1.3583 2.1028, 0.9981 -1.3583 2.1383, 0.9494 -1.3583 2.1116, 0.9497 -1.3583 2.1464, 0.901 -1.3583 2.1116, 0.9007 -1.3583 2.1464, 0.8534 -1.3583 2.1028, 0.8523 -1.3583 2.1383, 0.8083 -1.3583 2.0853, 0.8059 -1.3583 2.1224, 0.7671 -1.3583 2.0598, 0.7628 -1.3583 2.099, 0.7313 -1.3583 2.0272, 0.724 -1.3583 2.0689, 0.6908 -1.3583 2.0328, 0.7021 -1.3583 1.9885, 0.664 -1.3583 1.9918, 0.6805 -1.3583 1.9452, 0.6443 -1.3583 1.9468, 0.6673 -1.3583 1.8986, 0.6323 -1.3583 1.8993, 0.6628 -1.3583 1.8504, 0.6282 -1.3583 1.8504, 0.6673 -1.3583 1.8022, 0.6323 -1.3583 1.8015, 0.6805 -1.3583 1.7556, 0.6443 -1.3583 1.754, 0.7021 -1.3583 1.7123, 0.664 -1.3583 1.709, 0.7313 -1.3583 1.6736, 0.6908 -1.3583 1.668, 0.724 -1.3583 1.6319, 0.7671 -1.3583 1.641, 0.7628 -1.3583 1.6018, 0.8083 -1.3583 1.6155, 0.8059 -1.3583 1.5784, 0.8534 -1.3583 1.598, 0.8523 -1.3583 1.5625, 0.901 -1.3583 1.5891, 0.9007 -1.3583 1.5544, 0.9494 -1.3583 1.5891, 0.9497 -1.3583 1.5544, 0.997 -1.3583 1.598, 0.9981 -1.3583 1.5625, 1.0421 -1.3583 1.6155, 1.0445 -1.3583 1.5784, 1.0833 -1.3583 1.641, 1.0876 -1.3583 1.6018, 1.1264 -1.3583 1.6319, 0.5934 -1.3189 1.795, 0.6071 -1.3189 1.7412, 0.599 -1.3189 1.7731, 0.6681 -1.3189 1.6347, 0.6598 -1.3189 1.6438, 0.6294 -1.3189 1.6903, 0.6252 -1.3189 1.6997, 0.6974 -1.3189 1.6029, 0.725 -1.3189 1.5814, 0.7412 -1.3189 1.5688, 0.7901 -1.3189 1.5424, 0.8426 -1.3189 1.5243, 0.792 -1.3189 1.5417, 1.0214 -1.3189 1.529, 1.0078 -1.3189 1.5243, 0.953 -1.3189 1.5152, 0.9448 -1.3189 1.5152, 0.8974 -1.3189 1.5152, 0.867 -1.3189 1.5203, 1.0603 -1.3189 1.5424, 1.0929 -1.3189 1.56, 1.1092 -1.3189 1.5688, 1.153 -1.3189 1.6029, 1.1906 -1.3189 1.6438, 1.1558 -1.3189 1.6059, 1.221 -1.3189 1.6903, 1.2053 -1.3189 1.6662, 1.2583 -1.3189 1.8114, 1.257 -1.3189 1.795, 1.2433 -1.3189 1.7412, 1.2409 -1.3189 1.7355, 1.2616 -1.3189 1.8504, 1.2583 -1.3189 1.8894, 1.257 -1.3189 1.9058, 1.2433 -1.3189 1.9596, 1.221 -1.3189 2.0105, 1.2409 -1.3189 1.9653, 1.153 -1.3189 2.0979, 1.1558 -1.3189 2.0948, 1.1906 -1.3189 2.057, 1.2053 -1.3189 2.0346, 1.1092 -1.3189 2.132, 1.0929 -1.3189 2.1408, 1.0603 -1.3189 2.1584, 1.0214 -1.3189 2.1718, 0.953 -1.3189 2.1856, 1.0078 -1.3189 2.1765, 0.8974 -1.3189 2.1856, 0.9448 -1.3189 2.1856, 0.7901 -1.3189 2.1584, 0.792 -1.3189 2.1591, 0.8426 -1.3189 2.1765, 0.867 -1.3189 2.1805, 0.7412 -1.3189 2.132, 0.725 -1.3189 2.1194, 0.6974 -1.3189 2.0979, 0.6681 -1.3189 2.0661, 0.6598 -1.3189 2.057, 0.6294 -1.3189 2.0105, 0.6071 -1.3189 1.9596, 0.6252 -1.3189 2.0011, 0.5888 -1.3189 1.8504, 0.5934 -1.3189 1.9058, 0.599 -1.3189 1.9277, 0.7022 -1.2402 1.8504, 0.7098 -1.2402 1.9081, 0.706 -1.3189 1.8914, 0.7321 -1.2402 1.9619, 0.7173 -1.3189 1.931, 0.7107 -1.3189 1.9079, 0.768 -1.3189 2.0076, 0.7604 -1.3189 2.0006, 0.7675 -1.2402 2.0081, 0.7356 -1.3189 1.9678, 0.7325 -1.3189 1.9617, 0.7908 -1.3189 2.0284, 0.8137 -1.2402 2.0435, 0.8141 -1.3189 2.0428, 0.8258 -1.3189 2.05, 0.8675 -1.2402 2.0658, 0.8642 -1.3189 2.0649, 0.9252 -1.2402 2.0734, 0.9046 -1.3189 2.0724, 0.8675 -1.3189 2.0655, 0.9829 -1.2402 2.0658, 0.9458 -1.3189 2.0724, 0.9252 -1.3189 2.0724, 1.0363 -1.3189 2.0428, 1.0246 -1.3189 2.05, 1.0367 -1.2402 2.0435, 0.9862 -1.3189 2.0649, 0.9829 -1.3189 2.0655, 1.0596 -1.3189 2.0284, 1.0829 -1.2402 2.0081, 1.0824 -1.3189 2.0076, 1.09 -1.3189 2.0006, 1.1183 -1.2402 1.9619, 1.1148 -1.3189 1.9678, 1.1406 -1.2402 1.9081, 1.1331 -1.3189 1.931, 1.1179 -1.3189 1.9617, 1.1482 -1.2402 1.8504, 1.1444 -1.3189 1.8914, 1.1397 -1.3189 1.9079, 1.1406 -1.2402 1.7927, 1.1444 -1.3189 1.8094, 1.1482 -1.3189 1.8504, 1.1148 -1.3189 1.733, 1.1179 -1.3189 1.7391, 1.1183 -1.2402 1.7389, 1.1331 -1.3189 1.7698, 1.1397 -1.3189 1.7929, 1.09 -1.3189 1.7002, 1.0829 -1.2402 1.6927, 1.0824 -1.3189 1.6932, 1.0596 -1.3189 1.6724, 1.0367 -1.2402 1.6573, 1.0363 -1.3189 1.658, 0.9829 -1.2402 1.635, 0.9862 -1.3189 1.6359, 1.0246 -1.3189 1.6508, 0.9252 -1.2402 1.6274, 0.9458 -1.3189 1.6283, 0.9829 -1.3189 1.6353, 0.8642 -1.3189 1.6359, 0.8675 -1.3189 1.6353, 0.8675 -1.2402 1.635, 0.9046 -1.3189 1.6283, 0.9252 -1.3189 1.6283, 0.8258 -1.3189 1.6508, 0.8137 -1.2402 1.6573, 0.8141 -1.3189 1.658, 0.7908 -1.3189 1.6724, 0.7675 -1.2402 1.6927, 0.768 -1.3189 1.6932, 0.7321 -1.2402 1.7389, 0.7356 -1.3189 1.733, 0.7604 -1.3189 1.7002, 0.7098 -1.2402 1.7927, 0.7173 -1.3189 1.7698, 0.7325 -1.3189 1.7391, 0.7022 -1.3189 1.8504, 0.706 -1.3189 1.8094, 0.7107 -1.3189 1.7929, 0.9252 -1.2402 1.8504, 1.025 -1.3277 1.6499, 1.0602 -1.3277 1.6717, 1.0907 -1.3277 1.6995, 1.1156 -1.3277 1.7325, 0.9865 -1.3277 1.635, 0.9459 -1.3277 1.6274, 0.9045 -1.3277 1.6274, 0.8639 -1.3277 1.635, 0.8254 -1.3277 1.6499, 0.7902 -1.3277 1.6717, 0.7597 -1.3277 1.6995, 0.7348 -1.3277 1.7325, 0.7163 -1.3277 1.7695, 0.705 -1.3277 1.8092, 0.7012 -1.3277 1.8504, 0.705 -1.3277 1.8916, 0.7163 -1.3277 1.9313, 0.7348 -1.3277 1.9683, 0.7597 -1.3277 2.0013, 0.7902 -1.3277 2.0291, 0.8254 -1.3277 2.0509, 0.8639 -1.3277 2.0658, 0.9045 -1.3277 2.0734, 0.9459 -1.3277 2.0734, 0.9865 -1.3277 2.0658, 1.025 -1.3277 2.0509, 1.0602 -1.3277 2.0291, 1.0907 -1.3277 2.0013, 1.1156 -1.3277 1.9683, 1.1341 -1.3277 1.9313, 1.1454 -1.3277 1.8916, 1.1492 -1.3277 1.8504, 1.1454 -1.3277 1.8092, 1.1341 -1.3277 1.7695, 1.1482 -1.336 1.8921, 1.1368 -1.336 1.9324, 1.1181 -1.336 1.9698, 1.0929 -1.336 2.0033, 1.0619 -1.336 2.0315, 1.0263 -1.336 2.0535, 0.9873 -1.336 2.0686, 0.9461 -1.336 2.0763, 0.9043 -1.336 2.0763, 0.8631 -1.336 2.0686, 0.8241 -1.336 2.0535, 0.7885 -1.336 2.0315, 0.7575 -1.336 2.0033, 0.7323 -1.336 1.9698, 0.7136 -1.336 1.9324, 0.7022 -1.336 1.8921, 0.6983 -1.336 1.8504, 0.7022 -1.336 1.8087, 0.7136 -1.336 1.7684, 0.7323 -1.336 1.7309, 0.7575 -1.336 1.6975, 0.7885 -1.336 1.6693, 0.8241 -1.336 1.6473, 0.8631 -1.336 1.6322, 0.9043 -1.336 1.6245, 0.9461 -1.336 1.6245, 0.9873 -1.336 1.6322, 1.0263 -1.336 1.6473, 1.0619 -1.336 1.6693, 1.0929 -1.336 1.6975, 1.1181 -1.336 1.7309, 1.1368 -1.336 1.7684, 1.1482 -1.336 1.8087, 1.1521 -1.336 1.8504, 1.1528 -1.3434 1.893, 1.1412 -1.3434 1.9341, 1.1221 -1.3434 1.9723, 1.0963 -1.3434 2.0064, 1.0648 -1.3434 2.0352, 1.0284 -1.3434 2.0577, 0.9886 -1.3434 2.0731, 0.9466 -1.3434 2.081, 0.9038 -1.3434 2.081, 0.8618 -1.3434 2.0731, 0.822 -1.3434 2.0577, 0.7856 -1.3434 2.0352, 0.7541 -1.3434 2.0064, 0.7283 -1.3434 1.9723, 0.7092 -1.3434 1.9341, 0.6976 -1.3434 1.893, 0.6936 -1.3434 1.8504, 0.6976 -1.3434 1.8078, 0.7092 -1.3434 1.7667, 0.7283 -1.3434 1.7285, 0.7541 -1.3434 1.6944, 0.7856 -1.3434 1.6656, 0.822 -1.3434 1.6431, 0.8618 -1.3434 1.6276, 0.9038 -1.3434 1.6198, 0.9466 -1.3434 1.6198, 0.9886 -1.3434 1.6276, 1.0284 -1.3434 1.6431, 1.0648 -1.3434 1.6656, 1.0963 -1.3434 1.6944, 1.1221 -1.3434 1.7285, 1.1412 -1.3434 1.7667, 1.1528 -1.3434 1.8078, 1.1568 -1.3434 1.8504, 1.159 -1.3497 1.8941, 1.147 -1.3497 1.9363, 1.1274 -1.3497 1.9756, 1.101 -1.3497 2.0106, 1.0685 -1.3497 2.0402, 1.0312 -1.3497 2.0633, 0.9903 -1.3497 2.0791, 0.9471 -1.3497 2.0872, 0.9033 -1.3497 2.0872, 0.8601 -1.3497 2.0791, 0.8192 -1.3497 2.0633, 0.7819 -1.3497 2.0402, 0.7494 -1.3497 2.0106, 0.723 -1.3497 1.9756, 0.7034 -1.3497 1.9363, 0.6914 -1.3497 1.8941, 0.6874 -1.3497 1.8504, 0.6914 -1.3497 1.8067, 0.7034 -1.3497 1.7645, 0.723 -1.3497 1.7252, 0.7494 -1.3497 1.6902, 0.7819 -1.3497 1.6606, 0.8192 -1.3497 1.6375, 0.8601 -1.3497 1.6217, 0.9033 -1.3497 1.6136, 0.9471 -1.3497 1.6136, 0.9903 -1.3497 1.6217, 1.0312 -1.3497 1.6375, 1.0685 -1.3497 1.6606, 1.101 -1.3497 1.6902, 1.1274 -1.3497 1.7252, 1.147 -1.3497 1.7645, 1.159 -1.3497 1.8067, 1.163 -1.3497 1.8504, 1.1663 -1.3544 1.8955, 1.1539 -1.3544 1.939, 1.1337 -1.3544 1.9795, 1.1065 -1.3544 2.0156, 1.073 -1.3544 2.0461, 1.0345 -1.3544 2.07, 0.9923 -1.3544 2.0863, 0.9478 -1.3544 2.0946, 0.9026 -1.3544 2.0946, 0.8581 -1.3544 2.0863, 0.8159 -1.3544 2.07, 0.7774 -1.3544 2.0461, 0.7439 -1.3544 2.0156, 0.7167 -1.3544 1.9795, 0.6965 -1.3544 1.939, 0.6841 -1.3544 1.8955, 0.6799 -1.3544 1.8504, 0.6841 -1.3544 1.8053, 0.6965 -1.3544 1.7618, 0.7167 -1.3544 1.7213, 0.7439 -1.3544 1.6851, 0.7774 -1.3544 1.6547, 0.8159 -1.3544 1.6308, 0.8581 -1.3544 1.6145, 0.9026 -1.3544 1.6062, 0.9478 -1.3544 1.6062, 0.9923 -1.3544 1.6145, 1.0345 -1.3544 1.6308, 1.073 -1.3544 1.6547, 1.1065 -1.3544 1.6851, 1.1337 -1.3544 1.7213, 1.1539 -1.3544 1.7618, 1.1663 -1.3544 1.8053, 1.1705 -1.3544 1.8504, 1.1745 -1.3573 1.897, 1.1617 -1.3573 1.942, 1.1408 -1.3573 1.9839, 1.1126 -1.3573 2.0213, 1.078 -1.3573 2.0528, 1.0382 -1.3573 2.0774, 0.9946 -1.3573 2.0943, 0.9486 -1.3573 2.1029, 0.9018 -1.3573 2.1029, 0.8558 -1.3573 2.0943, 0.8122 -1.3573 2.0774, 0.7724 -1.3573 2.0528, 0.7378 -1.3573 2.0213, 0.7096 -1.3573 1.9839, 0.6887 -1.3573 1.942, 0.6759 -1.3573 1.897, 0.6716 -1.3573 1.8504, 0.6759 -1.3573 1.8038, 0.6887 -1.3573 1.7588, 0.7096 -1.3573 1.7169, 0.7378 -1.3573 1.6795, 0.7724 -1.3573 1.648, 0.8122 -1.3573 1.6234, 0.8558 -1.3573 1.6065, 0.9018 -1.3573 1.5979, 0.9486 -1.3573 1.5979, 0.9946 -1.3573 1.6065, 1.0382 -1.3573 1.6234, 1.078 -1.3573 1.648, 1.1126 -1.3573 1.6795, 1.1408 -1.3573 1.7169, 1.1617 -1.3573 1.7588, 1.1745 -1.3573 1.8038, 1.1788 -1.3573 1.8504, 1.2557 -1.3291 1.9055, 1.2198 -1.3291 2.0099, 1.1521 -1.3291 2.0969, 1.0598 -1.3291 2.1572, 0.8975 -1.3291 2.1843, 0.7906 -1.3291 2.1572, 0.6983 -1.3291 2.0969, 0.6083 -1.3291 1.9592, 0.6083 -1.3291 1.7416, 0.6983 -1.3291 1.6039, 0.843 -1.3291 1.5256, 0.8975 -1.3291 1.5165, 1.0598 -1.3291 1.5436, 1.1896 -1.3291 1.6446, 1.2198 -1.3291 1.6909, 1.1954 -1.3569 1.7042, 1.2157 -1.3569 1.7507, 1.2247 -1.353 1.7476, 1.2282 -1.3569 1.7998, 1.2376 -1.353 1.7983, 1.2456 -1.3467 1.7969, 1.2324 -1.3569 1.8504, 1.2419 -1.353 1.8504, 1.25 -1.3467 1.8504, 1.2563 -1.3386 1.8504, 1.2282 -1.3569 1.901, 1.2376 -1.353 1.9025, 1.2456 -1.3467 1.9039, 1.2518 -1.3386 1.9049, 1.2518 -1.3386 1.7959, 1.2557 -1.3291 1.7953, 1.2602 -1.3291 1.8504, 1.2421 -1.3291 1.7416, 1.2164 -1.3386 1.6928, 1.2384 -1.3386 1.7429, 1.2109 -1.3467 1.6958, 1.2324 -1.3467 1.7449, 1.2037 -1.353 1.6997, 1.0932 -1.3569 1.5932, 1.0486 -1.3569 1.5691, 1.0984 -1.353 1.5853, 1.0524 -1.353 1.5604, 1.1029 -1.3467 1.5785, 1.0557 -1.3467 1.5529, 1.1063 -1.3386 1.5732, 1.0582 -1.3386 1.5472, 1.1084 -1.3291 1.5699, 0.9506 -1.3569 1.5443, 0.8998 -1.3569 1.5443, 0.9514 -1.353 1.5348, 0.899 -1.353 1.5348, 0.952 -1.3467 1.5267, 0.8984 -1.3467 1.5267, 0.9525 -1.3386 1.5204, 0.8979 -1.3386 1.5204, 0.9529 -1.3291 1.5165, 0.7572 -1.3569 1.5932, 0.7171 -1.3569 1.6244, 0.752 -1.353 1.5853, 0.7107 -1.353 1.6174, 0.7475 -1.3467 1.5785, 0.7052 -1.3467 1.6114, 0.7441 -1.3386 1.5732, 0.701 -1.3386 1.6068, 0.742 -1.3291 1.5699, 0.655 -1.3569 1.7042, 0.6347 -1.3569 1.7507, 0.6467 -1.353 1.6997, 0.6257 -1.353 1.7476, 0.6395 -1.3467 1.6958, 0.618 -1.3467 1.7449, 0.634 -1.3386 1.6928, 0.612 -1.3386 1.7429, 0.6306 -1.3291 1.6909, 0.6222 -1.3569 1.901, 0.6347 -1.3569 1.9501, 0.6128 -1.353 1.9025, 0.6257 -1.353 1.9532, 0.6048 -1.3467 1.9039, 0.618 -1.3467 1.9559, 0.5986 -1.3386 1.9049, 0.612 -1.3386 1.9579, 0.5947 -1.3291 1.9055, 0.6828 -1.3569 2.0391, 0.7171 -1.3569 2.0764, 0.6753 -1.353 2.0449, 0.7107 -1.353 2.0834, 0.6689 -1.3467 2.0499, 0.7052 -1.3467 2.0894, 0.6639 -1.3386 2.0538, 0.701 -1.3386 2.094, 0.6608 -1.3291 2.0562, 0.8498 -1.3569 2.1482, 0.8998 -1.3569 2.1565, 0.8475 -1.353 2.1574, 0.899 -1.353 2.166, 0.8455 -1.3467 2.1653, 0.8984 -1.3467 2.1741, 0.8439 -1.3386 2.1714, 0.8979 -1.3386 2.1804, 0.843 -1.3291 2.1752, 1.0006 -1.3569 2.1482, 1.0486 -1.3569 2.1317, 1.0029 -1.353 2.1574, 1.0524 -1.353 2.1404, 1.0049 -1.3467 2.1653, 1.0557 -1.3467 2.1479, 1.0065 -1.3386 2.1714, 1.0582 -1.3386 2.1536, 1.0074 -1.3291 2.1752, 1.1676 -1.3569 2.0391, 1.1954 -1.3569 1.9966, 1.1751 -1.353 2.0449, 1.2037 -1.353 2.0011, 1.1815 -1.3467 2.0499, 1.2109 -1.3467 2.005, 1.1865 -1.3386 2.0538, 1.2164 -1.3386 2.008, 1.1896 -1.3291 2.0562, 1.1865 -1.3386 1.647, 1.1815 -1.3467 1.6509, 1.1751 -1.353 1.6559, 1.1676 -1.3569 1.6617, 1.1521 -1.3291 1.6039, 1.1494 -1.3386 1.6068, 1.1452 -1.3467 1.6114, 1.1397 -1.353 1.6174, 1.1333 -1.3569 1.6244, 1.0074 -1.3291 1.5256, 1.0065 -1.3386 1.5294, 1.0049 -1.3467 1.5355, 1.0029 -1.353 1.5434, 1.0006 -1.3569 1.5526, 0.8439 -1.3386 1.5294, 0.8455 -1.3467 1.5355, 0.8475 -1.353 1.5434, 0.8498 -1.3569 1.5526, 0.7906 -1.3291 1.5436, 0.7922 -1.3386 1.5472, 0.7947 -1.3467 1.5529, 0.798 -1.353 1.5604, 0.8018 -1.3569 1.5691, 0.6608 -1.3291 1.6446, 0.6639 -1.3386 1.647, 0.6689 -1.3467 1.6509, 0.6753 -1.353 1.6559, 0.6828 -1.3569 1.6617, 0.5947 -1.3291 1.7953, 0.5986 -1.3386 1.7959, 0.6048 -1.3467 1.7969, 0.6128 -1.353 1.7983, 0.6222 -1.3569 1.7998, 0.618 -1.3569 1.8504, 0.6085 -1.353 1.8504, 0.6004 -1.3467 1.8504, 0.5941 -1.3386 1.8504, 0.5902 -1.3291 1.8504, 0.6306 -1.3291 2.0099, 0.634 -1.3386 2.008, 0.6395 -1.3467 2.005, 0.6467 -1.353 2.0011, 0.655 -1.3569 1.9966, 0.742 -1.3291 2.1309, 0.7441 -1.3386 2.1276, 0.7475 -1.3467 2.1223, 0.752 -1.353 2.1155, 0.7572 -1.3569 2.1076, 0.8018 -1.3569 2.1317, 0.798 -1.353 2.1404, 0.7947 -1.3467 2.1479, 0.7922 -1.3386 2.1536, 0.9529 -1.3291 2.1843, 0.9525 -1.3386 2.1804, 0.952 -1.3467 2.1741, 0.9514 -1.353 2.166, 0.9506 -1.3569 2.1565, 1.1084 -1.3291 2.1309, 1.1063 -1.3386 2.1276, 1.1029 -1.3467 2.1223, 1.0984 -1.353 2.1155, 1.0932 -1.3569 2.1076, 1.1333 -1.3569 2.0764, 1.1397 -1.353 2.0834, 1.1452 -1.3467 2.0894, 1.1494 -1.3386 2.094, 1.2421 -1.3291 1.9592, 1.2384 -1.3386 1.9579, 1.2324 -1.3467 1.9559, 1.2247 -1.353 1.9532, 1.2157 -1.3569 1.9501
            ]
        }
        coordIndex [
            0,1,2,-1,2,1,3,-1,2,3,4,-1,4,3,5,-1,4,5,6,-1,6,5,7,-1,7,8,6,-1,6,8,9,-1,6,9,10,-1,11,12,13,-1,10,14,6,-1,6,14,15,-1,6,15,16,-1,16,17,6,-1,6,17,11,-1,6,11,18,-1,18,11,13,-1,19,20,21,-1,21,20,22,-1,21,22,23,-1,23,22,24,-1,23,24,25,-1,25,24,26,-1,27,28,29,-1,27,29,30,-1,31,32,26,-1,26,32,33,-1,26,33,34,-1,30,29,26,-1,26,29,35,-1,26,35,31,-1,34,36,26,-1,26,36,37,-1,26,37,25,-1,20,19,38,-1,20,38,39,-1,39,38,40,-1,39,40,41,-1,41,40,42,-1,41,42,43,-1,43,42,44,-1,43,44,45,-1,45,44,46,-1,45,46,47,-1,47,46,48,-1,47,48,49,-1,50,49,51,-1,51,49,48,-1,52,50,53,-1,53,50,51,-1,0,52,1,-1,1,52,53,-1,50,52,49,-1,49,52,0,-1,49,0,47,-1,47,0,45,-1,2,22,0,-1,0,22,20,-1,0,20,39,-1,39,41,0,-1,0,41,43,-1,0,43,45,-1,21,3,19,-1,19,3,1,-1,19,1,38,-1,38,1,40,-1,53,51,1,-1,1,51,48,-1,1,48,46,-1,46,44,1,-1,1,44,42,-1,1,42,40,-1,7,5,25,-1,25,5,23,-1,23,5,21,-1,21,5,3,-1,26,24,6,-1,6,24,4,-1,22,2,24,-1,24,2,4,-1,26,6,18,-1,26,18,30,-1,30,18,13,-1,30,13,27,-1,27,13,12,-1,27,12,28,-1,28,12,11,-1,28,11,29,-1,29,11,17,-1,29,17,35,-1,35,17,16,-1,35,16,31,-1,31,16,15,-1,31,15,32,-1,32,15,14,-1,32,14,33,-1,33,14,10,-1,33,10,34,-1,34,10,9,-1,34,9,36,-1,36,9,8,-1,36,8,37,-1,37,8,7,-1,37,7,25,-1,54,55,56,-1,56,55,57,-1,58,54,59,-1,59,54,56,-1,58,59,60,-1,58,60,61,-1,61,60,62,-1,61,62,63,-1,63,62,64,-1,63,64,65,-1,65,64,66,-1,65,66,67,-1,67,66,68,-1,67,68,69,-1,69,68,70,-1,69,70,71,-1,72,71,73,-1,73,71,70,-1,72,73,74,-1,72,74,75,-1,75,74,76,-1,75,76,77,-1,77,76,78,-1,77,78,79,-1,79,78,80,-1,79,80,81,-1,81,80,82,-1,81,82,83,-1,83,82,84,-1,83,84,85,-1,86,85,87,-1,87,85,84,-1,86,87,88,-1,86,88,89,-1,89,88,90,-1,89,90,91,-1,91,90,92,-1,91,92,93,-1,93,92,94,-1,93,94,95,-1,95,94,96,-1,95,96,97,-1,97,96,98,-1,97,98,99,-1,100,99,101,-1,101,99,98,-1,100,101,102,-1,100,102,103,-1,103,102,104,-1,103,104,105,-1,105,104,106,-1,105,106,107,-1,107,106,108,-1,107,108,109,-1,109,108,110,-1,109,110,111,-1,111,110,112,-1,111,112,113,-1,114,113,115,-1,115,113,112,-1,116,114,117,-1,117,114,115,-1,116,117,118,-1,116,118,119,-1,119,118,120,-1,119,120,121,-1,121,120,122,-1,121,122,123,-1,123,122,124,-1,123,124,125,-1,125,124,126,-1,125,126,127,-1,127,126,128,-1,127,128,129,-1,130,129,131,-1,131,129,128,-1,130,131,132,-1,130,132,133,-1,133,132,134,-1,133,134,135,-1,135,134,136,-1,135,136,137,-1,137,136,138,-1,137,138,139,-1,139,138,140,-1,139,140,141,-1,141,140,57,-1,141,57,55,-1,77,79,142,-1,114,99,113,-1,113,99,100,-1,113,100,111,-1,116,130,133,-1,143,144,54,-1,86,145,146,-1,146,147,86,-1,86,147,148,-1,86,148,85,-1,85,148,149,-1,143,54,150,-1,100,103,105,-1,133,135,116,-1,116,135,137,-1,116,137,139,-1,91,93,151,-1,105,107,100,-1,100,107,109,-1,100,109,111,-1,119,121,123,-1,152,153,72,-1,72,153,154,-1,72,154,71,-1,71,154,155,-1,71,155,156,-1,144,157,54,-1,54,157,158,-1,54,158,159,-1,99,160,161,-1,145,86,151,-1,151,86,89,-1,151,89,91,-1,149,162,85,-1,85,162,163,-1,85,163,83,-1,83,163,142,-1,83,142,81,-1,81,142,79,-1,152,72,142,-1,142,72,75,-1,142,75,77,-1,123,125,119,-1,119,125,127,-1,119,127,116,-1,116,127,129,-1,116,129,130,-1,58,164,54,-1,54,164,165,-1,54,165,150,-1,139,141,116,-1,116,141,55,-1,116,55,114,-1,114,55,54,-1,114,54,99,-1,99,54,159,-1,99,159,160,-1,93,95,151,-1,151,95,97,-1,151,97,166,-1,166,97,99,-1,166,99,167,-1,167,99,161,-1,58,61,164,-1,164,61,63,-1,164,63,65,-1,156,168,71,-1,71,168,169,-1,71,169,69,-1,69,169,164,-1,69,164,67,-1,67,164,65,-1,115,56,117,-1,117,56,57,-1,112,87,115,-1,115,87,84,-1,115,73,56,-1,56,73,70,-1,56,70,59,-1,59,70,60,-1,108,106,104,-1,96,94,92,-1,57,140,117,-1,117,140,138,-1,117,138,136,-1,136,134,117,-1,117,134,132,-1,117,132,131,-1,122,120,118,-1,84,82,115,-1,115,82,80,-1,115,80,78,-1,78,76,115,-1,115,76,74,-1,115,74,73,-1,104,102,108,-1,108,102,101,-1,108,101,110,-1,92,90,96,-1,96,90,88,-1,96,88,98,-1,98,88,87,-1,98,87,101,-1,101,87,112,-1,101,112,110,-1,70,68,60,-1,60,68,66,-1,60,66,62,-1,62,66,64,-1,131,128,117,-1,117,128,126,-1,117,126,118,-1,118,126,124,-1,118,124,122,-1,170,171,172,-1,172,171,173,-1,172,173,174,-1,174,173,175,-1,174,175,176,-1,176,175,177,-1,176,177,178,-1,178,177,179,-1,178,179,180,-1,180,179,181,-1,180,181,182,-1,182,181,183,-1,182,183,184,-1,184,183,185,-1,184,185,186,-1,185,187,186,-1,186,187,188,-1,186,188,189,-1,189,188,190,-1,189,190,191,-1,191,190,192,-1,191,192,193,-1,193,192,194,-1,193,194,195,-1,195,194,196,-1,195,196,197,-1,197,196,198,-1,197,198,199,-1,199,198,200,-1,199,200,201,-1,201,200,202,-1,201,202,203,-1,203,202,204,-1,203,204,205,-1,204,206,205,-1,205,206,207,-1,205,207,208,-1,208,207,209,-1,208,209,210,-1,210,209,211,-1,210,211,212,-1,212,211,213,-1,212,213,214,-1,214,213,215,-1,214,215,216,-1,216,215,217,-1,216,217,218,-1,218,217,219,-1,218,219,220,-1,220,219,221,-1,220,221,222,-1,221,223,222,-1,222,223,224,-1,222,224,225,-1,225,224,226,-1,225,226,227,-1,227,226,228,-1,227,228,229,-1,229,228,230,-1,229,230,231,-1,231,230,232,-1,231,232,233,-1,233,232,234,-1,233,234,235,-1,235,234,236,-1,235,236,237,-1,237,236,238,-1,237,238,239,-1,239,238,240,-1,239,240,170,-1,170,240,241,-1,170,241,171,-1,161,160,242,-1,159,243,160,-1,160,243,244,-1,160,244,242,-1,245,246,158,-1,158,246,247,-1,158,247,159,-1,159,247,248,-1,159,248,243,-1,245,158,249,-1,249,158,157,-1,249,157,250,-1,250,157,251,-1,251,157,144,-1,251,144,252,-1,143,253,144,-1,144,253,254,-1,144,254,252,-1,255,256,164,-1,164,256,257,-1,164,257,165,-1,165,257,258,-1,165,258,150,-1,150,258,259,-1,150,259,143,-1,143,259,260,-1,143,260,253,-1,255,164,261,-1,261,164,169,-1,261,169,262,-1,262,169,263,-1,263,169,168,-1,263,168,264,-1,156,265,168,-1,168,265,266,-1,168,266,264,-1,155,267,156,-1,156,267,268,-1,156,268,265,-1,269,270,154,-1,154,270,271,-1,154,271,155,-1,155,271,272,-1,155,272,267,-1,269,154,273,-1,273,154,153,-1,273,153,274,-1,274,153,275,-1,275,153,152,-1,275,152,276,-1,142,277,152,-1,152,277,278,-1,152,278,276,-1,279,280,163,-1,163,280,281,-1,163,281,142,-1,142,281,282,-1,142,282,277,-1,279,163,283,-1,283,163,162,-1,283,162,284,-1,284,162,285,-1,285,162,149,-1,285,149,286,-1,148,287,149,-1,149,287,288,-1,149,288,286,-1,147,289,148,-1,148,289,290,-1,148,290,287,-1,291,292,146,-1,146,292,293,-1,146,293,147,-1,147,293,294,-1,147,294,289,-1,291,146,295,-1,295,146,145,-1,295,145,296,-1,296,145,297,-1,297,145,151,-1,297,151,298,-1,298,151,299,-1,299,151,166,-1,299,166,300,-1,167,301,166,-1,166,301,302,-1,166,302,300,-1,242,303,161,-1,161,303,304,-1,161,304,167,-1,167,304,305,-1,167,305,301,-1,306,307,308,-1,309,310,307,-1,307,310,311,-1,307,311,308,-1,312,313,314,-1,314,313,315,-1,314,315,309,-1,309,315,316,-1,309,316,310,-1,312,314,317,-1,317,314,318,-1,317,318,319,-1,319,318,320,-1,320,318,321,-1,320,321,322,-1,323,324,321,-1,321,324,325,-1,321,325,322,-1,326,327,323,-1,323,327,328,-1,323,328,324,-1,329,330,331,-1,331,330,332,-1,331,332,326,-1,326,332,333,-1,326,333,327,-1,329,331,334,-1,334,331,335,-1,334,335,336,-1,336,335,337,-1,337,335,338,-1,337,338,339,-1,340,341,338,-1,338,341,342,-1,338,342,339,-1,343,344,340,-1,340,344,345,-1,340,345,341,-1,346,347,343,-1,343,347,348,-1,343,348,344,-1,349,350,351,-1,351,350,352,-1,351,352,346,-1,346,352,353,-1,346,353,347,-1,349,351,354,-1,354,351,355,-1,354,355,356,-1,356,355,357,-1,357,355,358,-1,357,358,359,-1,360,361,358,-1,358,361,362,-1,358,362,359,-1,363,364,360,-1,360,364,365,-1,360,365,361,-1,366,367,368,-1,368,367,369,-1,368,369,363,-1,363,369,370,-1,363,370,364,-1,366,368,371,-1,371,368,372,-1,371,372,373,-1,373,372,374,-1,374,372,375,-1,374,375,376,-1,377,378,375,-1,375,378,379,-1,375,379,376,-1,380,381,377,-1,377,381,382,-1,377,382,378,-1,308,383,306,-1,306,383,384,-1,306,384,380,-1,380,384,385,-1,380,385,381,-1,351,346,386,-1,386,346,343,-1,386,343,340,-1,360,358,386,-1,386,358,355,-1,386,355,351,-1,372,368,386,-1,386,368,363,-1,386,363,360,-1,380,377,386,-1,386,377,375,-1,386,375,372,-1,309,307,386,-1,386,307,306,-1,386,306,380,-1,321,318,386,-1,386,318,314,-1,386,314,309,-1,331,326,386,-1,386,326,323,-1,386,323,321,-1,340,338,386,-1,386,338,335,-1,386,335,331,-1,359,387,357,-1,357,387,388,-1,357,388,356,-1,356,388,389,-1,356,389,354,-1,354,389,390,-1,354,390,349,-1,359,362,387,-1,387,362,361,-1,387,361,391,-1,391,361,365,-1,391,365,392,-1,365,364,392,-1,392,364,370,-1,392,370,393,-1,370,369,393,-1,393,369,367,-1,393,367,394,-1,367,366,394,-1,394,366,371,-1,394,371,395,-1,395,371,373,-1,395,373,396,-1,396,373,374,-1,396,374,397,-1,397,374,376,-1,376,379,397,-1,397,379,378,-1,397,378,398,-1,398,378,382,-1,398,382,399,-1,399,382,381,-1,399,381,400,-1,400,381,385,-1,385,384,400,-1,400,384,383,-1,400,383,401,-1,401,383,308,-1,401,308,402,-1,402,308,311,-1,402,311,403,-1,403,311,310,-1,403,310,404,-1,404,310,316,-1,316,315,404,-1,404,315,313,-1,404,313,405,-1,405,313,312,-1,405,312,406,-1,406,312,317,-1,406,317,407,-1,407,317,319,-1,319,320,407,-1,407,320,322,-1,407,322,408,-1,408,322,325,-1,408,325,409,-1,325,324,409,-1,409,324,328,-1,409,328,410,-1,328,327,410,-1,410,327,333,-1,410,333,411,-1,333,332,411,-1,411,332,330,-1,411,330,412,-1,412,330,329,-1,412,329,413,-1,413,329,334,-1,413,334,414,-1,414,334,336,-1,336,337,414,-1,414,337,339,-1,414,339,415,-1,415,339,342,-1,415,342,416,-1,416,342,341,-1,416,341,417,-1,417,341,345,-1,345,344,417,-1,417,344,348,-1,417,348,418,-1,418,348,347,-1,418,347,419,-1,419,347,353,-1,419,353,420,-1,420,353,352,-1,420,352,390,-1,390,352,350,-1,390,350,349,-1,418,421,417,-1,417,421,422,-1,417,422,416,-1,416,422,423,-1,416,423,415,-1,415,423,424,-1,415,424,414,-1,414,424,425,-1,414,425,413,-1,413,425,426,-1,413,426,412,-1,412,426,427,-1,412,427,411,-1,411,427,428,-1,411,428,410,-1,410,428,429,-1,410,429,409,-1,409,429,430,-1,409,430,408,-1,408,430,431,-1,408,431,407,-1,407,431,432,-1,407,432,406,-1,406,432,433,-1,406,433,405,-1,405,433,434,-1,405,434,404,-1,404,434,435,-1,404,435,403,-1,403,435,436,-1,403,436,402,-1,402,436,437,-1,402,437,401,-1,401,437,438,-1,401,438,400,-1,400,438,439,-1,400,439,399,-1,399,439,440,-1,399,440,398,-1,398,440,441,-1,398,441,397,-1,397,441,442,-1,397,442,396,-1,396,442,443,-1,396,443,395,-1,395,443,444,-1,395,444,394,-1,394,444,445,-1,394,445,393,-1,393,445,446,-1,393,446,392,-1,392,446,447,-1,392,447,391,-1,391,447,448,-1,391,448,387,-1,387,448,449,-1,387,449,388,-1,388,449,450,-1,388,450,389,-1,389,450,451,-1,389,451,390,-1,390,451,452,-1,390,452,420,-1,420,452,453,-1,420,453,419,-1,419,453,454,-1,419,454,418,-1,418,454,421,-1,454,455,421,-1,421,455,456,-1,421,456,422,-1,422,456,457,-1,422,457,423,-1,423,457,458,-1,423,458,424,-1,424,458,459,-1,424,459,425,-1,425,459,460,-1,425,460,426,-1,426,460,461,-1,426,461,427,-1,427,461,462,-1,427,462,428,-1,428,462,463,-1,428,463,429,-1,429,463,464,-1,429,464,430,-1,430,464,465,-1,430,465,431,-1,431,465,466,-1,431,466,432,-1,432,466,467,-1,432,467,433,-1,433,467,468,-1,433,468,434,-1,434,468,469,-1,434,469,435,-1,435,469,470,-1,435,470,436,-1,436,470,471,-1,436,471,437,-1,437,471,472,-1,437,472,438,-1,438,472,473,-1,438,473,439,-1,439,473,474,-1,439,474,440,-1,440,474,475,-1,440,475,441,-1,441,475,476,-1,441,476,442,-1,442,476,477,-1,442,477,443,-1,443,477,478,-1,443,478,444,-1,444,478,479,-1,444,479,445,-1,445,479,480,-1,445,480,446,-1,446,480,481,-1,446,481,447,-1,447,481,482,-1,447,482,448,-1,448,482,483,-1,448,483,449,-1,449,483,484,-1,449,484,450,-1,450,484,485,-1,450,485,451,-1,451,485,486,-1,451,486,452,-1,452,486,487,-1,452,487,453,-1,453,487,488,-1,453,488,454,-1,454,488,455,-1,488,489,455,-1,455,489,490,-1,455,490,456,-1,456,490,491,-1,456,491,457,-1,457,491,492,-1,457,492,458,-1,458,492,493,-1,458,493,459,-1,459,493,494,-1,459,494,460,-1,460,494,495,-1,460,495,461,-1,461,495,496,-1,461,496,462,-1,462,496,497,-1,462,497,463,-1,463,497,498,-1,463,498,464,-1,464,498,499,-1,464,499,465,-1,465,499,500,-1,465,500,466,-1,466,500,501,-1,466,501,467,-1,467,501,502,-1,467,502,468,-1,468,502,503,-1,468,503,469,-1,469,503,504,-1,469,504,470,-1,470,504,505,-1,470,505,471,-1,471,505,506,-1,471,506,472,-1,472,506,507,-1,472,507,473,-1,473,507,508,-1,473,508,474,-1,474,508,509,-1,474,509,475,-1,475,509,510,-1,475,510,476,-1,476,510,511,-1,476,511,477,-1,477,511,512,-1,477,512,478,-1,478,512,513,-1,478,513,479,-1,479,513,514,-1,479,514,480,-1,480,514,515,-1,480,515,481,-1,481,515,516,-1,481,516,482,-1,482,516,517,-1,482,517,483,-1,483,517,518,-1,483,518,484,-1,484,518,519,-1,484,519,485,-1,485,519,520,-1,485,520,486,-1,486,520,521,-1,486,521,487,-1,487,521,522,-1,487,522,488,-1,488,522,489,-1,522,523,489,-1,489,523,524,-1,489,524,490,-1,490,524,525,-1,490,525,491,-1,491,525,526,-1,491,526,492,-1,492,526,527,-1,492,527,493,-1,493,527,528,-1,493,528,494,-1,494,528,529,-1,494,529,495,-1,495,529,530,-1,495,530,496,-1,496,530,531,-1,496,531,497,-1,497,531,532,-1,497,532,498,-1,498,532,533,-1,498,533,499,-1,499,533,534,-1,499,534,500,-1,500,534,535,-1,500,535,501,-1,501,535,536,-1,501,536,502,-1,502,536,537,-1,502,537,503,-1,503,537,538,-1,503,538,504,-1,504,538,539,-1,504,539,505,-1,505,539,540,-1,505,540,506,-1,506,540,541,-1,506,541,507,-1,507,541,542,-1,507,542,508,-1,508,542,543,-1,508,543,509,-1,509,543,544,-1,509,544,510,-1,510,544,545,-1,510,545,511,-1,511,545,546,-1,511,546,512,-1,512,546,547,-1,512,547,513,-1,513,547,548,-1,513,548,514,-1,514,548,549,-1,514,549,515,-1,515,549,550,-1,515,550,516,-1,516,550,551,-1,516,551,517,-1,517,551,552,-1,517,552,518,-1,518,552,553,-1,518,553,519,-1,519,553,554,-1,519,554,520,-1,520,554,555,-1,520,555,521,-1,521,555,556,-1,521,556,522,-1,522,556,523,-1,556,557,523,-1,523,557,558,-1,523,558,524,-1,524,558,559,-1,524,559,525,-1,525,559,560,-1,525,560,526,-1,526,560,561,-1,526,561,527,-1,527,561,562,-1,527,562,528,-1,528,562,563,-1,528,563,529,-1,529,563,564,-1,529,564,530,-1,530,564,565,-1,530,565,531,-1,531,565,566,-1,531,566,532,-1,532,566,567,-1,532,567,533,-1,533,567,568,-1,533,568,534,-1,534,568,569,-1,534,569,535,-1,535,569,570,-1,535,570,536,-1,536,570,571,-1,536,571,537,-1,537,571,572,-1,537,572,538,-1,538,572,573,-1,538,573,539,-1,539,573,574,-1,539,574,540,-1,540,574,575,-1,540,575,541,-1,541,575,576,-1,541,576,542,-1,542,576,577,-1,542,577,543,-1,543,577,578,-1,543,578,544,-1,544,578,579,-1,544,579,545,-1,545,579,580,-1,545,580,546,-1,546,580,581,-1,546,581,547,-1,547,581,582,-1,547,582,548,-1,548,582,583,-1,548,583,549,-1,549,583,584,-1,549,584,550,-1,550,584,585,-1,550,585,551,-1,551,585,586,-1,551,586,552,-1,552,586,587,-1,552,587,553,-1,553,587,588,-1,553,588,554,-1,554,588,589,-1,554,589,555,-1,555,589,590,-1,555,590,556,-1,556,590,557,-1,590,180,557,-1,557,180,182,-1,557,182,558,-1,558,182,184,-1,558,184,559,-1,559,184,186,-1,559,186,560,-1,560,186,189,-1,560,189,561,-1,561,189,191,-1,561,191,562,-1,562,191,193,-1,562,193,563,-1,563,193,195,-1,563,195,564,-1,564,195,197,-1,564,197,565,-1,565,197,199,-1,565,199,566,-1,566,199,201,-1,566,201,567,-1,567,201,203,-1,567,203,568,-1,568,203,205,-1,568,205,569,-1,569,205,208,-1,569,208,570,-1,570,208,210,-1,570,210,571,-1,571,210,212,-1,571,212,572,-1,572,212,214,-1,572,214,573,-1,573,214,216,-1,573,216,574,-1,574,216,218,-1,574,218,575,-1,575,218,220,-1,575,220,576,-1,576,220,222,-1,576,222,577,-1,577,222,225,-1,577,225,578,-1,578,225,227,-1,578,227,579,-1,579,227,229,-1,579,229,580,-1,580,229,231,-1,580,231,581,-1,581,231,233,-1,581,233,582,-1,582,233,235,-1,582,235,583,-1,583,235,237,-1,583,237,584,-1,584,237,239,-1,584,239,585,-1,585,239,170,-1,585,170,586,-1,586,170,172,-1,586,172,587,-1,587,172,174,-1,587,174,588,-1,588,174,176,-1,588,176,589,-1,589,176,178,-1,589,178,590,-1,590,178,180,-1,274,275,591,-1,278,277,592,-1,280,279,593,-1,284,285,594,-1,290,289,595,-1,292,291,596,-1,296,297,597,-1,302,301,598,-1,244,243,599,-1,245,249,600,-1,254,253,601,-1,260,259,602,-1,255,261,603,-1,266,265,604,-1,268,267,605,-1,606,173,171,-1,175,173,607,-1,607,173,606,-1,607,606,608,-1,177,175,609,-1,609,175,607,-1,609,607,610,-1,610,607,608,-1,610,608,611,-1,179,177,612,-1,612,177,609,-1,612,609,613,-1,613,609,610,-1,613,610,614,-1,614,610,611,-1,614,611,615,-1,181,179,616,-1,616,179,612,-1,616,612,617,-1,617,612,613,-1,617,613,618,-1,618,613,614,-1,618,614,619,-1,619,614,615,-1,619,615,591,-1,620,621,622,-1,605,623,624,-1,624,623,625,-1,624,625,626,-1,626,625,627,-1,626,627,628,-1,240,238,629,-1,629,238,630,-1,629,630,631,-1,631,630,632,-1,631,632,633,-1,633,632,634,-1,633,634,635,-1,635,634,636,-1,635,636,637,-1,637,636,603,-1,234,232,638,-1,638,232,639,-1,638,639,640,-1,640,639,641,-1,640,641,642,-1,642,641,643,-1,642,643,644,-1,644,643,645,-1,644,645,646,-1,646,645,602,-1,226,224,647,-1,647,224,648,-1,647,648,649,-1,649,648,650,-1,649,650,651,-1,651,650,652,-1,651,652,653,-1,653,652,654,-1,653,654,655,-1,655,654,600,-1,221,219,656,-1,656,219,657,-1,656,657,658,-1,658,657,659,-1,658,659,660,-1,660,659,661,-1,660,661,662,-1,662,661,663,-1,662,663,664,-1,664,663,599,-1,213,211,665,-1,665,211,666,-1,665,666,667,-1,667,666,668,-1,667,668,669,-1,669,668,670,-1,669,670,671,-1,671,670,672,-1,671,672,673,-1,673,672,598,-1,207,206,674,-1,674,206,675,-1,674,675,676,-1,676,675,677,-1,676,677,678,-1,678,677,679,-1,678,679,680,-1,680,679,681,-1,680,681,682,-1,682,681,597,-1,200,198,683,-1,683,198,684,-1,683,684,685,-1,685,684,686,-1,685,686,687,-1,687,686,688,-1,687,688,689,-1,689,688,690,-1,689,690,691,-1,691,690,595,-1,194,192,692,-1,692,192,693,-1,692,693,694,-1,694,693,695,-1,694,695,696,-1,696,695,697,-1,696,697,698,-1,698,697,699,-1,698,699,700,-1,700,699,594,-1,187,185,701,-1,701,185,702,-1,701,702,703,-1,703,702,704,-1,703,704,705,-1,705,704,706,-1,705,706,707,-1,707,706,708,-1,707,708,709,-1,709,708,592,-1,273,622,269,-1,269,622,621,-1,269,621,270,-1,271,270,623,-1,623,270,621,-1,623,621,625,-1,625,621,620,-1,625,620,627,-1,605,267,623,-1,623,267,272,-1,623,272,271,-1,265,268,604,-1,604,268,605,-1,604,605,710,-1,710,605,624,-1,710,624,711,-1,711,624,626,-1,711,626,712,-1,712,626,628,-1,712,628,713,-1,264,266,714,-1,714,266,604,-1,714,604,715,-1,715,604,710,-1,715,710,716,-1,716,710,711,-1,716,711,717,-1,717,711,712,-1,717,712,718,-1,718,712,713,-1,718,713,241,-1,241,713,171,-1,241,240,718,-1,718,240,629,-1,718,629,717,-1,717,629,631,-1,717,631,716,-1,716,631,633,-1,716,633,715,-1,715,633,635,-1,715,635,714,-1,714,635,637,-1,714,637,264,-1,264,637,263,-1,603,261,637,-1,637,261,262,-1,637,262,263,-1,256,255,719,-1,719,255,603,-1,719,603,720,-1,720,603,636,-1,720,636,721,-1,721,636,634,-1,721,634,722,-1,722,634,632,-1,722,632,723,-1,723,632,630,-1,723,630,236,-1,236,630,238,-1,236,234,723,-1,723,234,638,-1,723,638,722,-1,722,638,640,-1,722,640,721,-1,721,640,642,-1,721,642,720,-1,720,642,644,-1,720,644,719,-1,719,644,646,-1,719,646,256,-1,256,646,257,-1,602,259,646,-1,646,259,258,-1,646,258,257,-1,253,260,601,-1,601,260,602,-1,601,602,724,-1,724,602,645,-1,724,645,725,-1,725,645,643,-1,725,643,726,-1,726,643,641,-1,726,641,727,-1,727,641,639,-1,727,639,230,-1,230,639,232,-1,252,254,728,-1,728,254,601,-1,728,601,729,-1,729,601,724,-1,729,724,730,-1,730,724,725,-1,730,725,731,-1,731,725,726,-1,731,726,732,-1,732,726,727,-1,732,727,228,-1,228,727,230,-1,228,226,732,-1,732,226,647,-1,732,647,731,-1,731,647,649,-1,731,649,730,-1,730,649,651,-1,730,651,729,-1,729,651,653,-1,729,653,728,-1,728,653,655,-1,728,655,252,-1,252,655,251,-1,600,249,655,-1,655,249,250,-1,655,250,251,-1,246,245,733,-1,733,245,600,-1,733,600,734,-1,734,600,654,-1,734,654,735,-1,735,654,652,-1,735,652,736,-1,736,652,650,-1,736,650,737,-1,737,650,648,-1,737,648,223,-1,223,648,224,-1,223,221,737,-1,737,221,656,-1,737,656,736,-1,736,656,658,-1,736,658,735,-1,735,658,660,-1,735,660,734,-1,734,660,662,-1,734,662,733,-1,733,662,664,-1,733,664,246,-1,246,664,247,-1,599,243,664,-1,664,243,248,-1,664,248,247,-1,242,244,738,-1,738,244,599,-1,738,599,739,-1,739,599,663,-1,739,663,740,-1,740,663,661,-1,740,661,741,-1,741,661,659,-1,741,659,742,-1,742,659,657,-1,742,657,217,-1,217,657,219,-1,217,215,742,-1,742,215,743,-1,742,743,741,-1,741,743,744,-1,741,744,740,-1,740,744,745,-1,740,745,739,-1,739,745,746,-1,739,746,738,-1,738,746,747,-1,738,747,242,-1,242,747,303,-1,215,213,743,-1,743,213,665,-1,743,665,744,-1,744,665,667,-1,744,667,745,-1,745,667,669,-1,745,669,746,-1,746,669,671,-1,746,671,747,-1,747,671,673,-1,747,673,303,-1,303,673,304,-1,598,301,673,-1,673,301,305,-1,673,305,304,-1,300,302,748,-1,748,302,598,-1,748,598,749,-1,749,598,672,-1,749,672,750,-1,750,672,670,-1,750,670,751,-1,751,670,668,-1,751,668,752,-1,752,668,666,-1,752,666,209,-1,209,666,211,-1,209,207,752,-1,752,207,674,-1,752,674,751,-1,751,674,676,-1,751,676,750,-1,750,676,678,-1,750,678,749,-1,749,678,680,-1,749,680,748,-1,748,680,682,-1,748,682,300,-1,300,682,299,-1,597,297,682,-1,682,297,298,-1,682,298,299,-1,295,296,753,-1,753,296,597,-1,753,597,754,-1,754,597,681,-1,754,681,755,-1,755,681,679,-1,755,679,756,-1,756,679,677,-1,756,677,757,-1,757,677,675,-1,757,675,204,-1,204,675,206,-1,204,202,757,-1,757,202,758,-1,757,758,756,-1,756,758,759,-1,756,759,755,-1,755,759,760,-1,755,760,754,-1,754,760,761,-1,754,761,753,-1,753,761,596,-1,753,596,295,-1,295,596,291,-1,293,292,691,-1,691,292,596,-1,691,596,689,-1,689,596,761,-1,689,761,687,-1,687,761,760,-1,687,760,685,-1,685,760,759,-1,685,759,683,-1,683,759,758,-1,683,758,200,-1,200,758,202,-1,595,289,691,-1,691,289,294,-1,691,294,293,-1,287,290,762,-1,762,290,595,-1,762,595,763,-1,763,595,690,-1,763,690,764,-1,764,690,688,-1,764,688,765,-1,765,688,686,-1,765,686,766,-1,766,686,684,-1,766,684,196,-1,196,684,198,-1,196,194,766,-1,766,194,692,-1,766,692,765,-1,765,692,694,-1,765,694,764,-1,764,694,696,-1,764,696,763,-1,763,696,698,-1,763,698,762,-1,762,698,700,-1,762,700,287,-1,287,700,288,-1,594,285,700,-1,700,285,286,-1,700,286,288,-1,283,284,767,-1,767,284,594,-1,767,594,768,-1,768,594,699,-1,768,699,769,-1,769,699,697,-1,769,697,770,-1,770,697,695,-1,770,695,771,-1,771,695,693,-1,771,693,190,-1,190,693,192,-1,190,188,771,-1,771,188,772,-1,771,772,770,-1,770,772,773,-1,770,773,769,-1,769,773,774,-1,769,774,768,-1,768,774,775,-1,768,775,767,-1,767,775,593,-1,767,593,283,-1,283,593,279,-1,281,280,709,-1,709,280,593,-1,709,593,707,-1,707,593,775,-1,707,775,705,-1,705,775,774,-1,705,774,703,-1,703,774,773,-1,703,773,701,-1,701,773,772,-1,701,772,187,-1,187,772,188,-1,592,277,709,-1,709,277,282,-1,709,282,281,-1,276,278,776,-1,776,278,592,-1,776,592,777,-1,777,592,708,-1,777,708,778,-1,778,708,706,-1,778,706,779,-1,779,706,704,-1,779,704,780,-1,780,704,702,-1,780,702,183,-1,183,702,185,-1,183,181,780,-1,780,181,616,-1,780,616,779,-1,779,616,617,-1,779,617,778,-1,778,617,618,-1,778,618,777,-1,777,618,619,-1,777,619,776,-1,776,619,591,-1,776,591,276,-1,276,591,275,-1,171,713,606,-1,606,713,628,-1,606,628,608,-1,608,628,627,-1,608,627,611,-1,611,627,620,-1,611,620,615,-1,615,620,622,-1,615,622,591,-1,591,622,273,-1,591,273,274,-1,
        ]
    }
}