<?xml version="1.0" standalone="no"?>
 <!DOCTYPE svg PUBLIC "-//W3C//DTD SVG 1.1//EN" 
 "http://www.w3.org/Graphics/SVG/1.1/DTD/svg11.dtd"> 
<svg
  xmlns:svg="http://www.w3.org/2000/svg"
  xmlns="http://www.w3.org/2000/svg"
  xmlns:xlink="http://www.w3.org/1999/xlink"
  xmlns:inkscape="http://www.inkscape.org/namespaces/inkscape"
  version="1.1"
  width="13.589000mm" height="10.591800mm" viewBox="0.000000 0.000000 13.589000 10.591800">
<title>SVG Image created as Module_Hdr_DHT11_3P.svg date 2026-10-02T01:34:30 </title>
  <desc>Image generated by PCBNEW </desc>
<g style="fill:#000000; fill-opacity:1.000000;stroke:#000000; stroke-opacity:1.000000;
stroke-linecap:round; stroke-linejoin:round;"
 transform="translate(0 0) scale(1 1)">
<path style="fill:#000000; fill-opacity:1.000000; stroke:none;fill-rule:evenodd;"
d="M 5.954763,4.575000
5.954763,2.875000
7.654763,2.875000
7.654763,4.575000
Z" /> 
</g>
<g style="fill:#000000; fill-opacity:1.000000; stroke:none;">
<circle cx="6.804763" cy="6.265000" r="0.850000" /> 
<circle cx="6.804763" cy="8.805000" r="0.850000" /> 
</g>
<g style="fill:none; 
stroke:#000000; stroke-width:0.120000; stroke-opacity:1; 
stroke-linecap:round; stroke-linejoin:round;">
<text x="8.674763" y="4.125000"
textLength="2.485714" font-size="1.066666" lengthAdjust="spacingAndGlyphs"
text-anchor="start" opacity="0" stroke-opacity="0">VCC</text>
<g class="stroked-text"><desc>VCC</desc>
<path d="M8.829900 3.288856
L9.096567 4.088855
" />
<path d="M9.096567 4.088855
L9.363233 3.288856
" />
<path d="M10.087043 4.012664
L10.048947 4.050760
" />
<path d="M10.048947 4.050760
L9.934662 4.088855
" />
<path d="M9.934662 4.088855
L9.858471 4.088855
" />
<path d="M9.858471 4.088855
L9.744185 4.050760
" />
<path d="M9.744185 4.050760
L9.667995 3.974569
" />
<path d="M9.667995 3.974569
L9.629900 3.898379
" />
<path d="M9.629900 3.898379
L9.591804 3.745998
" />
<path d="M9.591804 3.745998
L9.591804 3.631713
" />
<path d="M9.591804 3.631713
L9.629900 3.479332
" />
<path d="M9.629900 3.479332
L9.667995 3.403141
" />
<path d="M9.667995 3.403141
L9.744185 3.326951
" />
<path d="M9.744185 3.326951
L9.858471 3.288856
" />
<path d="M9.858471 3.288856
L9.934662 3.288856
" />
<path d="M9.934662 3.288856
L10.048947 3.326951
" />
<path d="M10.048947 3.326951
L10.087043 3.365046
" />
<path d="M10.887043 4.012664
L10.848947 4.050760
" />
<path d="M10.848947 4.050760
L10.734662 4.088855
" />
<path d="M10.734662 4.088855
L10.658471 4.088855
" />
<path d="M10.658471 4.088855
L10.544185 4.050760
" />
<path d="M10.544185 4.050760
L10.467995 3.974569
" />
<path d="M10.467995 3.974569
L10.429900 3.898379
" />
<path d="M10.429900 3.898379
L10.391804 3.745998
" />
<path d="M10.391804 3.745998
L10.391804 3.631713
" />
<path d="M10.391804 3.631713
L10.429900 3.479332
" />
<path d="M10.429900 3.479332
L10.467995 3.403141
" />
<path d="M10.467995 3.403141
L10.544185 3.326951
" />
<path d="M10.544185 3.326951
L10.658471 3.288856
" />
<path d="M10.658471 3.288856
L10.734662 3.288856
" />
<path d="M10.734662 3.288856
L10.848947 3.326951
" />
<path d="M10.848947 3.326951
L10.887043 3.365046
" />
</g><text x="8.674763" y="6.665000"
textLength="2.980952" font-size="1.066666" lengthAdjust="spacingAndGlyphs"
text-anchor="start" opacity="0" stroke-opacity="0">DATA</text>
<g class="stroked-text"><desc>DATA</desc>
<path d="M8.944186 6.628855
L8.944186 5.828855
" />
<path d="M8.944186 5.828855
L9.134662 5.828855
" />
<path d="M9.134662 5.828855
L9.248948 5.866950
" />
<path d="M9.248948 5.866950
L9.325138 5.943140
" />
<path d="M9.325138 5.943140
L9.363233 6.019331
" />
<path d="M9.363233 6.019331
L9.401329 6.171712
" />
<path d="M9.401329 6.171712
L9.401329 6.285998
" />
<path d="M9.401329 6.285998
L9.363233 6.438379
" />
<path d="M9.363233 6.438379
L9.325138 6.514569
" />
<path d="M9.325138 6.514569
L9.248948 6.590760
" />
<path d="M9.248948 6.590760
L9.134662 6.628855
" />
<path d="M9.134662 6.628855
L8.944186 6.628855
" />
<path d="M9.706090 6.400283
L10.087043 6.400283
" />
<path d="M9.629900 6.628855
L9.896567 5.828855
" />
<path d="M9.896567 5.828855
L10.163233 6.628855
" />
<path d="M10.315614 5.828855
L10.772757 5.828855
" />
<path d="M10.544185 6.628855
L10.544185 5.828855
" />
<path d="M11.001328 6.400283
L11.382281 6.400283
" />
<path d="M10.925138 6.628855
L11.191805 5.828855
" />
<path d="M11.191805 5.828855
L11.458471 6.628855
" />
</g><text x="8.674763" y="9.205000"
textLength="2.638095" font-size="1.066666" lengthAdjust="spacingAndGlyphs"
text-anchor="start" opacity="0" stroke-opacity="0">GND</text>
<g class="stroked-text"><desc>GND</desc>
<path d="M9.363233 8.406950
L9.287043 8.368855
" />
<path d="M9.287043 8.368855
L9.172757 8.368855
" />
<path d="M9.172757 8.368855
L9.058471 8.406950
" />
<path d="M9.058471 8.406950
L8.982281 8.483140
" />
<path d="M8.982281 8.483140
L8.944186 8.559331
" />
<path d="M8.944186 8.559331
L8.906090 8.711712
" />
<path d="M8.906090 8.711712
L8.906090 8.825998
" />
<path d="M8.906090 8.825998
L8.944186 8.978379
" />
<path d="M8.944186 8.978379
L8.982281 9.054569
" />
<path d="M8.982281 9.054569
L9.058471 9.130760
" />
<path d="M9.058471 9.130760
L9.172757 9.168855
" />
<path d="M9.172757 9.168855
L9.248948 9.168855
" />
<path d="M9.248948 9.168855
L9.363233 9.130760
" />
<path d="M9.363233 9.130760
L9.401329 9.092664
" />
<path d="M9.401329 9.092664
L9.401329 8.825998
" />
<path d="M9.401329 8.825998
L9.248948 8.825998
" />
<path d="M9.744186 9.168855
L9.744186 8.368855
" />
<path d="M9.744186 8.368855
L10.201329 9.168855
" />
<path d="M10.201329 9.168855
L10.201329 8.368855
" />
<path d="M10.582281 9.168855
L10.582281 8.368855
" />
<path d="M10.582281 8.368855
L10.772757 8.368855
" />
<path d="M10.772757 8.368855
L10.887043 8.406950
" />
<path d="M10.887043 8.406950
L10.963233 8.483140
" />
<path d="M10.963233 8.483140
L11.001328 8.559331
" />
<path d="M11.001328 8.559331
L11.039424 8.711712
" />
<path d="M11.039424 8.711712
L11.039424 8.825998
" />
<path d="M11.039424 8.825998
L11.001328 8.978379
" />
<path d="M11.001328 8.978379
L10.963233 9.054569
" />
<path d="M10.963233 9.054569
L10.887043 9.130760
" />
<path d="M10.887043 9.130760
L10.772757 9.168855
" />
<path d="M10.772757 9.168855
L10.582281 9.168855
" />
</g></g>
<g style="fill:none; 
stroke:#000000; stroke-width:0.150000; stroke-opacity:1; 
stroke-linecap:round; stroke-linejoin:round;">
<text x="6.804763" y="1.755000"
textLength="4.964286" font-size="1.333333" lengthAdjust="spacingAndGlyphs"
text-anchor="middle" opacity="0" stroke-opacity="0">DHT11</text>
<g class="stroked-text"><desc>DHT11</desc>
<path d="M4.685716 1.709820
L4.685716 0.709820
" />
<path d="M4.685716 0.709820
L4.923811 0.709820
" />
<path d="M4.923811 0.709820
L5.066668 0.757439
" />
<path d="M5.066668 0.757439
L5.161906 0.852677
" />
<path d="M5.161906 0.852677
L5.209525 0.947915
" />
<path d="M5.209525 0.947915
L5.257144 1.138391
" />
<path d="M5.257144 1.138391
L5.257144 1.281248
" />
<path d="M5.257144 1.281248
L5.209525 1.471724
" />
<path d="M5.209525 1.471724
L5.161906 1.566962
" />
<path d="M5.161906 1.566962
L5.066668 1.662200
" />
<path d="M5.066668 1.662200
L4.923811 1.709820
" />
<path d="M4.923811 1.709820
L4.685716 1.709820
" />
<path d="M5.685716 1.709820
L5.685716 0.709820
" />
<path d="M5.685716 1.186010
L6.257144 1.186010
" />
<path d="M6.257144 1.709820
L6.257144 0.709820
" />
<path d="M6.590478 0.709820
L7.161905 0.709820
" />
<path d="M6.876191 1.709820
L6.876191 0.709820
" />
<path d="M8.019048 1.709820
L7.447620 1.709820
" />
<path d="M7.733334 1.709820
L7.733334 0.709820
" />
<path d="M7.733334 0.709820
L7.638096 0.852677
" />
<path d="M7.638096 0.852677
L7.542858 0.947915
" />
<path d="M7.542858 0.947915
L7.447620 0.995534
" />
<path d="M8.971429 1.709820
L8.400001 1.709820
" />
<path d="M8.685715 1.709820
L8.685715 0.709820
" />
<path d="M8.685715 0.709820
L8.590477 0.852677
" />
<path d="M8.590477 0.852677
L8.495239 0.947915
" />
<path d="M8.495239 0.947915
L8.400001 0.995534
" />
</g></g>
<g style="fill:none; 
stroke:#000000; stroke-width:0.120000; stroke-opacity:1; 
stroke-linecap:round; stroke-linejoin:round;">
<path d="M5.534763 2.455000
L8.074763 2.455000
" />
<path d="M8.074763 2.455000
L8.074763 10.075000
" />
<path d="M8.074763 10.075000
L5.534763 10.075000
" />
<path d="M5.534763 10.075000
L5.534763 2.455000
" />
<path d="M8.374763 3.225000
L8.374763 4.225000
" />
</g>
<g style="fill:none; 
stroke:#000000; stroke-width:0.150000; stroke-opacity:1; 
stroke-linecap:round; stroke-linejoin:round;">
<text x="6.804763" y="4.765000"
textLength="4.535715" font-size="1.333333" lengthAdjust="spacingAndGlyphs"
text-anchor="middle" opacity="0" stroke-opacity="0">REF**</text>
<g class="stroked-text"><desc>REF**</desc>
<path d="M5.471430 4.719819
L5.138097 4.243628
" />
<path d="M4.900002 4.719819
L4.900002 3.719820
" />
<path d="M4.900002 3.719820
L5.280954 3.719820
" />
<path d="M5.280954 3.719820
L5.376192 3.767438
" />
<path d="M5.376192 3.767438
L5.423811 3.815057
" />
<path d="M5.423811 3.815057
L5.471430 3.910295
" />
<path d="M5.471430 3.910295
L5.471430 4.053152
" />
<path d="M5.471430 4.053152
L5.423811 4.148390
" />
<path d="M5.423811 4.148390
L5.376192 4.196009
" />
<path d="M5.376192 4.196009
L5.280954 4.243628
" />
<path d="M5.280954 4.243628
L4.900002 4.243628
" />
<path d="M5.900002 4.196009
L6.233335 4.196009
" />
<path d="M6.376192 4.719819
L5.900002 4.719819
" />
<path d="M5.900002 4.719819
L5.900002 3.719820
" />
<path d="M5.900002 3.719820
L6.376192 3.719820
" />
<path d="M7.138096 4.196009
L6.804763 4.196009
" />
<path d="M6.804763 4.719819
L6.804763 3.719820
" />
<path d="M6.804763 3.719820
L7.280953 3.719820
" />
<path d="M7.804763 3.719820
L7.804763 3.957914
" />
<path d="M7.566668 3.862676
L7.804763 3.957914
" />
<path d="M7.804763 3.957914
L8.042858 3.862676
" />
<path d="M7.661906 4.148390
L7.804763 3.957914
" />
<path d="M7.804763 3.957914
L7.947620 4.148390
" />
<path d="M8.566668 3.719820
L8.566668 3.957914
" />
<path d="M8.328573 3.862676
L8.566668 3.957914
" />
<path d="M8.566668 3.957914
L8.804763 3.862676
" />
<path d="M8.423811 4.148390
L8.566668 3.957914
" />
<path d="M8.566668 3.957914
L8.709525 4.148390
" />
</g></g>
<g style="fill:none; 
stroke:#000000; stroke-width:0.120000; stroke-opacity:1; 
stroke-linecap:round; stroke-linejoin:round;">
<text x="6.804763" y="6.665000"
textLength="13.609527" font-size="1.066666" lengthAdjust="spacingAndGlyphs"
text-anchor="middle" opacity="0" stroke-opacity="0">Module_Hdr_DHT11_3P</text>
<g class="stroked-text"><desc>Module_Hdr_DHT11_3P</desc>
<path d="M0.290477 6.628855
L0.290477 5.828855
" />
<path d="M0.290477 5.828855
L0.557143 6.400283
" />
<path d="M0.557143 6.400283
L0.823810 5.828855
" />
<path d="M0.823810 5.828855
L0.823810 6.628855
" />
<path d="M1.319048 6.628855
L1.242858 6.590760
" />
<path d="M1.242858 6.590760
L1.204763 6.552664
" />
<path d="M1.204763 6.552664
L1.166667 6.476474
" />
<path d="M1.166667 6.476474
L1.166667 6.247902
" />
<path d="M1.166667 6.247902
L1.204763 6.171712
" />
<path d="M1.204763 6.171712
L1.242858 6.133617
" />
<path d="M1.242858 6.133617
L1.319048 6.095521
" />
<path d="M1.319048 6.095521
L1.433334 6.095521
" />
<path d="M1.433334 6.095521
L1.509525 6.133617
" />
<path d="M1.509525 6.133617
L1.547620 6.171712
" />
<path d="M1.547620 6.171712
L1.585715 6.247902
" />
<path d="M1.585715 6.247902
L1.585715 6.476474
" />
<path d="M1.585715 6.476474
L1.547620 6.552664
" />
<path d="M1.547620 6.552664
L1.509525 6.590760
" />
<path d="M1.509525 6.590760
L1.433334 6.628855
" />
<path d="M1.433334 6.628855
L1.319048 6.628855
" />
<path d="M2.271430 6.628855
L2.271430 5.828855
" />
<path d="M2.271430 6.590760
L2.195239 6.628855
" />
<path d="M2.195239 6.628855
L2.042858 6.628855
" />
<path d="M2.042858 6.628855
L1.966668 6.590760
" />
<path d="M1.966668 6.590760
L1.928573 6.552664
" />
<path d="M1.928573 6.552664
L1.890477 6.476474
" />
<path d="M1.890477 6.476474
L1.890477 6.247902
" />
<path d="M1.890477 6.247902
L1.928573 6.171712
" />
<path d="M1.928573 6.171712
L1.966668 6.133617
" />
<path d="M1.966668 6.133617
L2.042858 6.095521
" />
<path d="M2.042858 6.095521
L2.195239 6.095521
" />
<path d="M2.195239 6.095521
L2.271430 6.133617
" />
<path d="M2.995240 6.095521
L2.995240 6.628855
" />
<path d="M2.652383 6.095521
L2.652383 6.514569
" />
<path d="M2.652383 6.514569
L2.690478 6.590760
" />
<path d="M2.690478 6.590760
L2.766668 6.628855
" />
<path d="M2.766668 6.628855
L2.880954 6.628855
" />
<path d="M2.880954 6.628855
L2.957145 6.590760
" />
<path d="M2.957145 6.590760
L2.995240 6.552664
" />
<path d="M3.490478 6.628855
L3.414288 6.590760
" />
<path d="M3.414288 6.590760
L3.376193 6.514569
" />
<path d="M3.376193 6.514569
L3.376193 5.828855
" />
<path d="M4.100003 6.590760
L4.023812 6.628855
" />
<path d="M4.023812 6.628855
L3.871431 6.628855
" />
<path d="M3.871431 6.628855
L3.795241 6.590760
" />
<path d="M3.795241 6.590760
L3.757145 6.514569
" />
<path d="M3.757145 6.514569
L3.757145 6.209807
" />
<path d="M3.757145 6.209807
L3.795241 6.133617
" />
<path d="M3.795241 6.133617
L3.871431 6.095521
" />
<path d="M3.871431 6.095521
L4.023812 6.095521
" />
<path d="M4.023812 6.095521
L4.100003 6.133617
" />
<path d="M4.100003 6.133617
L4.138098 6.209807
" />
<path d="M4.138098 6.209807
L4.138098 6.285998
" />
<path d="M4.138098 6.285998
L3.757145 6.362188
" />
<path d="M4.290478 6.705045
L4.900002 6.705045
" />
<path d="M5.090479 6.628855
L5.090479 5.828855
" />
<path d="M5.090479 6.209807
L5.547622 6.209807
" />
<path d="M5.547622 6.628855
L5.547622 5.828855
" />
<path d="M6.271431 6.628855
L6.271431 5.828855
" />
<path d="M6.271431 6.590760
L6.195240 6.628855
" />
<path d="M6.195240 6.628855
L6.042859 6.628855
" />
<path d="M6.042859 6.628855
L5.966669 6.590760
" />
<path d="M5.966669 6.590760
L5.928574 6.552664
" />
<path d="M5.928574 6.552664
L5.890478 6.476474
" />
<path d="M5.890478 6.476474
L5.890478 6.247902
" />
<path d="M5.890478 6.247902
L5.928574 6.171712
" />
<path d="M5.928574 6.171712
L5.966669 6.133617
" />
<path d="M5.966669 6.133617
L6.042859 6.095521
" />
<path d="M6.042859 6.095521
L6.195240 6.095521
" />
<path d="M6.195240 6.095521
L6.271431 6.133617
" />
<path d="M6.652384 6.628855
L6.652384 6.095521
" />
<path d="M6.652384 6.247902
L6.690479 6.171712
" />
<path d="M6.690479 6.171712
L6.728574 6.133617
" />
<path d="M6.728574 6.133617
L6.804764 6.095521
" />
<path d="M6.804764 6.095521
L6.880954 6.095521
" />
<path d="M6.957145 6.705045
L7.566668 6.705045
" />
<path d="M7.757145 6.628855
L7.757145 5.828855
" />
<path d="M7.757145 5.828855
L7.947621 5.828855
" />
<path d="M7.947621 5.828855
L8.061907 5.866950
" />
<path d="M8.061907 5.866950
L8.138097 5.943140
" />
<path d="M8.138097 5.943140
L8.176192 6.019331
" />
<path d="M8.176192 6.019331
L8.214288 6.171712
" />
<path d="M8.214288 6.171712
L8.214288 6.285998
" />
<path d="M8.214288 6.285998
L8.176192 6.438379
" />
<path d="M8.176192 6.438379
L8.138097 6.514569
" />
<path d="M8.138097 6.514569
L8.061907 6.590760
" />
<path d="M8.061907 6.590760
L7.947621 6.628855
" />
<path d="M7.947621 6.628855
L7.757145 6.628855
" />
<path d="M8.557145 6.628855
L8.557145 5.828855
" />
<path d="M8.557145 6.209807
L9.014288 6.209807
" />
<path d="M9.014288 6.628855
L9.014288 5.828855
" />
<path d="M9.280954 5.828855
L9.738097 5.828855
" />
<path d="M9.509525 6.628855
L9.509525 5.828855
" />
<path d="M10.423811 6.628855
L9.966668 6.628855
" />
<path d="M10.195240 6.628855
L10.195240 5.828855
" />
<path d="M10.195240 5.828855
L10.119049 5.943140
" />
<path d="M10.119049 5.943140
L10.042859 6.019331
" />
<path d="M10.042859 6.019331
L9.966668 6.057426
" />
<path d="M11.185716 6.628855
L10.728573 6.628855
" />
<path d="M10.957145 6.628855
L10.957145 5.828855
" />
<path d="M10.957145 5.828855
L10.880954 5.943140
" />
<path d="M10.880954 5.943140
L10.804764 6.019331
" />
<path d="M10.804764 6.019331
L10.728573 6.057426
" />
<path d="M11.338098 6.705045
L11.947621 6.705045
" />
<path d="M12.061907 5.828855
L12.557145 5.828855
" />
<path d="M12.557145 5.828855
L12.290479 6.133617
" />
<path d="M12.290479 6.133617
L12.404764 6.133617
" />
<path d="M12.404764 6.133617
L12.480955 6.171712
" />
<path d="M12.480955 6.171712
L12.519050 6.209807
" />
<path d="M12.519050 6.209807
L12.557145 6.285998
" />
<path d="M12.557145 6.285998
L12.557145 6.476474
" />
<path d="M12.557145 6.476474
L12.519050 6.552664
" />
<path d="M12.519050 6.552664
L12.480955 6.590760
" />
<path d="M12.480955 6.590760
L12.404764 6.628855
" />
<path d="M12.404764 6.628855
L12.176193 6.628855
" />
<path d="M12.176193 6.628855
L12.100002 6.590760
" />
<path d="M12.100002 6.590760
L12.061907 6.552664
" />
<path d="M12.900003 6.628855
L12.900003 5.828855
" />
<path d="M12.900003 5.828855
L13.204765 5.828855
" />
<path d="M13.204765 5.828855
L13.280955 5.866950
" />
<path d="M13.280955 5.866950
L13.319050 5.905045
" />
<path d="M13.319050 5.905045
L13.357146 5.981236
" />
<path d="M13.357146 5.981236
L13.357146 6.095521
" />
<path d="M13.357146 6.095521
L13.319050 6.171712
" />
<path d="M13.319050 6.171712
L13.280955 6.209807
" />
<path d="M13.280955 6.209807
L13.204765 6.247902
" />
<path d="M13.204765 6.247902
L12.900003 6.247902
" />
</g></g>
<g style="fill:none; 
stroke:#000000; stroke-width:0.100000; stroke-opacity:1; 
stroke-linecap:round; stroke-linejoin:round;">
<path d="M5.534763 2.455000
L8.074763 2.455000
" />
<path d="M8.074763 2.455000
L8.074763 10.075000
" />
<path d="M8.074763 10.075000
L5.534763 10.075000
" />
<path d="M5.534763 10.075000
L5.534763 2.455000
" />
</g>
<g style="fill:none; 
stroke:#000000; stroke-width:0.047222; stroke-opacity:1; 
stroke-linecap:round; stroke-linejoin:round;">
<text x="6.804763" y="4.008333"
textLength="0.568015" font-size="0.755554" lengthAdjust="spacingAndGlyphs"
text-anchor="middle" opacity="0" stroke-opacity="0">1</text>
<g class="stroked-text"><desc>1</desc>
<path d="M6.966667 3.984695
L6.642859 3.984695
" />
<path d="M6.804763 3.984695
L6.804763 3.418030
" />
<path d="M6.804763 3.418030
L6.750795 3.498982
" />
<path d="M6.750795 3.498982
L6.696827 3.552950
" />
<path d="M6.696827 3.552950
L6.642859 3.579934
" />
</g><path style="fill:none; 
stroke:#000000; stroke-width:0.100000; stroke-opacity:1; 
stroke-linecap:round; stroke-linejoin:round;fill:none"
d="M 5.954763,2.875000
7.654763,2.875000
7.654763,4.575000
5.954763,4.575000
Z" /> 
</g>
<g style="fill:none; 
stroke:#000000; stroke-width:0.047222; stroke-opacity:1; 
stroke-linecap:round; stroke-linejoin:round;">
<text x="6.804763" y="6.548333"
textLength="0.568015" font-size="0.755554" lengthAdjust="spacingAndGlyphs"
text-anchor="middle" opacity="0" stroke-opacity="0">2</text>
<g class="stroked-text"><desc>2</desc>
<path d="M6.642859 6.011997
L6.669843 5.985013
" />
<path d="M6.669843 5.985013
L6.723811 5.958029
" />
<path d="M6.723811 5.958029
L6.858731 5.958029
" />
<path d="M6.858731 5.958029
L6.912699 5.985013
" />
<path d="M6.912699 5.985013
L6.939683 6.011997
" />
<path d="M6.939683 6.011997
L6.966667 6.065965
" />
<path d="M6.966667 6.065965
L6.966667 6.119933
" />
<path d="M6.966667 6.119933
L6.939683 6.200885
" />
<path d="M6.939683 6.200885
L6.615875 6.524695
" />
<path d="M6.615875 6.524695
L6.966667 6.524695
" />
</g></g>
<g style="fill:none; 
stroke:#000000; stroke-width:0.100000; stroke-opacity:1; 
stroke-linecap:round; stroke-linejoin:round;">
<circle cx="6.804763" cy="6.265000" r="0.850000" /> 
</g>
<g style="fill:none; 
stroke:#000000; stroke-width:0.047222; stroke-opacity:1; 
stroke-linecap:round; stroke-linejoin:round;">
<text x="6.804763" y="9.088333"
textLength="0.568015" font-size="0.755554" lengthAdjust="spacingAndGlyphs"
text-anchor="middle" opacity="0" stroke-opacity="0">3</text>
<g class="stroked-text"><desc>3</desc>
<path d="M6.615875 8.498029
L6.966667 8.498029
" />
<path d="M6.966667 8.498029
L6.777779 8.713901
" />
<path d="M6.777779 8.713901
L6.858731 8.713901
" />
<path d="M6.858731 8.713901
L6.912699 8.740885
" />
<path d="M6.912699 8.740885
L6.939683 8.767870
" />
<path d="M6.939683 8.767870
L6.966667 8.821838
" />
<path d="M6.966667 8.821838
L6.966667 8.956758
" />
<path d="M6.966667 8.956758
L6.939683 9.010726
" />
<path d="M6.939683 9.010726
L6.912699 9.037711
" />
<path d="M6.912699 9.037711
L6.858731 9.064695
" />
<path d="M6.858731 9.064695
L6.696827 9.064695
" />
<path d="M6.696827 9.064695
L6.642859 9.037711
" />
<path d="M6.642859 9.037711
L6.615875 9.010726
" />
</g></g>
<g style="fill:none; 
stroke:#000000; stroke-width:0.100000; stroke-opacity:1; 
stroke-linecap:round; stroke-linejoin:round;">
<circle cx="6.804763" cy="8.805000" r="0.850000" /> 
</g>
<g style="fill:none; 
stroke:#000000; stroke-width:0.050000; stroke-opacity:1; 
stroke-linecap:round; stroke-linejoin:round;">
<path d="M4.054763 0.025000
L11.904763 0.025000
" />
<path d="M11.904763 0.025000
L11.904763 10.575000
" />
<path d="M11.904763 10.575000
L4.054763 10.575000
" />
<path d="M4.054763 10.575000
L4.054763 0.025000
" />
</g>
<g style="fill:#FFFFFF; fill-opacity:1.000000; stroke:none;">
<circle cx="6.804763" cy="3.725000" r="0.500000" /> 
</g>
<g style="fill:#FFFFFF; fill-opacity:1.000000; stroke:none;">
<circle cx="6.804763" cy="6.265000" r="0.500000" /> 
</g>
<g style="fill:#FFFFFF; fill-opacity:1.000000; stroke:none;">
<circle cx="6.804763" cy="8.805000" r="0.500000" /> 
</g> 
</svg>
