<?xml version="1.0" standalone="no"?>
 <!DOCTYPE svg PUBLIC "-//W3C//DTD SVG 1.1//EN" 
 "http://www.w3.org/Graphics/SVG/1.1/DTD/svg11.dtd"> 
<svg
  xmlns:svg="http://www.w3.org/2000/svg"
  xmlns="http://www.w3.org/2000/svg"
  xmlns:xlink="http://www.w3.org/1999/xlink"
  xmlns:inkscape="http://www.inkscape.org/namespaces/inkscape"
  version="1.1"
  width="13.716000mm" height="10.591800mm" viewBox="0.000000 0.000000 13.716000 10.591800">
<title>SVG Image created as Module_Hdr_AM312_3P.svg date 2026-10-02T01:34:37 </title>
  <desc>Image generated by PCBNEW </desc>
<g style="fill:#000000; fill-opacity:1.000000;stroke:#000000; stroke-opacity:1.000000;
stroke-linecap:round; stroke-linejoin:round;"
 transform="translate(0 0) scale(1 1)">
<path style="fill:#000000; fill-opacity:1.000000; stroke:none;fill-rule:evenodd;"
d="M 6.011906,4.575000
6.011906,2.875000
7.711906,2.875000
7.711906,4.575000
Z" /> 
</g>
<g style="fill:#000000; fill-opacity:1.000000; stroke:none;">
<circle cx="6.861906" cy="6.265000" r="0.850000" /> 
<circle cx="6.861906" cy="8.805000" r="0.850000" /> 
</g>
<g style="fill:none; 
stroke:#000000; stroke-width:0.120000; stroke-opacity:1; 
stroke-linecap:round; stroke-linejoin:round;">
<text x="8.731906" y="4.125000"
textLength="2.485714" font-size="1.066666" lengthAdjust="spacingAndGlyphs"
text-anchor="start" opacity="0" stroke-opacity="0">VCC</text>
<g class="stroked-text"><desc>VCC</desc>
<path d="M8.887043 3.288856
L9.153710 4.088855
" />
<path d="M9.153710 4.088855
L9.420376 3.288856
" />
<path d="M10.144186 4.012664
L10.106090 4.050760
" />
<path d="M10.106090 4.050760
L9.991805 4.088855
" />
<path d="M9.991805 4.088855
L9.915614 4.088855
" />
<path d="M9.915614 4.088855
L9.801328 4.050760
" />
<path d="M9.801328 4.050760
L9.725138 3.974569
" />
<path d="M9.725138 3.974569
L9.687043 3.898379
" />
<path d="M9.687043 3.898379
L9.648947 3.745998
" />
<path d="M9.648947 3.745998
L9.648947 3.631713
" />
<path d="M9.648947 3.631713
L9.687043 3.479332
" />
<path d="M9.687043 3.479332
L9.725138 3.403141
" />
<path d="M9.725138 3.403141
L9.801328 3.326951
" />
<path d="M9.801328 3.326951
L9.915614 3.288856
" />
<path d="M9.915614 3.288856
L9.991805 3.288856
" />
<path d="M9.991805 3.288856
L10.106090 3.326951
" />
<path d="M10.106090 3.326951
L10.144186 3.365046
" />
<path d="M10.944186 4.012664
L10.906090 4.050760
" />
<path d="M10.906090 4.050760
L10.791805 4.088855
" />
<path d="M10.791805 4.088855
L10.715614 4.088855
" />
<path d="M10.715614 4.088855
L10.601328 4.050760
" />
<path d="M10.601328 4.050760
L10.525138 3.974569
" />
<path d="M10.525138 3.974569
L10.487043 3.898379
" />
<path d="M10.487043 3.898379
L10.448947 3.745998
" />
<path d="M10.448947 3.745998
L10.448947 3.631713
" />
<path d="M10.448947 3.631713
L10.487043 3.479332
" />
<path d="M10.487043 3.479332
L10.525138 3.403141
" />
<path d="M10.525138 3.403141
L10.601328 3.326951
" />
<path d="M10.601328 3.326951
L10.715614 3.288856
" />
<path d="M10.715614 3.288856
L10.791805 3.288856
" />
<path d="M10.791805 3.288856
L10.906090 3.326951
" />
<path d="M10.906090 3.326951
L10.944186 3.365046
" />
</g><text x="8.731906" y="6.665000"
textLength="2.485714" font-size="1.066666" lengthAdjust="spacingAndGlyphs"
text-anchor="start" opacity="0" stroke-opacity="0">OUT</text>
<g class="stroked-text"><desc>OUT</desc>
<path d="M9.153710 5.828855
L9.306091 5.828855
" />
<path d="M9.306091 5.828855
L9.382281 5.866950
" />
<path d="M9.382281 5.866950
L9.458472 5.943140
" />
<path d="M9.458472 5.943140
L9.496567 6.095521
" />
<path d="M9.496567 6.095521
L9.496567 6.362188
" />
<path d="M9.496567 6.362188
L9.458472 6.514569
" />
<path d="M9.458472 6.514569
L9.382281 6.590760
" />
<path d="M9.382281 6.590760
L9.306091 6.628855
" />
<path d="M9.306091 6.628855
L9.153710 6.628855
" />
<path d="M9.153710 6.628855
L9.077519 6.590760
" />
<path d="M9.077519 6.590760
L9.001329 6.514569
" />
<path d="M9.001329 6.514569
L8.963233 6.362188
" />
<path d="M8.963233 6.362188
L8.963233 6.095521
" />
<path d="M8.963233 6.095521
L9.001329 5.943140
" />
<path d="M9.001329 5.943140
L9.077519 5.866950
" />
<path d="M9.077519 5.866950
L9.153710 5.828855
" />
<path d="M9.839424 5.828855
L9.839424 6.476474
" />
<path d="M9.839424 6.476474
L9.877519 6.552664
" />
<path d="M9.877519 6.552664
L9.915614 6.590760
" />
<path d="M9.915614 6.590760
L9.991805 6.628855
" />
<path d="M9.991805 6.628855
L10.144186 6.628855
" />
<path d="M10.144186 6.628855
L10.220376 6.590760
" />
<path d="M10.220376 6.590760
L10.258471 6.552664
" />
<path d="M10.258471 6.552664
L10.296567 6.476474
" />
<path d="M10.296567 6.476474
L10.296567 5.828855
" />
<path d="M10.563233 5.828855
L11.020376 5.828855
" />
<path d="M10.791804 6.628855
L10.791804 5.828855
" />
</g><text x="8.731906" y="9.205000"
textLength="2.638095" font-size="1.066666" lengthAdjust="spacingAndGlyphs"
text-anchor="start" opacity="0" stroke-opacity="0">GND</text>
<g class="stroked-text"><desc>GND</desc>
<path d="M9.420376 8.406950
L9.344186 8.368855
" />
<path d="M9.344186 8.368855
L9.229900 8.368855
" />
<path d="M9.229900 8.368855
L9.115614 8.406950
" />
<path d="M9.115614 8.406950
L9.039424 8.483140
" />
<path d="M9.039424 8.483140
L9.001329 8.559331
" />
<path d="M9.001329 8.559331
L8.963233 8.711712
" />
<path d="M8.963233 8.711712
L8.963233 8.825998
" />
<path d="M8.963233 8.825998
L9.001329 8.978379
" />
<path d="M9.001329 8.978379
L9.039424 9.054569
" />
<path d="M9.039424 9.054569
L9.115614 9.130760
" />
<path d="M9.115614 9.130760
L9.229900 9.168855
" />
<path d="M9.229900 9.168855
L9.306091 9.168855
" />
<path d="M9.306091 9.168855
L9.420376 9.130760
" />
<path d="M9.420376 9.130760
L9.458472 9.092664
" />
<path d="M9.458472 9.092664
L9.458472 8.825998
" />
<path d="M9.458472 8.825998
L9.306091 8.825998
" />
<path d="M9.801329 9.168855
L9.801329 8.368855
" />
<path d="M9.801329 8.368855
L10.258472 9.168855
" />
<path d="M10.258472 9.168855
L10.258472 8.368855
" />
<path d="M10.639424 9.168855
L10.639424 8.368855
" />
<path d="M10.639424 8.368855
L10.829900 8.368855
" />
<path d="M10.829900 8.368855
L10.944186 8.406950
" />
<path d="M10.944186 8.406950
L11.020376 8.483140
" />
<path d="M11.020376 8.483140
L11.058471 8.559331
" />
<path d="M11.058471 8.559331
L11.096567 8.711712
" />
<path d="M11.096567 8.711712
L11.096567 8.825998
" />
<path d="M11.096567 8.825998
L11.058471 8.978379
" />
<path d="M11.058471 8.978379
L11.020376 9.054569
" />
<path d="M11.020376 9.054569
L10.944186 9.130760
" />
<path d="M10.944186 9.130760
L10.829900 9.168855
" />
<path d="M10.829900 9.168855
L10.639424 9.168855
" />
</g></g>
<g style="fill:none; 
stroke:#000000; stroke-width:0.150000; stroke-opacity:1; 
stroke-linecap:round; stroke-linejoin:round;">
<text x="6.861906" y="1.755000"
textLength="5.107143" font-size="1.333333" lengthAdjust="spacingAndGlyphs"
text-anchor="middle" opacity="0" stroke-opacity="0">AM312</text>
<g class="stroked-text"><desc>AM312</desc>
<path d="M4.623812 1.424105
L5.100002 1.424105
" />
<path d="M4.528574 1.709820
L4.861907 0.709820
" />
<path d="M4.861907 0.709820
L5.195240 1.709820
" />
<path d="M5.528574 1.709820
L5.528574 0.709820
" />
<path d="M5.528574 0.709820
L5.861907 1.424105
" />
<path d="M5.861907 1.424105
L6.195240 0.709820
" />
<path d="M6.195240 0.709820
L6.195240 1.709820
" />
<path d="M6.576193 0.709820
L7.195239 0.709820
" />
<path d="M7.195239 0.709820
L6.861906 1.090772
" />
<path d="M6.861906 1.090772
L7.004763 1.090772
" />
<path d="M7.004763 1.090772
L7.100001 1.138391
" />
<path d="M7.100001 1.138391
L7.147620 1.186010
" />
<path d="M7.147620 1.186010
L7.195239 1.281248
" />
<path d="M7.195239 1.281248
L7.195239 1.519343
" />
<path d="M7.195239 1.519343
L7.147620 1.614581
" />
<path d="M7.147620 1.614581
L7.100001 1.662200
" />
<path d="M7.100001 1.662200
L7.004763 1.709820
" />
<path d="M7.004763 1.709820
L6.719050 1.709820
" />
<path d="M6.719050 1.709820
L6.623812 1.662200
" />
<path d="M6.623812 1.662200
L6.576193 1.614581
" />
<path d="M8.147620 1.709820
L7.576192 1.709820
" />
<path d="M7.861906 1.709820
L7.861906 0.709820
" />
<path d="M7.861906 0.709820
L7.766668 0.852677
" />
<path d="M7.766668 0.852677
L7.671430 0.947915
" />
<path d="M7.671430 0.947915
L7.576192 0.995534
" />
<path d="M8.528573 0.805058
L8.576192 0.757439
" />
<path d="M8.576192 0.757439
L8.671430 0.709820
" />
<path d="M8.671430 0.709820
L8.909525 0.709820
" />
<path d="M8.909525 0.709820
L9.004763 0.757439
" />
<path d="M9.004763 0.757439
L9.052382 0.805058
" />
<path d="M9.052382 0.805058
L9.100001 0.900296
" />
<path d="M9.100001 0.900296
L9.100001 0.995534
" />
<path d="M9.100001 0.995534
L9.052382 1.138391
" />
<path d="M9.052382 1.138391
L8.480954 1.709820
" />
<path d="M8.480954 1.709820
L9.100001 1.709820
" />
</g></g>
<g style="fill:none; 
stroke:#000000; stroke-width:0.120000; stroke-opacity:1; 
stroke-linecap:round; stroke-linejoin:round;">
<path d="M5.591906 2.455000
L8.131906 2.455000
" />
<path d="M8.131906 2.455000
L8.131906 10.075000
" />
<path d="M8.131906 10.075000
L5.591906 10.075000
" />
<path d="M5.591906 10.075000
L5.591906 2.455000
" />
<path d="M8.431906 3.225000
L8.431906 4.225000
" />
</g>
<g style="fill:none; 
stroke:#000000; stroke-width:0.150000; stroke-opacity:1; 
stroke-linecap:round; stroke-linejoin:round;">
<text x="6.861906" y="4.765000"
textLength="4.535715" font-size="1.333333" lengthAdjust="spacingAndGlyphs"
text-anchor="middle" opacity="0" stroke-opacity="0">REF**</text>
<g class="stroked-text"><desc>REF**</desc>
<path d="M5.528573 4.719819
L5.195240 4.243628
" />
<path d="M4.957145 4.719819
L4.957145 3.719820
" />
<path d="M4.957145 3.719820
L5.338097 3.719820
" />
<path d="M5.338097 3.719820
L5.433335 3.767438
" />
<path d="M5.433335 3.767438
L5.480954 3.815057
" />
<path d="M5.480954 3.815057
L5.528573 3.910295
" />
<path d="M5.528573 3.910295
L5.528573 4.053152
" />
<path d="M5.528573 4.053152
L5.480954 4.148390
" />
<path d="M5.480954 4.148390
L5.433335 4.196009
" />
<path d="M5.433335 4.196009
L5.338097 4.243628
" />
<path d="M5.338097 4.243628
L4.957145 4.243628
" />
<path d="M5.957145 4.196009
L6.290478 4.196009
" />
<path d="M6.433335 4.719819
L5.957145 4.719819
" />
<path d="M5.957145 4.719819
L5.957145 3.719820
" />
<path d="M5.957145 3.719820
L6.433335 3.719820
" />
<path d="M7.195239 4.196009
L6.861906 4.196009
" />
<path d="M6.861906 4.719819
L6.861906 3.719820
" />
<path d="M6.861906 3.719820
L7.338096 3.719820
" />
<path d="M7.861906 3.719820
L7.861906 3.957914
" />
<path d="M7.623811 3.862676
L7.861906 3.957914
" />
<path d="M7.861906 3.957914
L8.100001 3.862676
" />
<path d="M7.719049 4.148390
L7.861906 3.957914
" />
<path d="M7.861906 3.957914
L8.004763 4.148390
" />
<path d="M8.623811 3.719820
L8.623811 3.957914
" />
<path d="M8.385716 3.862676
L8.623811 3.957914
" />
<path d="M8.623811 3.957914
L8.861906 3.862676
" />
<path d="M8.480954 4.148390
L8.623811 3.957914
" />
<path d="M8.623811 3.957914
L8.766668 4.148390
" />
</g></g>
<g style="fill:none; 
stroke:#000000; stroke-width:0.120000; stroke-opacity:1; 
stroke-linecap:round; stroke-linejoin:round;">
<text x="6.861906" y="6.665000"
textLength="13.723813" font-size="1.066666" lengthAdjust="spacingAndGlyphs"
text-anchor="middle" opacity="0" stroke-opacity="0">Module_Hdr_AM312_3P</text>
<g class="stroked-text"><desc>Module_Hdr_AM312_3P</desc>
<path d="M0.290477 6.628855
L0.290477 5.828855
" />
<path d="M0.290477 5.828855
L0.557143 6.400283
" />
<path d="M0.557143 6.400283
L0.823810 5.828855
" />
<path d="M0.823810 5.828855
L0.823810 6.628855
" />
<path d="M1.319048 6.628855
L1.242858 6.590760
" />
<path d="M1.242858 6.590760
L1.204763 6.552664
" />
<path d="M1.204763 6.552664
L1.166667 6.476474
" />
<path d="M1.166667 6.476474
L1.166667 6.247902
" />
<path d="M1.166667 6.247902
L1.204763 6.171712
" />
<path d="M1.204763 6.171712
L1.242858 6.133617
" />
<path d="M1.242858 6.133617
L1.319048 6.095521
" />
<path d="M1.319048 6.095521
L1.433334 6.095521
" />
<path d="M1.433334 6.095521
L1.509525 6.133617
" />
<path d="M1.509525 6.133617
L1.547620 6.171712
" />
<path d="M1.547620 6.171712
L1.585715 6.247902
" />
<path d="M1.585715 6.247902
L1.585715 6.476474
" />
<path d="M1.585715 6.476474
L1.547620 6.552664
" />
<path d="M1.547620 6.552664
L1.509525 6.590760
" />
<path d="M1.509525 6.590760
L1.433334 6.628855
" />
<path d="M1.433334 6.628855
L1.319048 6.628855
" />
<path d="M2.271430 6.628855
L2.271430 5.828855
" />
<path d="M2.271430 6.590760
L2.195239 6.628855
" />
<path d="M2.195239 6.628855
L2.042858 6.628855
" />
<path d="M2.042858 6.628855
L1.966668 6.590760
" />
<path d="M1.966668 6.590760
L1.928573 6.552664
" />
<path d="M1.928573 6.552664
L1.890477 6.476474
" />
<path d="M1.890477 6.476474
L1.890477 6.247902
" />
<path d="M1.890477 6.247902
L1.928573 6.171712
" />
<path d="M1.928573 6.171712
L1.966668 6.133617
" />
<path d="M1.966668 6.133617
L2.042858 6.095521
" />
<path d="M2.042858 6.095521
L2.195239 6.095521
" />
<path d="M2.195239 6.095521
L2.271430 6.133617
" />
<path d="M2.995240 6.095521
L2.995240 6.628855
" />
<path d="M2.652383 6.095521
L2.652383 6.514569
" />
<path d="M2.652383 6.514569
L2.690478 6.590760
" />
<path d="M2.690478 6.590760
L2.766668 6.628855
" />
<path d="M2.766668 6.628855
L2.880954 6.628855
" />
<path d="M2.880954 6.628855
L2.957145 6.590760
" />
<path d="M2.957145 6.590760
L2.995240 6.552664
" />
<path d="M3.490478 6.628855
L3.414288 6.590760
" />
<path d="M3.414288 6.590760
L3.376193 6.514569
" />
<path d="M3.376193 6.514569
L3.376193 5.828855
" />
<path d="M4.100003 6.590760
L4.023812 6.628855
" />
<path d="M4.023812 6.628855
L3.871431 6.628855
" />
<path d="M3.871431 6.628855
L3.795241 6.590760
" />
<path d="M3.795241 6.590760
L3.757145 6.514569
" />
<path d="M3.757145 6.514569
L3.757145 6.209807
" />
<path d="M3.757145 6.209807
L3.795241 6.133617
" />
<path d="M3.795241 6.133617
L3.871431 6.095521
" />
<path d="M3.871431 6.095521
L4.023812 6.095521
" />
<path d="M4.023812 6.095521
L4.100003 6.133617
" />
<path d="M4.100003 6.133617
L4.138098 6.209807
" />
<path d="M4.138098 6.209807
L4.138098 6.285998
" />
<path d="M4.138098 6.285998
L3.757145 6.362188
" />
<path d="M4.290478 6.705045
L4.900002 6.705045
" />
<path d="M5.090479 6.628855
L5.090479 5.828855
" />
<path d="M5.090479 6.209807
L5.547622 6.209807
" />
<path d="M5.547622 6.628855
L5.547622 5.828855
" />
<path d="M6.271431 6.628855
L6.271431 5.828855
" />
<path d="M6.271431 6.590760
L6.195240 6.628855
" />
<path d="M6.195240 6.628855
L6.042859 6.628855
" />
<path d="M6.042859 6.628855
L5.966669 6.590760
" />
<path d="M5.966669 6.590760
L5.928574 6.552664
" />
<path d="M5.928574 6.552664
L5.890478 6.476474
" />
<path d="M5.890478 6.476474
L5.890478 6.247902
" />
<path d="M5.890478 6.247902
L5.928574 6.171712
" />
<path d="M5.928574 6.171712
L5.966669 6.133617
" />
<path d="M5.966669 6.133617
L6.042859 6.095521
" />
<path d="M6.042859 6.095521
L6.195240 6.095521
" />
<path d="M6.195240 6.095521
L6.271431 6.133617
" />
<path d="M6.652384 6.628855
L6.652384 6.095521
" />
<path d="M6.652384 6.247902
L6.690479 6.171712
" />
<path d="M6.690479 6.171712
L6.728574 6.133617
" />
<path d="M6.728574 6.133617
L6.804765 6.095521
" />
<path d="M6.804765 6.095521
L6.880954 6.095521
" />
<path d="M6.957145 6.705045
L7.566668 6.705045
" />
<path d="M7.719049 6.400283
L8.100002 6.400283
" />
<path d="M7.642859 6.628855
L7.909526 5.828855
" />
<path d="M7.909526 5.828855
L8.176192 6.628855
" />
<path d="M8.442859 6.628855
L8.442859 5.828855
" />
<path d="M8.442859 5.828855
L8.709525 6.400283
" />
<path d="M8.709525 6.400283
L8.976192 5.828855
" />
<path d="M8.976192 5.828855
L8.976192 6.628855
" />
<path d="M9.280954 5.828855
L9.776192 5.828855
" />
<path d="M9.776192 5.828855
L9.509526 6.133617
" />
<path d="M9.509526 6.133617
L9.623811 6.133617
" />
<path d="M9.623811 6.133617
L9.700002 6.171712
" />
<path d="M9.700002 6.171712
L9.738097 6.209807
" />
<path d="M9.738097 6.209807
L9.776192 6.285998
" />
<path d="M9.776192 6.285998
L9.776192 6.476474
" />
<path d="M9.776192 6.476474
L9.738097 6.552664
" />
<path d="M9.738097 6.552664
L9.700002 6.590760
" />
<path d="M9.700002 6.590760
L9.623811 6.628855
" />
<path d="M9.623811 6.628855
L9.395240 6.628855
" />
<path d="M9.395240 6.628855
L9.319049 6.590760
" />
<path d="M9.319049 6.590760
L9.280954 6.552664
" />
<path d="M10.538097 6.628855
L10.080954 6.628855
" />
<path d="M10.309526 6.628855
L10.309526 5.828855
" />
<path d="M10.309526 5.828855
L10.233335 5.943140
" />
<path d="M10.233335 5.943140
L10.157145 6.019331
" />
<path d="M10.157145 6.019331
L10.080954 6.057426
" />
<path d="M10.842859 5.905045
L10.880955 5.866950
" />
<path d="M10.880955 5.866950
L10.957145 5.828855
" />
<path d="M10.957145 5.828855
L11.147621 5.828855
" />
<path d="M11.147621 5.828855
L11.223812 5.866950
" />
<path d="M11.223812 5.866950
L11.261907 5.905045
" />
<path d="M11.261907 5.905045
L11.300002 5.981236
" />
<path d="M11.300002 5.981236
L11.300002 6.057426
" />
<path d="M11.300002 6.057426
L11.261907 6.171712
" />
<path d="M11.261907 6.171712
L10.804764 6.628855
" />
<path d="M10.804764 6.628855
L11.300002 6.628855
" />
<path d="M11.452384 6.705045
L12.061907 6.705045
" />
<path d="M12.176193 5.828855
L12.671431 5.828855
" />
<path d="M12.671431 5.828855
L12.404765 6.133617
" />
<path d="M12.404765 6.133617
L12.519050 6.133617
" />
<path d="M12.519050 6.133617
L12.595241 6.171712
" />
<path d="M12.595241 6.171712
L12.633336 6.209807
" />
<path d="M12.633336 6.209807
L12.671431 6.285998
" />
<path d="M12.671431 6.285998
L12.671431 6.476474
" />
<path d="M12.671431 6.476474
L12.633336 6.552664
" />
<path d="M12.633336 6.552664
L12.595241 6.590760
" />
<path d="M12.595241 6.590760
L12.519050 6.628855
" />
<path d="M12.519050 6.628855
L12.290479 6.628855
" />
<path d="M12.290479 6.628855
L12.214288 6.590760
" />
<path d="M12.214288 6.590760
L12.176193 6.552664
" />
<path d="M13.014289 6.628855
L13.014289 5.828855
" />
<path d="M13.014289 5.828855
L13.319051 5.828855
" />
<path d="M13.319051 5.828855
L13.395241 5.866950
" />
<path d="M13.395241 5.866950
L13.433336 5.905045
" />
<path d="M13.433336 5.905045
L13.471432 5.981236
" />
<path d="M13.471432 5.981236
L13.471432 6.095521
" />
<path d="M13.471432 6.095521
L13.433336 6.171712
" />
<path d="M13.433336 6.171712
L13.395241 6.209807
" />
<path d="M13.395241 6.209807
L13.319051 6.247902
" />
<path d="M13.319051 6.247902
L13.014289 6.247902
" />
</g></g>
<g style="fill:none; 
stroke:#000000; stroke-width:0.100000; stroke-opacity:1; 
stroke-linecap:round; stroke-linejoin:round;">
<path d="M5.591906 2.455000
L8.131906 2.455000
" />
<path d="M8.131906 2.455000
L8.131906 10.075000
" />
<path d="M8.131906 10.075000
L5.591906 10.075000
" />
<path d="M5.591906 10.075000
L5.591906 2.455000
" />
</g>
<g style="fill:none; 
stroke:#000000; stroke-width:0.047222; stroke-opacity:1; 
stroke-linecap:round; stroke-linejoin:round;">
<text x="6.861906" y="4.008333"
textLength="0.568015" font-size="0.755554" lengthAdjust="spacingAndGlyphs"
text-anchor="middle" opacity="0" stroke-opacity="0">1</text>
<g class="stroked-text"><desc>1</desc>
<path d="M7.023810 3.984695
L6.700002 3.984695
" />
<path d="M6.861906 3.984695
L6.861906 3.418030
" />
<path d="M6.861906 3.418030
L6.807938 3.498982
" />
<path d="M6.807938 3.498982
L6.753970 3.552950
" />
<path d="M6.753970 3.552950
L6.700002 3.579934
" />
</g><path style="fill:none; 
stroke:#000000; stroke-width:0.100000; stroke-opacity:1; 
stroke-linecap:round; stroke-linejoin:round;fill:none"
d="M 6.011906,2.875000
7.711906,2.875000
7.711906,4.575000
6.011906,4.575000
Z" /> 
</g>
<g style="fill:none; 
stroke:#000000; stroke-width:0.047222; stroke-opacity:1; 
stroke-linecap:round; stroke-linejoin:round;">
<text x="6.861906" y="6.548333"
textLength="0.568015" font-size="0.755554" lengthAdjust="spacingAndGlyphs"
text-anchor="middle" opacity="0" stroke-opacity="0">2</text>
<g class="stroked-text"><desc>2</desc>
<path d="M6.700002 6.011997
L6.726986 5.985013
" />
<path d="M6.726986 5.985013
L6.780954 5.958029
" />
<path d="M6.780954 5.958029
L6.915874 5.958029
" />
<path d="M6.915874 5.958029
L6.969842 5.985013
" />
<path d="M6.969842 5.985013
L6.996826 6.011997
" />
<path d="M6.996826 6.011997
L7.023810 6.065965
" />
<path d="M7.023810 6.065965
L7.023810 6.119933
" />
<path d="M7.023810 6.119933
L6.996826 6.200885
" />
<path d="M6.996826 6.200885
L6.673018 6.524695
" />
<path d="M6.673018 6.524695
L7.023810 6.524695
" />
</g></g>
<g style="fill:none; 
stroke:#000000; stroke-width:0.100000; stroke-opacity:1; 
stroke-linecap:round; stroke-linejoin:round;">
<circle cx="6.861906" cy="6.265000" r="0.850000" /> 
</g>
<g style="fill:none; 
stroke:#000000; stroke-width:0.047222; stroke-opacity:1; 
stroke-linecap:round; stroke-linejoin:round;">
<text x="6.861906" y="9.088333"
textLength="0.568015" font-size="0.755554" lengthAdjust="spacingAndGlyphs"
text-anchor="middle" opacity="0" stroke-opacity="0">3</text>
<g class="stroked-text"><desc>3</desc>
<path d="M6.673018 8.498029
L7.023810 8.498029
" />
<path d="M7.023810 8.498029
L6.834922 8.713901
" />
<path d="M6.834922 8.713901
L6.915874 8.713901
" />
<path d="M6.915874 8.713901
L6.969842 8.740885
" />
<path d="M6.969842 8.740885
L6.996826 8.767870
" />
<path d="M6.996826 8.767870
L7.023810 8.821838
" />
<path d="M7.023810 8.821838
L7.023810 8.956758
" />
<path d="M7.023810 8.956758
L6.996826 9.010726
" />
<path d="M6.996826 9.010726
L6.969842 9.037711
" />
<path d="M6.969842 9.037711
L6.915874 9.064695
" />
<path d="M6.915874 9.064695
L6.753970 9.064695
" />
<path d="M6.753970 9.064695
L6.700002 9.037711
" />
<path d="M6.700002 9.037711
L6.673018 9.010726
" />
</g></g>
<g style="fill:none; 
stroke:#000000; stroke-width:0.100000; stroke-opacity:1; 
stroke-linecap:round; stroke-linejoin:round;">
<circle cx="6.861906" cy="8.805000" r="0.850000" /> 
</g>
<g style="fill:none; 
stroke:#000000; stroke-width:0.050000; stroke-opacity:1; 
stroke-linecap:round; stroke-linejoin:round;">
<path d="M4.111906 0.025000
L11.361906 0.025000
" />
<path d="M11.361906 0.025000
L11.361906 10.575000
" />
<path d="M11.361906 10.575000
L4.111906 10.575000
" />
<path d="M4.111906 10.575000
L4.111906 0.025000
" />
</g>
<g style="fill:#FFFFFF; fill-opacity:1.000000; stroke:none;">
<circle cx="6.861906" cy="3.725000" r="0.500000" /> 
</g>
<g style="fill:#FFFFFF; fill-opacity:1.000000; stroke:none;">
<circle cx="6.861906" cy="6.265000" r="0.500000" /> 
</g>
<g style="fill:#FFFFFF; fill-opacity:1.000000; stroke:none;">
<circle cx="6.861906" cy="8.805000" r="0.500000" /> 
</g> 
</svg>
