<?xml version="1.0" standalone="no"?>
 <!DOCTYPE svg PUBLIC "-//W3C//DTD SVG 1.1//EN" 
 "http://www.w3.org/Graphics/SVG/1.1/DTD/svg11.dtd"> 
<svg
  xmlns:svg="http://www.w3.org/2000/svg"
  xmlns="http://www.w3.org/2000/svg"
  xmlns:xlink="http://www.w3.org/1999/xlink"
  xmlns:inkscape="http://www.inkscape.org/namespaces/inkscape"
  version="1.1"
  width="16.3068mm" height="20.7518mm" viewBox="0.0000 0.0000 16.3068 20.7518">
<title>SVG Image created as Hdr_Flame_4P_unit1.svg date 2026-10-02T01:34:42 </title>
  <desc>Image generated by Eeschema-SVG </desc>
<g style="fill:#000000; fill-opacity:1.0000;stroke:#000000; stroke-opacity:1.0000;
stroke-linecap:round; stroke-linejoin:round;"
 transform="translate(0 0) scale(1 1)">
</g>
<g style="fill:none; 
stroke:#000000; stroke-width:0.2540; stroke-opacity:1; 
stroke-linecap:round; stroke-linejoin:round;">
<rect x="4.343400" y="4.025900" width="7.620000" height="12.700000" rx="0.000000" />
</g>
<g style="fill:none; 
stroke:#000000; stroke-width:0.1524; stroke-opacity:1; 
stroke-linecap:round; stroke-linejoin:round;">
<path d="M4.3434 6.5659
L1.8034 6.5659
" />
<text x="5.3594" y="7.2009"
textLength="3.8318" font-size="1.6933" lengthAdjust="spacingAndGlyphs"
text-anchor="start" opacity="0" stroke-opacity="0">VCC</text>
<g class="stroked-text"><desc>VCC</desc>
<path d="M5.5805 5.8754
L6.0038 7.1454
" />
<path d="M6.0038 7.1454
L6.4272 5.8754
" />
<path d="M7.5762 7.0245
L7.5158 7.0850
" />
<path d="M7.5158 7.0850
L7.3343 7.1454
" />
<path d="M7.3343 7.1454
L7.2134 7.1454
" />
<path d="M7.2134 7.1454
L7.0320 7.0850
" />
<path d="M7.0320 7.0850
L6.9110 6.9640
" />
<path d="M6.9110 6.9640
L6.8505 6.8430
" />
<path d="M6.8505 6.8430
L6.7901 6.6011
" />
<path d="M6.7901 6.6011
L6.7901 6.4197
" />
<path d="M6.7901 6.4197
L6.8505 6.1778
" />
<path d="M6.8505 6.1778
L6.9110 6.0569
" />
<path d="M6.9110 6.0569
L7.0320 5.9359
" />
<path d="M7.0320 5.9359
L7.2134 5.8754
" />
<path d="M7.2134 5.8754
L7.3343 5.8754
" />
<path d="M7.3343 5.8754
L7.5158 5.9359
" />
<path d="M7.5158 5.9359
L7.5762 5.9964
" />
<path d="M8.8462 7.0245
L8.7858 7.0850
" />
<path d="M8.7858 7.0850
L8.6043 7.1454
" />
<path d="M8.6043 7.1454
L8.4834 7.1454
" />
<path d="M8.4834 7.1454
L8.3020 7.0850
" />
<path d="M8.3020 7.0850
L8.1810 6.9640
" />
<path d="M8.1810 6.9640
L8.1205 6.8430
" />
<path d="M8.1205 6.8430
L8.0601 6.6011
" />
<path d="M8.0601 6.6011
L8.0601 6.4197
" />
<path d="M8.0601 6.4197
L8.1205 6.1778
" />
<path d="M8.1205 6.1778
L8.1810 6.0569
" />
<path d="M8.1810 6.0569
L8.3020 5.9359
" />
<path d="M8.3020 5.9359
L8.4834 5.8754
" />
<path d="M8.4834 5.8754
L8.6043 5.8754
" />
<path d="M8.6043 5.8754
L8.7858 5.9359
" />
<path d="M8.7858 5.9359
L8.8462 5.9964
" />
</g><text x="3.0734" y="6.2103"
textLength="1.4127" font-size="1.6933" lengthAdjust="spacingAndGlyphs"
text-anchor="middle" opacity="0" stroke-opacity="0">1</text>
<g class="stroked-text"><desc>1</desc>
<path d="M3.4363 6.0468
L2.7106 6.0468
" />
<path d="M3.0734 6.0468
L3.0734 4.7768
" />
<path d="M3.0734 4.7768
L2.9525 4.9583
" />
<path d="M2.9525 4.9583
L2.8315 5.0792
" />
<path d="M2.8315 5.0792
L2.7106 5.1397
" />
</g><path d="M4.3434 9.1059
L1.8034 9.1059
" />
<text x="5.3594" y="9.7409"
textLength="4.0737" font-size="1.6933" lengthAdjust="spacingAndGlyphs"
text-anchor="start" opacity="0" stroke-opacity="0">GND</text>
<g class="stroked-text"><desc>GND</desc>
<path d="M6.4272 8.4759
L6.3062 8.4154
" />
<path d="M6.3062 8.4154
L6.1248 8.4154
" />
<path d="M6.1248 8.4154
L5.9434 8.4759
" />
<path d="M5.9434 8.4759
L5.8224 8.5969
" />
<path d="M5.8224 8.5969
L5.7619 8.7178
" />
<path d="M5.7619 8.7178
L5.7015 8.9597
" />
<path d="M5.7015 8.9597
L5.7015 9.1411
" />
<path d="M5.7015 9.1411
L5.7619 9.3830
" />
<path d="M5.7619 9.3830
L5.8224 9.5040
" />
<path d="M5.8224 9.5040
L5.9434 9.6250
" />
<path d="M5.9434 9.6250
L6.1248 9.6854
" />
<path d="M6.1248 9.6854
L6.2457 9.6854
" />
<path d="M6.2457 9.6854
L6.4272 9.6250
" />
<path d="M6.4272 9.6250
L6.4876 9.5645
" />
<path d="M6.4876 9.5645
L6.4876 9.1411
" />
<path d="M6.4876 9.1411
L6.2457 9.1411
" />
<path d="M7.0319 9.6854
L7.0319 8.4154
" />
<path d="M7.0319 8.4154
L7.7576 9.6854
" />
<path d="M7.7576 9.6854
L7.7576 8.4154
" />
<path d="M8.3624 9.6854
L8.3624 8.4154
" />
<path d="M8.3624 8.4154
L8.6648 8.4154
" />
<path d="M8.6648 8.4154
L8.8462 8.4759
" />
<path d="M8.8462 8.4759
L8.9672 8.5969
" />
<path d="M8.9672 8.5969
L9.0277 8.7178
" />
<path d="M9.0277 8.7178
L9.0881 8.9597
" />
<path d="M9.0881 8.9597
L9.0881 9.1411
" />
<path d="M9.0881 9.1411
L9.0277 9.3830
" />
<path d="M9.0277 9.3830
L8.9672 9.5040
" />
<path d="M8.9672 9.5040
L8.8462 9.6250
" />
<path d="M8.8462 9.6250
L8.6648 9.6854
" />
<path d="M8.6648 9.6854
L8.3624 9.6854
" />
</g><text x="3.0734" y="8.7503"
textLength="1.4127" font-size="1.6933" lengthAdjust="spacingAndGlyphs"
text-anchor="middle" opacity="0" stroke-opacity="0">2</text>
<g class="stroked-text"><desc>2</desc>
<path d="M2.7106 7.4378
L2.7710 7.3773
" />
<path d="M2.7710 7.3773
L2.8920 7.3168
" />
<path d="M2.8920 7.3168
L3.1944 7.3168
" />
<path d="M3.1944 7.3168
L3.3153 7.3773
" />
<path d="M3.3153 7.3773
L3.3758 7.4378
" />
<path d="M3.3758 7.4378
L3.4363 7.5587
" />
<path d="M3.4363 7.5587
L3.4363 7.6797
" />
<path d="M3.4363 7.6797
L3.3758 7.8611
" />
<path d="M3.3758 7.8611
L2.6501 8.5868
" />
<path d="M2.6501 8.5868
L3.4363 8.5868
" />
</g><path d="M4.3434 11.6459
L1.8034 11.6459
" />
<text x="5.3594" y="12.2809"
textLength="2.8037" font-size="1.6933" lengthAdjust="spacingAndGlyphs"
text-anchor="start" opacity="0" stroke-opacity="0">DO</text>
<g class="stroked-text"><desc>DO</desc>
<path d="M5.7619 12.2254
L5.7619 10.9554
" />
<path d="M5.7619 10.9554
L6.0643 10.9554
" />
<path d="M6.0643 10.9554
L6.2457 11.0159
" />
<path d="M6.2457 11.0159
L6.3667 11.1369
" />
<path d="M6.3667 11.1369
L6.4272 11.2578
" />
<path d="M6.4272 11.2578
L6.4876 11.4997
" />
<path d="M6.4876 11.4997
L6.4876 11.6811
" />
<path d="M6.4876 11.6811
L6.4272 11.9230
" />
<path d="M6.4272 11.9230
L6.3667 12.0440
" />
<path d="M6.3667 12.0440
L6.2457 12.1650
" />
<path d="M6.2457 12.1650
L6.0643 12.2254
" />
<path d="M6.0643 12.2254
L5.7619 12.2254
" />
<path d="M7.2738 10.9554
L7.5157 10.9554
" />
<path d="M7.5157 10.9554
L7.6367 11.0159
" />
<path d="M7.6367 11.0159
L7.7576 11.1369
" />
<path d="M7.7576 11.1369
L7.8181 11.3788
" />
<path d="M7.8181 11.3788
L7.8181 11.8021
" />
<path d="M7.8181 11.8021
L7.7576 12.0440
" />
<path d="M7.7576 12.0440
L7.6367 12.1650
" />
<path d="M7.6367 12.1650
L7.5157 12.2254
" />
<path d="M7.5157 12.2254
L7.2738 12.2254
" />
<path d="M7.2738 12.2254
L7.1529 12.1650
" />
<path d="M7.1529 12.1650
L7.0319 12.0440
" />
<path d="M7.0319 12.0440
L6.9715 11.8021
" />
<path d="M6.9715 11.8021
L6.9715 11.3788
" />
<path d="M6.9715 11.3788
L7.0319 11.1369
" />
<path d="M7.0319 11.1369
L7.1529 11.0159
" />
<path d="M7.1529 11.0159
L7.2738 10.9554
" />
</g><text x="3.0734" y="11.2903"
textLength="1.4127" font-size="1.6933" lengthAdjust="spacingAndGlyphs"
text-anchor="middle" opacity="0" stroke-opacity="0">3</text>
<g class="stroked-text"><desc>3</desc>
<path d="M2.6501 9.8568
L3.4363 9.8568
" />
<path d="M3.4363 9.8568
L3.0129 10.3406
" />
<path d="M3.0129 10.3406
L3.1944 10.3406
" />
<path d="M3.1944 10.3406
L3.3153 10.4011
" />
<path d="M3.3153 10.4011
L3.3758 10.4616
" />
<path d="M3.3758 10.4616
L3.4363 10.5825
" />
<path d="M3.4363 10.5825
L3.4363 10.8849
" />
<path d="M3.4363 10.8849
L3.3758 11.0059
" />
<path d="M3.3758 11.0059
L3.3153 11.0664
" />
<path d="M3.3153 11.0664
L3.1944 11.1268
" />
<path d="M3.1944 11.1268
L2.8315 11.1268
" />
<path d="M2.8315 11.1268
L2.7106 11.0664
" />
<path d="M2.7106 11.0664
L2.6501 11.0059
" />
</g><path d="M4.3434 14.1859
L1.8034 14.1859
" />
<text x="5.3594" y="14.8209"
textLength="2.6223" font-size="1.6933" lengthAdjust="spacingAndGlyphs"
text-anchor="start" opacity="0" stroke-opacity="0">AO</text>
<g class="stroked-text"><desc>AO</desc>
<path d="M5.7015 14.4026
L6.3062 14.4026
" />
<path d="M5.5805 14.7654
L6.0038 13.4954
" />
<path d="M6.0038 13.4954
L6.4272 14.7654
" />
<path d="M7.0924 13.4954
L7.3343 13.4954
" />
<path d="M7.3343 13.4954
L7.4553 13.5559
" />
<path d="M7.4553 13.5559
L7.5762 13.6769
" />
<path d="M7.5762 13.6769
L7.6367 13.9188
" />
<path d="M7.6367 13.9188
L7.6367 14.3421
" />
<path d="M7.6367 14.3421
L7.5762 14.5840
" />
<path d="M7.5762 14.5840
L7.4553 14.7050
" />
<path d="M7.4553 14.7050
L7.3343 14.7654
" />
<path d="M7.3343 14.7654
L7.0924 14.7654
" />
<path d="M7.0924 14.7654
L6.9715 14.7050
" />
<path d="M6.9715 14.7050
L6.8505 14.5840
" />
<path d="M6.8505 14.5840
L6.7901 14.3421
" />
<path d="M6.7901 14.3421
L6.7901 13.9188
" />
<path d="M6.7901 13.9188
L6.8505 13.6769
" />
<path d="M6.8505 13.6769
L6.9715 13.5559
" />
<path d="M6.9715 13.5559
L7.0924 13.4954
" />
</g><text x="3.0734" y="13.8303"
textLength="1.4127" font-size="1.6933" lengthAdjust="spacingAndGlyphs"
text-anchor="middle" opacity="0" stroke-opacity="0">4</text>
<g class="stroked-text"><desc>4</desc>
<path d="M3.3153 12.8202
L3.3153 13.6668
" />
<path d="M3.0129 12.3364
L2.7106 13.2435
" />
<path d="M2.7106 13.2435
L3.4967 13.2435
" />
</g><text x="8.1534" y="3.3909"
textLength="2.6223" font-size="1.6933" lengthAdjust="spacingAndGlyphs"
text-anchor="middle" opacity="0" stroke-opacity="0">U?</text>
<g class="stroked-text"><desc>U?</desc>
<path d="M7.2462 2.0654
L7.2462 3.0935
" />
<path d="M7.2462 3.0935
L7.3067 3.2145
" />
<path d="M7.3067 3.2145
L7.3672 3.2750
" />
<path d="M7.3672 3.2750
L7.4881 3.3354
" />
<path d="M7.4881 3.3354
L7.7300 3.3354
" />
<path d="M7.7300 3.3354
L7.8510 3.2750
" />
<path d="M7.8510 3.2750
L7.9115 3.2145
" />
<path d="M7.9115 3.2145
L7.9719 3.0935
" />
<path d="M7.9719 3.0935
L7.9719 2.0654
" />
<path d="M8.7582 3.2145
L8.8186 3.2750
" />
<path d="M8.8186 3.2750
L8.7582 3.3354
" />
<path d="M8.7582 3.3354
L8.6977 3.2750
" />
<path d="M8.6977 3.2750
L8.7582 3.2145
" />
<path d="M8.7582 3.2145
L8.7582 3.3354
" />
<path d="M8.5163 2.1259
L8.6372 2.0654
" />
<path d="M8.6372 2.0654
L8.9396 2.0654
" />
<path d="M8.9396 2.0654
L9.0605 2.1259
" />
<path d="M9.0605 2.1259
L9.1210 2.2469
" />
<path d="M9.1210 2.2469
L9.1210 2.3678
" />
<path d="M9.1210 2.3678
L9.0605 2.4888
" />
<path d="M9.0605 2.4888
L9.0001 2.5492
" />
<path d="M9.0001 2.5492
L8.8791 2.6097
" />
<path d="M8.8791 2.6097
L8.8186 2.6702
" />
<path d="M8.8186 2.6702
L8.7582 2.7911
" />
<path d="M8.7582 2.7911
L8.7582 2.8516
" />
</g><text x="8.1534" y="18.6309"
textLength="13.5683" font-size="1.6933" lengthAdjust="spacingAndGlyphs"
text-anchor="middle" opacity="0" stroke-opacity="0">Hdr_Flame_4P</text>
<g class="stroked-text"><desc>Hdr_Flame_4P</desc>
<path d="M1.7732 18.5754
L1.7732 17.3054
" />
<path d="M1.7732 17.9102
L2.4989 17.9102
" />
<path d="M2.4989 18.5754
L2.4989 17.3054
" />
<path d="M3.6480 18.5754
L3.6480 17.3054
" />
<path d="M3.6480 18.5150
L3.5271 18.5754
" />
<path d="M3.5271 18.5754
L3.2852 18.5754
" />
<path d="M3.2852 18.5754
L3.1642 18.5150
" />
<path d="M3.1642 18.5150
L3.1037 18.4545
" />
<path d="M3.1037 18.4545
L3.0433 18.3335
" />
<path d="M3.0433 18.3335
L3.0433 17.9707
" />
<path d="M3.0433 17.9707
L3.1037 17.8497
" />
<path d="M3.1037 17.8497
L3.1642 17.7892
" />
<path d="M3.1642 17.7892
L3.2852 17.7288
" />
<path d="M3.2852 17.7288
L3.5271 17.7288
" />
<path d="M3.5271 17.7288
L3.6480 17.7892
" />
<path d="M4.2527 18.5754
L4.2527 17.7288
" />
<path d="M4.2527 17.9707
L4.3132 17.8497
" />
<path d="M4.3132 17.8497
L4.3737 17.7892
" />
<path d="M4.3737 17.7892
L4.4946 17.7288
" />
<path d="M4.4946 17.7288
L4.6156 17.7288
" />
<path d="M4.7366 18.6964
L5.7042 18.6964
" />
<path d="M6.4299 17.9102
L6.0065 17.9102
" />
<path d="M6.0065 18.5754
L6.0065 17.3054
" />
<path d="M6.0065 17.3054
L6.6113 17.3054
" />
<path d="M7.2766 18.5754
L7.1556 18.5150
" />
<path d="M7.1556 18.5150
L7.0951 18.3940
" />
<path d="M7.0951 18.3940
L7.0951 17.3054
" />
<path d="M8.3046 18.5754
L8.3046 17.9102
" />
<path d="M8.3046 17.9102
L8.2441 17.7892
" />
<path d="M8.2441 17.7892
L8.1232 17.7288
" />
<path d="M8.1232 17.7288
L7.8813 17.7288
" />
<path d="M7.8813 17.7288
L7.7603 17.7892
" />
<path d="M8.3046 18.5150
L8.1837 18.5754
" />
<path d="M8.1837 18.5754
L7.8813 18.5754
" />
<path d="M7.8813 18.5754
L7.7603 18.5150
" />
<path d="M7.7603 18.5150
L7.6999 18.3940
" />
<path d="M7.6999 18.3940
L7.6999 18.2730
" />
<path d="M7.6999 18.2730
L7.7603 18.1521
" />
<path d="M7.7603 18.1521
L7.8813 18.0916
" />
<path d="M7.8813 18.0916
L8.1837 18.0916
" />
<path d="M8.1837 18.0916
L8.3046 18.0311
" />
<path d="M8.9093 18.5754
L8.9093 17.7288
" />
<path d="M8.9093 17.8497
L8.9698 17.7892
" />
<path d="M8.9698 17.7892
L9.0908 17.7288
" />
<path d="M9.0908 17.7288
L9.2722 17.7288
" />
<path d="M9.2722 17.7288
L9.3931 17.7892
" />
<path d="M9.3931 17.7892
L9.4536 17.9102
" />
<path d="M9.4536 17.9102
L9.4536 18.5754
" />
<path d="M9.4536 17.9102
L9.5141 17.7892
" />
<path d="M9.5141 17.7892
L9.6350 17.7288
" />
<path d="M9.6350 17.7288
L9.8165 17.7288
" />
<path d="M9.8165 17.7288
L9.9374 17.7892
" />
<path d="M9.9374 17.7892
L9.9979 17.9102
" />
<path d="M9.9979 17.9102
L9.9979 18.5754
" />
<path d="M11.0864 18.5150
L10.9655 18.5754
" />
<path d="M10.9655 18.5754
L10.7236 18.5754
" />
<path d="M10.7236 18.5754
L10.6026 18.5150
" />
<path d="M10.6026 18.5150
L10.5422 18.3940
" />
<path d="M10.5422 18.3940
L10.5422 17.9102
" />
<path d="M10.5422 17.9102
L10.6026 17.7892
" />
<path d="M10.6026 17.7892
L10.7236 17.7288
" />
<path d="M10.7236 17.7288
L10.9655 17.7288
" />
<path d="M10.9655 17.7288
L11.0864 17.7892
" />
<path d="M11.0864 17.7892
L11.1469 17.9102
" />
<path d="M11.1469 17.9102
L11.1469 18.0311
" />
<path d="M11.1469 18.0311
L10.5422 18.1521
" />
<path d="M11.3889 18.6964
L12.3565 18.6964
" />
<path d="M13.2031 17.7288
L13.2031 18.5754
" />
<path d="M12.9007 17.2450
L12.5984 18.1521
" />
<path d="M12.5984 18.1521
L13.3845 18.1521
" />
<path d="M13.8683 18.5754
L13.8683 17.3054
" />
<path d="M13.8683 17.3054
L14.3521 17.3054
" />
<path d="M14.3521 17.3054
L14.4731 17.3659
" />
<path d="M14.4731 17.3659
L14.5336 17.4264
" />
<path d="M14.5336 17.4264
L14.5940 17.5473
" />
<path d="M14.5940 17.5473
L14.5940 17.7288
" />
<path d="M14.5940 17.7288
L14.5336 17.8497
" />
<path d="M14.5336 17.8497
L14.4731 17.9102
" />
<path d="M14.4731 17.9102
L14.3521 17.9707
" />
<path d="M14.3521 17.9707
L13.8683 17.9707
" />
</g></g> 
</svg>
