<?xml version="1.0" standalone="no"?>
 <!DOCTYPE svg PUBLIC "-//W3C//DTD SVG 1.1//EN" 
 "http://www.w3.org/Graphics/SVG/1.1/DTD/svg11.dtd"> 
<svg
  xmlns:svg="http://www.w3.org/2000/svg"
  xmlns="http://www.w3.org/2000/svg"
  xmlns:xlink="http://www.w3.org/1999/xlink"
  xmlns:inkscape="http://www.inkscape.org/namespaces/inkscape"
  version="1.1"
  width="16.8910mm" height="20.7518mm" viewBox="0.0000 0.0000 16.8910 20.7518">
<title>SVG Image created as Hdr_HX711_4P_unit1.svg date 2026-10-02T01:34:47 </title>
  <desc>Image generated by Eeschema-SVG </desc>
<g style="fill:#000000; fill-opacity:1.0000;stroke:#000000; stroke-opacity:1.0000;
stroke-linecap:round; stroke-linejoin:round;"
 transform="translate(0 0) scale(1 1)">
</g>
<g style="fill:none; 
stroke:#000000; stroke-width:0.2540; stroke-opacity:1; 
stroke-linecap:round; stroke-linejoin:round;">
<rect x="4.635500" y="4.025900" width="7.620000" height="12.700000" rx="0.000000" />
</g>
<g style="fill:none; 
stroke:#000000; stroke-width:0.1524; stroke-opacity:1; 
stroke-linecap:round; stroke-linejoin:round;">
<path d="M4.6355 6.5659
L2.0955 6.5659
" />
<text x="5.6515" y="7.2009"
textLength="4.0737" font-size="1.6933" lengthAdjust="spacingAndGlyphs"
text-anchor="start" opacity="0" stroke-opacity="0">GND</text>
<g class="stroked-text"><desc>GND</desc>
<path d="M6.7193 5.9359
L6.5983 5.8754
" />
<path d="M6.5983 5.8754
L6.4169 5.8754
" />
<path d="M6.4169 5.8754
L6.2355 5.9359
" />
<path d="M6.2355 5.9359
L6.1145 6.0569
" />
<path d="M6.1145 6.0569
L6.0540 6.1778
" />
<path d="M6.0540 6.1778
L5.9936 6.4197
" />
<path d="M5.9936 6.4197
L5.9936 6.6011
" />
<path d="M5.9936 6.6011
L6.0540 6.8430
" />
<path d="M6.0540 6.8430
L6.1145 6.9640
" />
<path d="M6.1145 6.9640
L6.2355 7.0850
" />
<path d="M6.2355 7.0850
L6.4169 7.1454
" />
<path d="M6.4169 7.1454
L6.5378 7.1454
" />
<path d="M6.5378 7.1454
L6.7193 7.0850
" />
<path d="M6.7193 7.0850
L6.7797 7.0245
" />
<path d="M6.7797 7.0245
L6.7797 6.6011
" />
<path d="M6.7797 6.6011
L6.5378 6.6011
" />
<path d="M7.3240 7.1454
L7.3240 5.8754
" />
<path d="M7.3240 5.8754
L8.0497 7.1454
" />
<path d="M8.0497 7.1454
L8.0497 5.8754
" />
<path d="M8.6545 7.1454
L8.6545 5.8754
" />
<path d="M8.6545 5.8754
L8.9569 5.8754
" />
<path d="M8.9569 5.8754
L9.1383 5.9359
" />
<path d="M9.1383 5.9359
L9.2593 6.0569
" />
<path d="M9.2593 6.0569
L9.3198 6.1778
" />
<path d="M9.3198 6.1778
L9.3802 6.4197
" />
<path d="M9.3802 6.4197
L9.3802 6.6011
" />
<path d="M9.3802 6.6011
L9.3198 6.8430
" />
<path d="M9.3198 6.8430
L9.2593 6.9640
" />
<path d="M9.2593 6.9640
L9.1383 7.0850
" />
<path d="M9.1383 7.0850
L8.9569 7.1454
" />
<path d="M8.9569 7.1454
L8.6545 7.1454
" />
</g><text x="3.3655" y="6.2103"
textLength="1.4127" font-size="1.6933" lengthAdjust="spacingAndGlyphs"
text-anchor="middle" opacity="0" stroke-opacity="0">1</text>
<g class="stroked-text"><desc>1</desc>
<path d="M3.7284 6.0468
L3.0027 6.0468
" />
<path d="M3.3655 6.0468
L3.3655 4.7768
" />
<path d="M3.3655 4.7768
L3.2446 4.9583
" />
<path d="M3.2446 4.9583
L3.1236 5.0792
" />
<path d="M3.1236 5.0792
L3.0027 5.1397
" />
</g><path d="M4.6355 9.1059
L2.0955 9.1059
" />
<text x="5.6515" y="9.7409"
textLength="2.4408" font-size="1.6933" lengthAdjust="spacingAndGlyphs"
text-anchor="start" opacity="0" stroke-opacity="0">DT</text>
<g class="stroked-text"><desc>DT</desc>
<path d="M6.0540 9.6854
L6.0540 8.4154
" />
<path d="M6.0540 8.4154
L6.3564 8.4154
" />
<path d="M6.3564 8.4154
L6.5378 8.4759
" />
<path d="M6.5378 8.4759
L6.6588 8.5969
" />
<path d="M6.6588 8.5969
L6.7193 8.7178
" />
<path d="M6.7193 8.7178
L6.7797 8.9597
" />
<path d="M6.7797 8.9597
L6.7797 9.1411
" />
<path d="M6.7797 9.1411
L6.7193 9.3830
" />
<path d="M6.7193 9.3830
L6.6588 9.5040
" />
<path d="M6.6588 9.5040
L6.5378 9.6250
" />
<path d="M6.5378 9.6250
L6.3564 9.6854
" />
<path d="M6.3564 9.6854
L6.0540 9.6854
" />
<path d="M7.1426 8.4154
L7.8683 8.4154
" />
<path d="M7.5055 9.6854
L7.5055 8.4154
" />
</g><text x="3.3655" y="8.7503"
textLength="1.4127" font-size="1.6933" lengthAdjust="spacingAndGlyphs"
text-anchor="middle" opacity="0" stroke-opacity="0">2</text>
<g class="stroked-text"><desc>2</desc>
<path d="M3.0027 7.4378
L3.0631 7.3773
" />
<path d="M3.0631 7.3773
L3.1841 7.3168
" />
<path d="M3.1841 7.3168
L3.4865 7.3168
" />
<path d="M3.4865 7.3168
L3.6074 7.3773
" />
<path d="M3.6074 7.3773
L3.6679 7.4378
" />
<path d="M3.6679 7.4378
L3.7284 7.5587
" />
<path d="M3.7284 7.5587
L3.7284 7.6797
" />
<path d="M3.7284 7.6797
L3.6679 7.8611
" />
<path d="M3.6679 7.8611
L2.9422 8.5868
" />
<path d="M2.9422 8.5868
L3.7284 8.5868
" />
</g><path d="M4.6355 11.6459
L2.0955 11.6459
" />
<text x="5.6515" y="12.2809"
textLength="3.9527" font-size="1.6933" lengthAdjust="spacingAndGlyphs"
text-anchor="start" opacity="0" stroke-opacity="0">SCK</text>
<g class="stroked-text"><desc>SCK</desc>
<path d="M5.9936 12.1650
L6.1750 12.2254
" />
<path d="M6.1750 12.2254
L6.4774 12.2254
" />
<path d="M6.4774 12.2254
L6.5983 12.1650
" />
<path d="M6.5983 12.1650
L6.6588 12.1045
" />
<path d="M6.6588 12.1045
L6.7193 11.9835
" />
<path d="M6.7193 11.9835
L6.7193 11.8626
" />
<path d="M6.7193 11.8626
L6.6588 11.7416
" />
<path d="M6.6588 11.7416
L6.5983 11.6811
" />
<path d="M6.5983 11.6811
L6.4774 11.6207
" />
<path d="M6.4774 11.6207
L6.2355 11.5602
" />
<path d="M6.2355 11.5602
L6.1145 11.4997
" />
<path d="M6.1145 11.4997
L6.0540 11.4392
" />
<path d="M6.0540 11.4392
L5.9936 11.3183
" />
<path d="M5.9936 11.3183
L5.9936 11.1973
" />
<path d="M5.9936 11.1973
L6.0540 11.0764
" />
<path d="M6.0540 11.0764
L6.1145 11.0159
" />
<path d="M6.1145 11.0159
L6.2355 10.9554
" />
<path d="M6.2355 10.9554
L6.5378 10.9554
" />
<path d="M6.5378 10.9554
L6.7193 11.0159
" />
<path d="M7.9892 12.1045
L7.9288 12.1650
" />
<path d="M7.9288 12.1650
L7.7473 12.2254
" />
<path d="M7.7473 12.2254
L7.6264 12.2254
" />
<path d="M7.6264 12.2254
L7.4450 12.1650
" />
<path d="M7.4450 12.1650
L7.3240 12.0440
" />
<path d="M7.3240 12.0440
L7.2635 11.9230
" />
<path d="M7.2635 11.9230
L7.2031 11.6811
" />
<path d="M7.2031 11.6811
L7.2031 11.4997
" />
<path d="M7.2031 11.4997
L7.2635 11.2578
" />
<path d="M7.2635 11.2578
L7.3240 11.1369
" />
<path d="M7.3240 11.1369
L7.4450 11.0159
" />
<path d="M7.4450 11.0159
L7.6264 10.9554
" />
<path d="M7.6264 10.9554
L7.7473 10.9554
" />
<path d="M7.7473 10.9554
L7.9288 11.0159
" />
<path d="M7.9288 11.0159
L7.9892 11.0764
" />
<path d="M8.5335 12.2254
L8.5335 10.9554
" />
<path d="M9.2592 12.2254
L8.7150 11.4997
" />
<path d="M9.2592 10.9554
L8.5335 11.6811
" />
</g><text x="3.3655" y="11.2903"
textLength="1.4127" font-size="1.6933" lengthAdjust="spacingAndGlyphs"
text-anchor="middle" opacity="0" stroke-opacity="0">3</text>
<g class="stroked-text"><desc>3</desc>
<path d="M2.9422 9.8568
L3.7284 9.8568
" />
<path d="M3.7284 9.8568
L3.3050 10.3406
" />
<path d="M3.3050 10.3406
L3.4865 10.3406
" />
<path d="M3.4865 10.3406
L3.6074 10.4011
" />
<path d="M3.6074 10.4011
L3.6679 10.4616
" />
<path d="M3.6679 10.4616
L3.7284 10.5825
" />
<path d="M3.7284 10.5825
L3.7284 10.8849
" />
<path d="M3.7284 10.8849
L3.6679 11.0059
" />
<path d="M3.6679 11.0059
L3.6074 11.0664
" />
<path d="M3.6074 11.0664
L3.4865 11.1268
" />
<path d="M3.4865 11.1268
L3.1236 11.1268
" />
<path d="M3.1236 11.1268
L3.0027 11.0664
" />
<path d="M3.0027 11.0664
L2.9422 11.0059
" />
</g><path d="M4.6355 14.1859
L2.0955 14.1859
" />
<text x="5.6515" y="14.8209"
textLength="3.8318" font-size="1.6933" lengthAdjust="spacingAndGlyphs"
text-anchor="start" opacity="0" stroke-opacity="0">VCC</text>
<g class="stroked-text"><desc>VCC</desc>
<path d="M5.8726 13.4954
L6.2959 14.7654
" />
<path d="M6.2959 14.7654
L6.7193 13.4954
" />
<path d="M7.8683 14.6445
L7.8079 14.7050
" />
<path d="M7.8079 14.7050
L7.6264 14.7654
" />
<path d="M7.6264 14.7654
L7.5055 14.7654
" />
<path d="M7.5055 14.7654
L7.3241 14.7050
" />
<path d="M7.3241 14.7050
L7.2031 14.5840
" />
<path d="M7.2031 14.5840
L7.1426 14.4630
" />
<path d="M7.1426 14.4630
L7.0822 14.2211
" />
<path d="M7.0822 14.2211
L7.0822 14.0397
" />
<path d="M7.0822 14.0397
L7.1426 13.7978
" />
<path d="M7.1426 13.7978
L7.2031 13.6769
" />
<path d="M7.2031 13.6769
L7.3241 13.5559
" />
<path d="M7.3241 13.5559
L7.5055 13.4954
" />
<path d="M7.5055 13.4954
L7.6264 13.4954
" />
<path d="M7.6264 13.4954
L7.8079 13.5559
" />
<path d="M7.8079 13.5559
L7.8683 13.6164
" />
<path d="M9.1383 14.6445
L9.0779 14.7050
" />
<path d="M9.0779 14.7050
L8.8964 14.7654
" />
<path d="M8.8964 14.7654
L8.7755 14.7654
" />
<path d="M8.7755 14.7654
L8.5941 14.7050
" />
<path d="M8.5941 14.7050
L8.4731 14.5840
" />
<path d="M8.4731 14.5840
L8.4126 14.4630
" />
<path d="M8.4126 14.4630
L8.3522 14.2211
" />
<path d="M8.3522 14.2211
L8.3522 14.0397
" />
<path d="M8.3522 14.0397
L8.4126 13.7978
" />
<path d="M8.4126 13.7978
L8.4731 13.6769
" />
<path d="M8.4731 13.6769
L8.5941 13.5559
" />
<path d="M8.5941 13.5559
L8.7755 13.4954
" />
<path d="M8.7755 13.4954
L8.8964 13.4954
" />
<path d="M8.8964 13.4954
L9.0779 13.5559
" />
<path d="M9.0779 13.5559
L9.1383 13.6164
" />
</g><text x="3.3655" y="13.8303"
textLength="1.4127" font-size="1.6933" lengthAdjust="spacingAndGlyphs"
text-anchor="middle" opacity="0" stroke-opacity="0">4</text>
<g class="stroked-text"><desc>4</desc>
<path d="M3.6074 12.8202
L3.6074 13.6668
" />
<path d="M3.3050 12.3364
L3.0027 13.2435
" />
<path d="M3.0027 13.2435
L3.7888 13.2435
" />
</g><text x="8.4455" y="3.3909"
textLength="2.6223" font-size="1.6933" lengthAdjust="spacingAndGlyphs"
text-anchor="middle" opacity="0" stroke-opacity="0">U?</text>
<g class="stroked-text"><desc>U?</desc>
<path d="M7.5383 2.0654
L7.5383 3.0935
" />
<path d="M7.5383 3.0935
L7.5988 3.2145
" />
<path d="M7.5988 3.2145
L7.6593 3.2750
" />
<path d="M7.6593 3.2750
L7.7802 3.3354
" />
<path d="M7.7802 3.3354
L8.0221 3.3354
" />
<path d="M8.0221 3.3354
L8.1431 3.2750
" />
<path d="M8.1431 3.2750
L8.2036 3.2145
" />
<path d="M8.2036 3.2145
L8.2640 3.0935
" />
<path d="M8.2640 3.0935
L8.2640 2.0654
" />
<path d="M9.0503 3.2145
L9.1107 3.2750
" />
<path d="M9.1107 3.2750
L9.0503 3.3354
" />
<path d="M9.0503 3.3354
L8.9898 3.2750
" />
<path d="M8.9898 3.2750
L9.0503 3.2145
" />
<path d="M9.0503 3.2145
L9.0503 3.3354
" />
<path d="M8.8084 2.1259
L8.9293 2.0654
" />
<path d="M8.9293 2.0654
L9.2317 2.0654
" />
<path d="M9.2317 2.0654
L9.3526 2.1259
" />
<path d="M9.3526 2.1259
L9.4131 2.2469
" />
<path d="M9.4131 2.2469
L9.4131 2.3678
" />
<path d="M9.4131 2.3678
L9.3526 2.4888
" />
<path d="M9.3526 2.4888
L9.2922 2.5492
" />
<path d="M9.2922 2.5492
L9.1712 2.6097
" />
<path d="M9.1712 2.6097
L9.1107 2.6702
" />
<path d="M9.1107 2.6702
L9.0503 2.7911
" />
<path d="M9.0503 2.7911
L9.0503 2.8516
" />
</g><text x="8.4455" y="18.6309"
textLength="14.0521" font-size="1.6933" lengthAdjust="spacingAndGlyphs"
text-anchor="middle" opacity="0" stroke-opacity="0">Hdr_HX711_4P</text>
<g class="stroked-text"><desc>Hdr_HX711_4P</desc>
<path d="M1.8234 18.5754
L1.8234 17.3054
" />
<path d="M1.8234 17.9102
L2.5491 17.9102
" />
<path d="M2.5491 18.5754
L2.5491 17.3054
" />
<path d="M3.6982 18.5754
L3.6982 17.3054
" />
<path d="M3.6982 18.5150
L3.5773 18.5754
" />
<path d="M3.5773 18.5754
L3.3354 18.5754
" />
<path d="M3.3354 18.5754
L3.2144 18.5150
" />
<path d="M3.2144 18.5150
L3.1539 18.4545
" />
<path d="M3.1539 18.4545
L3.0935 18.3335
" />
<path d="M3.0935 18.3335
L3.0935 17.9707
" />
<path d="M3.0935 17.9707
L3.1539 17.8497
" />
<path d="M3.1539 17.8497
L3.2144 17.7892
" />
<path d="M3.2144 17.7892
L3.3354 17.7288
" />
<path d="M3.3354 17.7288
L3.5773 17.7288
" />
<path d="M3.5773 17.7288
L3.6982 17.7892
" />
<path d="M4.3029 18.5754
L4.3029 17.7288
" />
<path d="M4.3029 17.9707
L4.3634 17.8497
" />
<path d="M4.3634 17.8497
L4.4239 17.7892
" />
<path d="M4.4239 17.7892
L4.5448 17.7288
" />
<path d="M4.5448 17.7288
L4.6658 17.7288
" />
<path d="M4.7868 18.6964
L5.7544 18.6964
" />
<path d="M6.0567 18.5754
L6.0567 17.3054
" />
<path d="M6.0567 17.9102
L6.7824 17.9102
" />
<path d="M6.7824 18.5754
L6.7824 17.3054
" />
<path d="M7.2663 17.3054
L8.1129 18.5754
" />
<path d="M8.1129 17.3054
L7.2663 18.5754
" />
<path d="M8.4758 17.3054
L9.3224 17.3054
" />
<path d="M9.3224 17.3054
L8.7782 18.5754
" />
<path d="M10.4715 18.5754
L9.7458 18.5754
" />
<path d="M10.1086 18.5754
L10.1086 17.3054
" />
<path d="M10.1086 17.3054
L9.9877 17.4869
" />
<path d="M9.9877 17.4869
L9.8667 17.6078
" />
<path d="M9.8667 17.6078
L9.7458 17.6683
" />
<path d="M11.6810 18.5754
L10.9553 18.5754
" />
<path d="M11.3181 18.5754
L11.3181 17.3054
" />
<path d="M11.3181 17.3054
L11.1972 17.4869
" />
<path d="M11.1972 17.4869
L11.0762 17.6078
" />
<path d="M11.0762 17.6078
L10.9553 17.6683
" />
<path d="M11.9229 18.6964
L12.8905 18.6964
" />
<path d="M13.7371 17.7288
L13.7371 18.5754
" />
<path d="M13.4347 17.2450
L13.1324 18.1521
" />
<path d="M13.1324 18.1521
L13.9185 18.1521
" />
<path d="M14.4023 18.5754
L14.4023 17.3054
" />
<path d="M14.4023 17.3054
L14.8861 17.3054
" />
<path d="M14.8861 17.3054
L15.0071 17.3659
" />
<path d="M15.0071 17.3659
L15.0676 17.4264
" />
<path d="M15.0676 17.4264
L15.1280 17.5473
" />
<path d="M15.1280 17.5473
L15.1280 17.7288
" />
<path d="M15.1280 17.7288
L15.0676 17.8497
" />
<path d="M15.0676 17.8497
L15.0071 17.9102
" />
<path d="M15.0071 17.9102
L14.8861 17.9707
" />
<path d="M14.8861 17.9707
L14.4023 17.9707
" />
</g></g> 
</svg>
