<?xml version="1.0" standalone="no"?>
 <!DOCTYPE svg PUBLIC "-//W3C//DTD SVG 1.1//EN" 
 "http://www.w3.org/Graphics/SVG/1.1/DTD/svg11.dtd"> 
<svg
  xmlns:svg="http://www.w3.org/2000/svg"
  xmlns="http://www.w3.org/2000/svg"
  xmlns:xlink="http://www.w3.org/1999/xlink"
  xmlns:inkscape="http://www.inkscape.org/namespaces/inkscape"
  version="1.1"
  width="19.6342mm" height="26.8478mm" viewBox="0.0000 0.0000 19.6342 26.8478">
<title>SVG Image created as Hdr_DRV8833_6P_unit1.svg date 2026-10-02T01:34:58 </title>
  <desc>Image generated by Eeschema-SVG </desc>
<g style="fill:#000000; fill-opacity:1.0000;stroke:#000000; stroke-opacity:1.0000;
stroke-linecap:round; stroke-linejoin:round;"
 transform="translate(0 0) scale(1 1)">
</g>
<g style="fill:none; 
stroke:#000000; stroke-width:0.2540; stroke-opacity:1; 
stroke-linecap:round; stroke-linejoin:round;">
<rect x="6.007100" y="4.533900" width="7.620000" height="17.780000" rx="0.000000" />
</g>
<g style="fill:none; 
stroke:#000000; stroke-width:0.1524; stroke-opacity:1; 
stroke-linecap:round; stroke-linejoin:round;">
<path d="M6.0071 7.0739
L3.4671 7.0739
" />
<text x="7.0231" y="7.7089"
textLength="3.3480" font-size="1.6933" lengthAdjust="spacingAndGlyphs"
text-anchor="start" opacity="0" stroke-opacity="0">IN1</text>
<g class="stroked-text"><desc>IN1</desc>
<path d="M7.4256 7.6534
L7.4256 6.3834
" />
<path d="M8.0304 7.6534
L8.0304 6.3834
" />
<path d="M8.0304 6.3834
L8.7561 7.6534
" />
<path d="M8.7561 7.6534
L8.7561 6.3834
" />
<path d="M10.0262 7.6534
L9.3005 7.6534
" />
<path d="M9.6633 7.6534
L9.6633 6.3834
" />
<path d="M9.6633 6.3834
L9.5424 6.5649
" />
<path d="M9.5424 6.5649
L9.4214 6.6858
" />
<path d="M9.4214 6.6858
L9.3005 6.7463
" />
</g><text x="4.7371" y="6.7183"
textLength="1.4127" font-size="1.6933" lengthAdjust="spacingAndGlyphs"
text-anchor="middle" opacity="0" stroke-opacity="0">1</text>
<g class="stroked-text"><desc>1</desc>
<path d="M5.1000 6.5548
L4.3743 6.5548
" />
<path d="M4.7371 6.5548
L4.7371 5.2848
" />
<path d="M4.7371 5.2848
L4.6162 5.4663
" />
<path d="M4.6162 5.4663
L4.4952 5.5872
" />
<path d="M4.4952 5.5872
L4.3743 5.6477
" />
</g><path d="M6.0071 9.6139
L3.4671 9.6139
" />
<text x="7.0231" y="10.2489"
textLength="3.3480" font-size="1.6933" lengthAdjust="spacingAndGlyphs"
text-anchor="start" opacity="0" stroke-opacity="0">IN2</text>
<g class="stroked-text"><desc>IN2</desc>
<path d="M7.4256 10.1934
L7.4256 8.9234
" />
<path d="M8.0304 10.1934
L8.0304 8.9234
" />
<path d="M8.0304 8.9234
L8.7561 10.1934
" />
<path d="M8.7561 10.1934
L8.7561 8.9234
" />
<path d="M9.3005 9.0444
L9.3609 8.9839
" />
<path d="M9.3609 8.9839
L9.4819 8.9234
" />
<path d="M9.4819 8.9234
L9.7843 8.9234
" />
<path d="M9.7843 8.9234
L9.9052 8.9839
" />
<path d="M9.9052 8.9839
L9.9657 9.0444
" />
<path d="M9.9657 9.0444
L10.0262 9.1653
" />
<path d="M10.0262 9.1653
L10.0262 9.2863
" />
<path d="M10.0262 9.2863
L9.9657 9.4677
" />
<path d="M9.9657 9.4677
L9.2400 10.1934
" />
<path d="M9.2400 10.1934
L10.0262 10.1934
" />
</g><text x="4.7371" y="9.2583"
textLength="1.4127" font-size="1.6933" lengthAdjust="spacingAndGlyphs"
text-anchor="middle" opacity="0" stroke-opacity="0">2</text>
<g class="stroked-text"><desc>2</desc>
<path d="M4.3743 7.9458
L4.4347 7.8853
" />
<path d="M4.4347 7.8853
L4.5557 7.8248
" />
<path d="M4.5557 7.8248
L4.8581 7.8248
" />
<path d="M4.8581 7.8248
L4.9790 7.8853
" />
<path d="M4.9790 7.8853
L5.0395 7.9458
" />
<path d="M5.0395 7.9458
L5.1000 8.0667
" />
<path d="M5.1000 8.0667
L5.1000 8.1877
" />
<path d="M5.1000 8.1877
L5.0395 8.3691
" />
<path d="M5.0395 8.3691
L4.3138 9.0948
" />
<path d="M4.3138 9.0948
L5.1000 9.0948
" />
</g><path d="M6.0071 12.1539
L3.4671 12.1539
" />
<text x="7.0231" y="12.7889"
textLength="3.3480" font-size="1.6933" lengthAdjust="spacingAndGlyphs"
text-anchor="start" opacity="0" stroke-opacity="0">IN3</text>
<g class="stroked-text"><desc>IN3</desc>
<path d="M7.4256 12.7334
L7.4256 11.4634
" />
<path d="M8.0304 12.7334
L8.0304 11.4634
" />
<path d="M8.0304 11.4634
L8.7561 12.7334
" />
<path d="M8.7561 12.7334
L8.7561 11.4634
" />
<path d="M9.2400 11.4634
L10.0262 11.4634
" />
<path d="M10.0262 11.4634
L9.6028 11.9472
" />
<path d="M9.6028 11.9472
L9.7843 11.9472
" />
<path d="M9.7843 11.9472
L9.9052 12.0077
" />
<path d="M9.9052 12.0077
L9.9657 12.0682
" />
<path d="M9.9657 12.0682
L10.0262 12.1891
" />
<path d="M10.0262 12.1891
L10.0262 12.4915
" />
<path d="M10.0262 12.4915
L9.9657 12.6125
" />
<path d="M9.9657 12.6125
L9.9052 12.6730
" />
<path d="M9.9052 12.6730
L9.7843 12.7334
" />
<path d="M9.7843 12.7334
L9.4214 12.7334
" />
<path d="M9.4214 12.7334
L9.3005 12.6730
" />
<path d="M9.3005 12.6730
L9.2400 12.6125
" />
</g><text x="4.7371" y="11.7983"
textLength="1.4127" font-size="1.6933" lengthAdjust="spacingAndGlyphs"
text-anchor="middle" opacity="0" stroke-opacity="0">3</text>
<g class="stroked-text"><desc>3</desc>
<path d="M4.3138 10.3648
L5.1000 10.3648
" />
<path d="M5.1000 10.3648
L4.6766 10.8486
" />
<path d="M4.6766 10.8486
L4.8581 10.8486
" />
<path d="M4.8581 10.8486
L4.9790 10.9091
" />
<path d="M4.9790 10.9091
L5.0395 10.9696
" />
<path d="M5.0395 10.9696
L5.1000 11.0905
" />
<path d="M5.1000 11.0905
L5.1000 11.3929
" />
<path d="M5.1000 11.3929
L5.0395 11.5139
" />
<path d="M5.0395 11.5139
L4.9790 11.5744
" />
<path d="M4.9790 11.5744
L4.8581 11.6348
" />
<path d="M4.8581 11.6348
L4.4952 11.6348
" />
<path d="M4.4952 11.6348
L4.3743 11.5744
" />
<path d="M4.3743 11.5744
L4.3138 11.5139
" />
</g><path d="M6.0071 14.6939
L3.4671 14.6939
" />
<text x="7.0231" y="15.3289"
textLength="3.3480" font-size="1.6933" lengthAdjust="spacingAndGlyphs"
text-anchor="start" opacity="0" stroke-opacity="0">IN4</text>
<g class="stroked-text"><desc>IN4</desc>
<path d="M7.4256 15.2734
L7.4256 14.0034
" />
<path d="M8.0304 15.2734
L8.0304 14.0034
" />
<path d="M8.0304 14.0034
L8.7561 15.2734
" />
<path d="M8.7561 15.2734
L8.7561 14.0034
" />
<path d="M9.9052 14.4268
L9.9052 15.2734
" />
<path d="M9.6028 13.9430
L9.3005 14.8501
" />
<path d="M9.3005 14.8501
L10.0866 14.8501
" />
</g><text x="4.7371" y="14.3383"
textLength="1.4127" font-size="1.6933" lengthAdjust="spacingAndGlyphs"
text-anchor="middle" opacity="0" stroke-opacity="0">4</text>
<g class="stroked-text"><desc>4</desc>
<path d="M4.9790 13.3282
L4.9790 14.1748
" />
<path d="M4.6766 12.8444
L4.3743 13.7515
" />
<path d="M4.3743 13.7515
L5.1604 13.7515
" />
</g><path d="M6.0071 17.2339
L3.4671 17.2339
" />
<text x="7.0231" y="17.8689"
textLength="3.7712" font-size="1.6933" lengthAdjust="spacingAndGlyphs"
text-anchor="start" opacity="0" stroke-opacity="0">EEP</text>
<g class="stroked-text"><desc>EEP</desc>
<path d="M7.4256 17.1482
L7.8490 17.1482
" />
<path d="M8.0304 17.8134
L7.4256 17.8134
" />
<path d="M7.4256 17.8134
L7.4256 16.5434
" />
<path d="M7.4256 16.5434
L8.0304 16.5434
" />
<path d="M8.5746 17.1482
L8.9980 17.1482
" />
<path d="M9.1794 17.8134
L8.5746 17.8134
" />
<path d="M8.5746 17.8134
L8.5746 16.5434
" />
<path d="M8.5746 16.5434
L9.1794 16.5434
" />
<path d="M9.7236 17.8134
L9.7236 16.5434
" />
<path d="M9.7236 16.5434
L10.2074 16.5434
" />
<path d="M10.2074 16.5434
L10.3284 16.6039
" />
<path d="M10.3284 16.6039
L10.3889 16.6644
" />
<path d="M10.3889 16.6644
L10.4493 16.7853
" />
<path d="M10.4493 16.7853
L10.4493 16.9668
" />
<path d="M10.4493 16.9668
L10.3889 17.0877
" />
<path d="M10.3889 17.0877
L10.3284 17.1482
" />
<path d="M10.3284 17.1482
L10.2074 17.2087
" />
<path d="M10.2074 17.2087
L9.7236 17.2087
" />
</g><text x="4.7371" y="16.8783"
textLength="1.4127" font-size="1.6933" lengthAdjust="spacingAndGlyphs"
text-anchor="middle" opacity="0" stroke-opacity="0">5</text>
<g class="stroked-text"><desc>5</desc>
<path d="M5.0395 15.4448
L4.4347 15.4448
" />
<path d="M4.4347 15.4448
L4.3743 16.0496
" />
<path d="M4.3743 16.0496
L4.4347 15.9891
" />
<path d="M4.4347 15.9891
L4.5557 15.9286
" />
<path d="M4.5557 15.9286
L4.8581 15.9286
" />
<path d="M4.8581 15.9286
L4.9790 15.9891
" />
<path d="M4.9790 15.9891
L5.0395 16.0496
" />
<path d="M5.0395 16.0496
L5.1000 16.1705
" />
<path d="M5.1000 16.1705
L5.1000 16.4729
" />
<path d="M5.1000 16.4729
L5.0395 16.5939
" />
<path d="M5.0395 16.5939
L4.9790 16.6544
" />
<path d="M4.9790 16.6544
L4.8581 16.7148
" />
<path d="M4.8581 16.7148
L4.5557 16.7148
" />
<path d="M4.5557 16.7148
L4.4347 16.6544
" />
<path d="M4.4347 16.6544
L4.3743 16.5939
" />
</g><path d="M6.0071 19.7739
L3.4671 19.7739
" />
<text x="7.0231" y="20.4089"
textLength="4.0737" font-size="1.6933" lengthAdjust="spacingAndGlyphs"
text-anchor="start" opacity="0" stroke-opacity="0">GND</text>
<g class="stroked-text"><desc>GND</desc>
<path d="M8.0909 19.1439
L7.9699 19.0834
" />
<path d="M7.9699 19.0834
L7.7885 19.0834
" />
<path d="M7.7885 19.0834
L7.6071 19.1439
" />
<path d="M7.6071 19.1439
L7.4861 19.2649
" />
<path d="M7.4861 19.2649
L7.4256 19.3858
" />
<path d="M7.4256 19.3858
L7.3652 19.6277
" />
<path d="M7.3652 19.6277
L7.3652 19.8091
" />
<path d="M7.3652 19.8091
L7.4256 20.0510
" />
<path d="M7.4256 20.0510
L7.4861 20.1720
" />
<path d="M7.4861 20.1720
L7.6071 20.2930
" />
<path d="M7.6071 20.2930
L7.7885 20.3534
" />
<path d="M7.7885 20.3534
L7.9094 20.3534
" />
<path d="M7.9094 20.3534
L8.0909 20.2930
" />
<path d="M8.0909 20.2930
L8.1513 20.2325
" />
<path d="M8.1513 20.2325
L8.1513 19.8091
" />
<path d="M8.1513 19.8091
L7.9094 19.8091
" />
<path d="M8.6956 20.3534
L8.6956 19.0834
" />
<path d="M8.6956 19.0834
L9.4213 20.3534
" />
<path d="M9.4213 20.3534
L9.4213 19.0834
" />
<path d="M10.0261 20.3534
L10.0261 19.0834
" />
<path d="M10.0261 19.0834
L10.3285 19.0834
" />
<path d="M10.3285 19.0834
L10.5099 19.1439
" />
<path d="M10.5099 19.1439
L10.6309 19.2649
" />
<path d="M10.6309 19.2649
L10.6914 19.3858
" />
<path d="M10.6914 19.3858
L10.7518 19.6277
" />
<path d="M10.7518 19.6277
L10.7518 19.8091
" />
<path d="M10.7518 19.8091
L10.6914 20.0510
" />
<path d="M10.6914 20.0510
L10.6309 20.1720
" />
<path d="M10.6309 20.1720
L10.5099 20.2930
" />
<path d="M10.5099 20.2930
L10.3285 20.3534
" />
<path d="M10.3285 20.3534
L10.0261 20.3534
" />
</g><text x="4.7371" y="19.4183"
textLength="1.4127" font-size="1.6933" lengthAdjust="spacingAndGlyphs"
text-anchor="middle" opacity="0" stroke-opacity="0">6</text>
<g class="stroked-text"><desc>6</desc>
<path d="M4.9790 17.9848
L4.7371 17.9848
" />
<path d="M4.7371 17.9848
L4.6162 18.0453
" />
<path d="M4.6162 18.0453
L4.5557 18.1058
" />
<path d="M4.5557 18.1058
L4.4347 18.2872
" />
<path d="M4.4347 18.2872
L4.3743 18.5291
" />
<path d="M4.3743 18.5291
L4.3743 19.0129
" />
<path d="M4.3743 19.0129
L4.4347 19.1339
" />
<path d="M4.4347 19.1339
L4.4952 19.1944
" />
<path d="M4.4952 19.1944
L4.6162 19.2548
" />
<path d="M4.6162 19.2548
L4.8581 19.2548
" />
<path d="M4.8581 19.2548
L4.9790 19.1944
" />
<path d="M4.9790 19.1944
L5.0395 19.1339
" />
<path d="M5.0395 19.1339
L5.1000 19.0129
" />
<path d="M5.1000 19.0129
L5.1000 18.7105
" />
<path d="M5.1000 18.7105
L5.0395 18.5896
" />
<path d="M5.0395 18.5896
L4.9790 18.5291
" />
<path d="M4.9790 18.5291
L4.8581 18.4686
" />
<path d="M4.8581 18.4686
L4.6162 18.4686
" />
<path d="M4.6162 18.4686
L4.4952 18.5291
" />
<path d="M4.4952 18.5291
L4.4347 18.5896
" />
<path d="M4.4347 18.5896
L4.3743 18.7105
" />
</g><text x="9.8171" y="3.8989"
textLength="2.6223" font-size="1.6933" lengthAdjust="spacingAndGlyphs"
text-anchor="middle" opacity="0" stroke-opacity="0">U?</text>
<g class="stroked-text"><desc>U?</desc>
<path d="M8.9099 2.5734
L8.9099 3.6015
" />
<path d="M8.9099 3.6015
L8.9704 3.7225
" />
<path d="M8.9704 3.7225
L9.0309 3.7830
" />
<path d="M9.0309 3.7830
L9.1518 3.8434
" />
<path d="M9.1518 3.8434
L9.3937 3.8434
" />
<path d="M9.3937 3.8434
L9.5147 3.7830
" />
<path d="M9.5147 3.7830
L9.5752 3.7225
" />
<path d="M9.5752 3.7225
L9.6356 3.6015
" />
<path d="M9.6356 3.6015
L9.6356 2.5734
" />
<path d="M10.4219 3.7225
L10.4823 3.7830
" />
<path d="M10.4823 3.7830
L10.4219 3.8434
" />
<path d="M10.4219 3.8434
L10.3614 3.7830
" />
<path d="M10.3614 3.7830
L10.4219 3.7225
" />
<path d="M10.4219 3.7225
L10.4219 3.8434
" />
<path d="M10.1800 2.6339
L10.3009 2.5734
" />
<path d="M10.3009 2.5734
L10.6033 2.5734
" />
<path d="M10.6033 2.5734
L10.7242 2.6339
" />
<path d="M10.7242 2.6339
L10.7847 2.7549
" />
<path d="M10.7847 2.7549
L10.7847 2.8758
" />
<path d="M10.7847 2.8758
L10.7242 2.9968
" />
<path d="M10.7242 2.9968
L10.6638 3.0572
" />
<path d="M10.6638 3.0572
L10.5428 3.1177
" />
<path d="M10.5428 3.1177
L10.4823 3.1782
" />
<path d="M10.4823 3.1782
L10.4219 3.2991
" />
<path d="M10.4219 3.2991
L10.4219 3.3596
" />
</g><text x="9.8171" y="24.2189"
textLength="16.3502" font-size="1.6933" lengthAdjust="spacingAndGlyphs"
text-anchor="middle" opacity="0" stroke-opacity="0">Hdr_DRV8833_6P</text>
<g class="stroked-text"><desc>Hdr_DRV8833_6P</desc>
<path d="M2.0459 24.1634
L2.0459 22.8934
" />
<path d="M2.0459 23.4982
L2.7716 23.4982
" />
<path d="M2.7716 24.1634
L2.7716 22.8934
" />
<path d="M3.9207 24.1634
L3.9207 22.8934
" />
<path d="M3.9207 24.1030
L3.7998 24.1634
" />
<path d="M3.7998 24.1634
L3.5579 24.1634
" />
<path d="M3.5579 24.1634
L3.4369 24.1030
" />
<path d="M3.4369 24.1030
L3.3764 24.0425
" />
<path d="M3.3764 24.0425
L3.3160 23.9215
" />
<path d="M3.3160 23.9215
L3.3160 23.5587
" />
<path d="M3.3160 23.5587
L3.3764 23.4377
" />
<path d="M3.3764 23.4377
L3.4369 23.3772
" />
<path d="M3.4369 23.3772
L3.5579 23.3168
" />
<path d="M3.5579 23.3168
L3.7998 23.3168
" />
<path d="M3.7998 23.3168
L3.9207 23.3772
" />
<path d="M4.5254 24.1634
L4.5254 23.3168
" />
<path d="M4.5254 23.5587
L4.5859 23.4377
" />
<path d="M4.5859 23.4377
L4.6464 23.3772
" />
<path d="M4.6464 23.3772
L4.7673 23.3168
" />
<path d="M4.7673 23.3168
L4.8883 23.3168
" />
<path d="M5.0093 24.2844
L5.9769 24.2844
" />
<path d="M6.2792 24.1634
L6.2792 22.8934
" />
<path d="M6.2792 22.8934
L6.5816 22.8934
" />
<path d="M6.5816 22.8934
L6.7630 22.9539
" />
<path d="M6.7630 22.9539
L6.8840 23.0749
" />
<path d="M6.8840 23.0749
L6.9445 23.1958
" />
<path d="M6.9445 23.1958
L7.0049 23.4377
" />
<path d="M7.0049 23.4377
L7.0049 23.6191
" />
<path d="M7.0049 23.6191
L6.9445 23.8610
" />
<path d="M6.9445 23.8610
L6.8840 23.9820
" />
<path d="M6.8840 23.9820
L6.7630 24.1030
" />
<path d="M6.7630 24.1030
L6.5816 24.1634
" />
<path d="M6.5816 24.1634
L6.2792 24.1634
" />
<path d="M8.2749 24.1634
L7.8516 23.5587
" />
<path d="M7.5492 24.1634
L7.5492 22.8934
" />
<path d="M7.5492 22.8934
L8.0330 22.8934
" />
<path d="M8.0330 22.8934
L8.1540 22.9539
" />
<path d="M8.1540 22.9539
L8.2145 23.0144
" />
<path d="M8.2145 23.0144
L8.2749 23.1353
" />
<path d="M8.2749 23.1353
L8.2749 23.3168
" />
<path d="M8.2749 23.3168
L8.2145 23.4377
" />
<path d="M8.2145 23.4377
L8.1540 23.4982
" />
<path d="M8.1540 23.4982
L8.0330 23.5587
" />
<path d="M8.0330 23.5587
L7.5492 23.5587
" />
<path d="M8.6378 22.8934
L9.0611 24.1634
" />
<path d="M9.0611 24.1634
L9.4845 22.8934
" />
<path d="M10.0893 23.4377
L9.9683 23.3772
" />
<path d="M9.9683 23.3772
L9.9078 23.3168
" />
<path d="M9.9078 23.3168
L9.8474 23.1958
" />
<path d="M9.8474 23.1958
L9.8474 23.1353
" />
<path d="M9.8474 23.1353
L9.9078 23.0144
" />
<path d="M9.9078 23.0144
L9.9683 22.9539
" />
<path d="M9.9683 22.9539
L10.0893 22.8934
" />
<path d="M10.0893 22.8934
L10.3312 22.8934
" />
<path d="M10.3312 22.8934
L10.4521 22.9539
" />
<path d="M10.4521 22.9539
L10.5126 23.0144
" />
<path d="M10.5126 23.0144
L10.5731 23.1353
" />
<path d="M10.5731 23.1353
L10.5731 23.1958
" />
<path d="M10.5731 23.1958
L10.5126 23.3168
" />
<path d="M10.5126 23.3168
L10.4521 23.3772
" />
<path d="M10.4521 23.3772
L10.3312 23.4377
" />
<path d="M10.3312 23.4377
L10.0893 23.4377
" />
<path d="M10.0893 23.4377
L9.9683 23.4982
" />
<path d="M9.9683 23.4982
L9.9078 23.5587
" />
<path d="M9.9078 23.5587
L9.8474 23.6796
" />
<path d="M9.8474 23.6796
L9.8474 23.9215
" />
<path d="M9.8474 23.9215
L9.9078 24.0425
" />
<path d="M9.9078 24.0425
L9.9683 24.1030
" />
<path d="M9.9683 24.1030
L10.0893 24.1634
" />
<path d="M10.0893 24.1634
L10.3312 24.1634
" />
<path d="M10.3312 24.1634
L10.4521 24.1030
" />
<path d="M10.4521 24.1030
L10.5126 24.0425
" />
<path d="M10.5126 24.0425
L10.5731 23.9215
" />
<path d="M10.5731 23.9215
L10.5731 23.6796
" />
<path d="M10.5731 23.6796
L10.5126 23.5587
" />
<path d="M10.5126 23.5587
L10.4521 23.4982
" />
<path d="M10.4521 23.4982
L10.3312 23.4377
" />
<path d="M11.2988 23.4377
L11.1778 23.3772
" />
<path d="M11.1778 23.3772
L11.1173 23.3168
" />
<path d="M11.1173 23.3168
L11.0569 23.1958
" />
<path d="M11.0569 23.1958
L11.0569 23.1353
" />
<path d="M11.0569 23.1353
L11.1173 23.0144
" />
<path d="M11.1173 23.0144
L11.1778 22.9539
" />
<path d="M11.1778 22.9539
L11.2988 22.8934
" />
<path d="M11.2988 22.8934
L11.5407 22.8934
" />
<path d="M11.5407 22.8934
L11.6616 22.9539
" />
<path d="M11.6616 22.9539
L11.7221 23.0144
" />
<path d="M11.7221 23.0144
L11.7826 23.1353
" />
<path d="M11.7826 23.1353
L11.7826 23.1958
" />
<path d="M11.7826 23.1958
L11.7221 23.3168
" />
<path d="M11.7221 23.3168
L11.6616 23.3772
" />
<path d="M11.6616 23.3772
L11.5407 23.4377
" />
<path d="M11.5407 23.4377
L11.2988 23.4377
" />
<path d="M11.2988 23.4377
L11.1778 23.4982
" />
<path d="M11.1778 23.4982
L11.1173 23.5587
" />
<path d="M11.1173 23.5587
L11.0569 23.6796
" />
<path d="M11.0569 23.6796
L11.0569 23.9215
" />
<path d="M11.0569 23.9215
L11.1173 24.0425
" />
<path d="M11.1173 24.0425
L11.1778 24.1030
" />
<path d="M11.1778 24.1030
L11.2988 24.1634
" />
<path d="M11.2988 24.1634
L11.5407 24.1634
" />
<path d="M11.5407 24.1634
L11.6616 24.1030
" />
<path d="M11.6616 24.1030
L11.7221 24.0425
" />
<path d="M11.7221 24.0425
L11.7826 23.9215
" />
<path d="M11.7826 23.9215
L11.7826 23.6796
" />
<path d="M11.7826 23.6796
L11.7221 23.5587
" />
<path d="M11.7221 23.5587
L11.6616 23.4982
" />
<path d="M11.6616 23.4982
L11.5407 23.4377
" />
<path d="M12.2059 22.8934
L12.9921 22.8934
" />
<path d="M12.9921 22.8934
L12.5687 23.3772
" />
<path d="M12.5687 23.3772
L12.7502 23.3772
" />
<path d="M12.7502 23.3772
L12.8711 23.4377
" />
<path d="M12.8711 23.4377
L12.9316 23.4982
" />
<path d="M12.9316 23.4982
L12.9921 23.6191
" />
<path d="M12.9921 23.6191
L12.9921 23.9215
" />
<path d="M12.9921 23.9215
L12.9316 24.0425
" />
<path d="M12.9316 24.0425
L12.8711 24.1030
" />
<path d="M12.8711 24.1030
L12.7502 24.1634
" />
<path d="M12.7502 24.1634
L12.3873 24.1634
" />
<path d="M12.3873 24.1634
L12.2664 24.1030
" />
<path d="M12.2664 24.1030
L12.2059 24.0425
" />
<path d="M13.4154 22.8934
L14.2016 22.8934
" />
<path d="M14.2016 22.8934
L13.7782 23.3772
" />
<path d="M13.7782 23.3772
L13.9597 23.3772
" />
<path d="M13.9597 23.3772
L14.0806 23.4377
" />
<path d="M14.0806 23.4377
L14.1411 23.4982
" />
<path d="M14.1411 23.4982
L14.2016 23.6191
" />
<path d="M14.2016 23.6191
L14.2016 23.9215
" />
<path d="M14.2016 23.9215
L14.1411 24.0425
" />
<path d="M14.1411 24.0425
L14.0806 24.1030
" />
<path d="M14.0806 24.1030
L13.9597 24.1634
" />
<path d="M13.9597 24.1634
L13.5968 24.1634
" />
<path d="M13.5968 24.1634
L13.4759 24.1030
" />
<path d="M13.4759 24.1030
L13.4154 24.0425
" />
<path d="M14.4435 24.2844
L15.4111 24.2844
" />
<path d="M16.2577 22.8934
L16.0158 22.8934
" />
<path d="M16.0158 22.8934
L15.8949 22.9539
" />
<path d="M15.8949 22.9539
L15.8344 23.0144
" />
<path d="M15.8344 23.0144
L15.7134 23.1958
" />
<path d="M15.7134 23.1958
L15.6530 23.4377
" />
<path d="M15.6530 23.4377
L15.6530 23.9215
" />
<path d="M15.6530 23.9215
L15.7134 24.0425
" />
<path d="M15.7134 24.0425
L15.7739 24.1030
" />
<path d="M15.7739 24.1030
L15.8949 24.1634
" />
<path d="M15.8949 24.1634
L16.1368 24.1634
" />
<path d="M16.1368 24.1634
L16.2577 24.1030
" />
<path d="M16.2577 24.1030
L16.3182 24.0425
" />
<path d="M16.3182 24.0425
L16.3787 23.9215
" />
<path d="M16.3787 23.9215
L16.3787 23.6191
" />
<path d="M16.3787 23.6191
L16.3182 23.4982
" />
<path d="M16.3182 23.4982
L16.2577 23.4377
" />
<path d="M16.2577 23.4377
L16.1368 23.3772
" />
<path d="M16.1368 23.3772
L15.8949 23.3772
" />
<path d="M15.8949 23.3772
L15.7739 23.4377
" />
<path d="M15.7739 23.4377
L15.7134 23.4982
" />
<path d="M15.7134 23.4982
L15.6530 23.6191
" />
<path d="M16.9229 24.1634
L16.9229 22.8934
" />
<path d="M16.9229 22.8934
L17.4067 22.8934
" />
<path d="M17.4067 22.8934
L17.5277 22.9539
" />
<path d="M17.5277 22.9539
L17.5882 23.0144
" />
<path d="M17.5882 23.0144
L17.6486 23.1353
" />
<path d="M17.6486 23.1353
L17.6486 23.3168
" />
<path d="M17.6486 23.3168
L17.5882 23.4377
" />
<path d="M17.5882 23.4377
L17.5277 23.4982
" />
<path d="M17.5277 23.4982
L17.4067 23.5587
" />
<path d="M17.4067 23.5587
L16.9229 23.5587
" />
</g></g> 
</svg>
