<?xml version="1.0" standalone="no"?>
 <!DOCTYPE svg PUBLIC "-//W3C//DTD SVG 1.1//EN" 
 "http://www.w3.org/Graphics/SVG/1.1/DTD/svg11.dtd"> 
<svg
  xmlns:svg="http://www.w3.org/2000/svg"
  xmlns="http://www.w3.org/2000/svg"
  xmlns:xlink="http://www.w3.org/1999/xlink"
  xmlns:inkscape="http://www.inkscape.org/namespaces/inkscape"
  version="1.1"
  width="22.4790mm" height="32.9438mm" viewBox="0.0000 0.0000 22.4790 32.9438">
<title>SVG Image created as IPS_2.0_ST7789_8P_unit1.svg date 2026-10-02T00:41:06 </title>
  <desc>Image generated by Eeschema-SVG </desc>
<g style="fill:#000000; fill-opacity:1.0000;stroke:#000000; stroke-opacity:1.0000;
stroke-linecap:round; stroke-linejoin:round;"
 transform="translate(0 0) scale(1 1)">
</g>
<g style="fill:none; 
stroke:#000000; stroke-width:0.2540; stroke-opacity:1; 
stroke-linecap:round; stroke-linejoin:round;">
<rect x="7.429500" y="5.041900" width="7.620000" height="22.860000" rx="0.000000" />
</g>
<g style="fill:none; 
stroke:#000000; stroke-width:0.1524; stroke-opacity:1; 
stroke-linecap:round; stroke-linejoin:round;">
<path d="M7.4295 7.5819
L4.8895 7.5819
" />
<text x="8.4455" y="8.2169"
textLength="4.0737" font-size="1.6933" lengthAdjust="spacingAndGlyphs"
text-anchor="start" opacity="0" stroke-opacity="0">GND</text>
<g class="stroked-text"><desc>GND</desc>
<path d="M9.5133 6.9519
L9.3923 6.8914
" />
<path d="M9.3923 6.8914
L9.2109 6.8914
" />
<path d="M9.2109 6.8914
L9.0295 6.9519
" />
<path d="M9.0295 6.9519
L8.9085 7.0729
" />
<path d="M8.9085 7.0729
L8.8480 7.1938
" />
<path d="M8.8480 7.1938
L8.7876 7.4357
" />
<path d="M8.7876 7.4357
L8.7876 7.6171
" />
<path d="M8.7876 7.6171
L8.8480 7.8590
" />
<path d="M8.8480 7.8590
L8.9085 7.9800
" />
<path d="M8.9085 7.9800
L9.0295 8.1010
" />
<path d="M9.0295 8.1010
L9.2109 8.1614
" />
<path d="M9.2109 8.1614
L9.3318 8.1614
" />
<path d="M9.3318 8.1614
L9.5133 8.1010
" />
<path d="M9.5133 8.1010
L9.5737 8.0405
" />
<path d="M9.5737 8.0405
L9.5737 7.6171
" />
<path d="M9.5737 7.6171
L9.3318 7.6171
" />
<path d="M10.1180 8.1614
L10.1180 6.8914
" />
<path d="M10.1180 6.8914
L10.8437 8.1614
" />
<path d="M10.8437 8.1614
L10.8437 6.8914
" />
<path d="M11.4485 8.1614
L11.4485 6.8914
" />
<path d="M11.4485 6.8914
L11.7509 6.8914
" />
<path d="M11.7509 6.8914
L11.9323 6.9519
" />
<path d="M11.9323 6.9519
L12.0533 7.0729
" />
<path d="M12.0533 7.0729
L12.1138 7.1938
" />
<path d="M12.1138 7.1938
L12.1742 7.4357
" />
<path d="M12.1742 7.4357
L12.1742 7.6171
" />
<path d="M12.1742 7.6171
L12.1138 7.8590
" />
<path d="M12.1138 7.8590
L12.0533 7.9800
" />
<path d="M12.0533 7.9800
L11.9323 8.1010
" />
<path d="M11.9323 8.1010
L11.7509 8.1614
" />
<path d="M11.7509 8.1614
L11.4485 8.1614
" />
</g><text x="6.1595" y="7.2263"
textLength="1.4127" font-size="1.6933" lengthAdjust="spacingAndGlyphs"
text-anchor="middle" opacity="0" stroke-opacity="0">1</text>
<g class="stroked-text"><desc>1</desc>
<path d="M6.5224 7.0628
L5.7967 7.0628
" />
<path d="M6.1595 7.0628
L6.1595 5.7928
" />
<path d="M6.1595 5.7928
L6.0386 5.9743
" />
<path d="M6.0386 5.9743
L5.9176 6.0952
" />
<path d="M5.9176 6.0952
L5.7967 6.1557
" />
</g><path d="M7.4295 10.1219
L4.8895 10.1219
" />
<text x="8.4455" y="10.7569"
textLength="3.8318" font-size="1.6933" lengthAdjust="spacingAndGlyphs"
text-anchor="start" opacity="0" stroke-opacity="0">VCC</text>
<g class="stroked-text"><desc>VCC</desc>
<path d="M8.6666 9.4314
L9.0899 10.7014
" />
<path d="M9.0899 10.7014
L9.5133 9.4314
" />
<path d="M10.6623 10.5805
L10.6019 10.6410
" />
<path d="M10.6019 10.6410
L10.4204 10.7014
" />
<path d="M10.4204 10.7014
L10.2995 10.7014
" />
<path d="M10.2995 10.7014
L10.1181 10.6410
" />
<path d="M10.1181 10.6410
L9.9971 10.5200
" />
<path d="M9.9971 10.5200
L9.9366 10.3990
" />
<path d="M9.9366 10.3990
L9.8762 10.1571
" />
<path d="M9.8762 10.1571
L9.8762 9.9757
" />
<path d="M9.8762 9.9757
L9.9366 9.7338
" />
<path d="M9.9366 9.7338
L9.9971 9.6129
" />
<path d="M9.9971 9.6129
L10.1181 9.4919
" />
<path d="M10.1181 9.4919
L10.2995 9.4314
" />
<path d="M10.2995 9.4314
L10.4204 9.4314
" />
<path d="M10.4204 9.4314
L10.6019 9.4919
" />
<path d="M10.6019 9.4919
L10.6623 9.5524
" />
<path d="M11.9323 10.5805
L11.8719 10.6410
" />
<path d="M11.8719 10.6410
L11.6904 10.7014
" />
<path d="M11.6904 10.7014
L11.5695 10.7014
" />
<path d="M11.5695 10.7014
L11.3881 10.6410
" />
<path d="M11.3881 10.6410
L11.2671 10.5200
" />
<path d="M11.2671 10.5200
L11.2066 10.3990
" />
<path d="M11.2066 10.3990
L11.1462 10.1571
" />
<path d="M11.1462 10.1571
L11.1462 9.9757
" />
<path d="M11.1462 9.9757
L11.2066 9.7338
" />
<path d="M11.2066 9.7338
L11.2671 9.6129
" />
<path d="M11.2671 9.6129
L11.3881 9.4919
" />
<path d="M11.3881 9.4919
L11.5695 9.4314
" />
<path d="M11.5695 9.4314
L11.6904 9.4314
" />
<path d="M11.6904 9.4314
L11.8719 9.4919
" />
<path d="M11.8719 9.4919
L11.9323 9.5524
" />
</g><text x="6.1595" y="9.7663"
textLength="1.4127" font-size="1.6933" lengthAdjust="spacingAndGlyphs"
text-anchor="middle" opacity="0" stroke-opacity="0">2</text>
<g class="stroked-text"><desc>2</desc>
<path d="M5.7967 8.4538
L5.8571 8.3933
" />
<path d="M5.8571 8.3933
L5.9781 8.3328
" />
<path d="M5.9781 8.3328
L6.2805 8.3328
" />
<path d="M6.2805 8.3328
L6.4014 8.3933
" />
<path d="M6.4014 8.3933
L6.4619 8.4538
" />
<path d="M6.4619 8.4538
L6.5224 8.5747
" />
<path d="M6.5224 8.5747
L6.5224 8.6957
" />
<path d="M6.5224 8.6957
L6.4619 8.8771
" />
<path d="M6.4619 8.8771
L5.7362 9.6028
" />
<path d="M5.7362 9.6028
L6.5224 9.6028
" />
</g><path d="M7.4295 12.6619
L4.8895 12.6619
" />
<text x="8.4455" y="13.2969"
textLength="3.7108" font-size="1.6933" lengthAdjust="spacingAndGlyphs"
text-anchor="start" opacity="0" stroke-opacity="0">SCL</text>
<g class="stroked-text"><desc>SCL</desc>
<path d="M8.7876 13.1810
L8.9690 13.2414
" />
<path d="M8.9690 13.2414
L9.2714 13.2414
" />
<path d="M9.2714 13.2414
L9.3923 13.1810
" />
<path d="M9.3923 13.1810
L9.4528 13.1205
" />
<path d="M9.4528 13.1205
L9.5133 12.9995
" />
<path d="M9.5133 12.9995
L9.5133 12.8786
" />
<path d="M9.5133 12.8786
L9.4528 12.7576
" />
<path d="M9.4528 12.7576
L9.3923 12.6971
" />
<path d="M9.3923 12.6971
L9.2714 12.6367
" />
<path d="M9.2714 12.6367
L9.0295 12.5762
" />
<path d="M9.0295 12.5762
L8.9085 12.5157
" />
<path d="M8.9085 12.5157
L8.8480 12.4552
" />
<path d="M8.8480 12.4552
L8.7876 12.3343
" />
<path d="M8.7876 12.3343
L8.7876 12.2133
" />
<path d="M8.7876 12.2133
L8.8480 12.0924
" />
<path d="M8.8480 12.0924
L8.9085 12.0319
" />
<path d="M8.9085 12.0319
L9.0295 11.9714
" />
<path d="M9.0295 11.9714
L9.3318 11.9714
" />
<path d="M9.3318 11.9714
L9.5133 12.0319
" />
<path d="M10.7832 13.1205
L10.7228 13.1810
" />
<path d="M10.7228 13.1810
L10.5413 13.2414
" />
<path d="M10.5413 13.2414
L10.4204 13.2414
" />
<path d="M10.4204 13.2414
L10.2390 13.1810
" />
<path d="M10.2390 13.1810
L10.1180 13.0600
" />
<path d="M10.1180 13.0600
L10.0575 12.9390
" />
<path d="M10.0575 12.9390
L9.9971 12.6971
" />
<path d="M9.9971 12.6971
L9.9971 12.5157
" />
<path d="M9.9971 12.5157
L10.0575 12.2738
" />
<path d="M10.0575 12.2738
L10.1180 12.1529
" />
<path d="M10.1180 12.1529
L10.2390 12.0319
" />
<path d="M10.2390 12.0319
L10.4204 11.9714
" />
<path d="M10.4204 11.9714
L10.5413 11.9714
" />
<path d="M10.5413 11.9714
L10.7228 12.0319
" />
<path d="M10.7228 12.0319
L10.7832 12.0924
" />
<path d="M11.9323 13.2414
L11.3275 13.2414
" />
<path d="M11.3275 13.2414
L11.3275 11.9714
" />
</g><text x="6.1595" y="12.3063"
textLength="1.4127" font-size="1.6933" lengthAdjust="spacingAndGlyphs"
text-anchor="middle" opacity="0" stroke-opacity="0">3</text>
<g class="stroked-text"><desc>3</desc>
<path d="M5.7362 10.8728
L6.5224 10.8728
" />
<path d="M6.5224 10.8728
L6.0990 11.3566
" />
<path d="M6.0990 11.3566
L6.2805 11.3566
" />
<path d="M6.2805 11.3566
L6.4014 11.4171
" />
<path d="M6.4014 11.4171
L6.4619 11.4776
" />
<path d="M6.4619 11.4776
L6.5224 11.5985
" />
<path d="M6.5224 11.5985
L6.5224 11.9009
" />
<path d="M6.5224 11.9009
L6.4619 12.0219
" />
<path d="M6.4619 12.0219
L6.4014 12.0824
" />
<path d="M6.4014 12.0824
L6.2805 12.1428
" />
<path d="M6.2805 12.1428
L5.9176 12.1428
" />
<path d="M5.9176 12.1428
L5.7967 12.0824
" />
<path d="M5.7967 12.0824
L5.7362 12.0219
" />
</g><path d="M7.4295 15.2019
L4.8895 15.2019
" />
<text x="8.4455" y="15.8369"
textLength="3.7713" font-size="1.6933" lengthAdjust="spacingAndGlyphs"
text-anchor="start" opacity="0" stroke-opacity="0">SDA</text>
<g class="stroked-text"><desc>SDA</desc>
<path d="M8.7876 15.7210
L8.9690 15.7814
" />
<path d="M8.9690 15.7814
L9.2714 15.7814
" />
<path d="M9.2714 15.7814
L9.3923 15.7210
" />
<path d="M9.3923 15.7210
L9.4528 15.6605
" />
<path d="M9.4528 15.6605
L9.5133 15.5395
" />
<path d="M9.5133 15.5395
L9.5133 15.4186
" />
<path d="M9.5133 15.4186
L9.4528 15.2976
" />
<path d="M9.4528 15.2976
L9.3923 15.2371
" />
<path d="M9.3923 15.2371
L9.2714 15.1767
" />
<path d="M9.2714 15.1767
L9.0295 15.1162
" />
<path d="M9.0295 15.1162
L8.9085 15.0557
" />
<path d="M8.9085 15.0557
L8.8480 14.9952
" />
<path d="M8.8480 14.9952
L8.7876 14.8743
" />
<path d="M8.7876 14.8743
L8.7876 14.7533
" />
<path d="M8.7876 14.7533
L8.8480 14.6324
" />
<path d="M8.8480 14.6324
L8.9085 14.5719
" />
<path d="M8.9085 14.5719
L9.0295 14.5114
" />
<path d="M9.0295 14.5114
L9.3318 14.5114
" />
<path d="M9.3318 14.5114
L9.5133 14.5719
" />
<path d="M10.0575 15.7814
L10.0575 14.5114
" />
<path d="M10.0575 14.5114
L10.3599 14.5114
" />
<path d="M10.3599 14.5114
L10.5413 14.5719
" />
<path d="M10.5413 14.5719
L10.6623 14.6929
" />
<path d="M10.6623 14.6929
L10.7228 14.8138
" />
<path d="M10.7228 14.8138
L10.7832 15.0557
" />
<path d="M10.7832 15.0557
L10.7832 15.2371
" />
<path d="M10.7832 15.2371
L10.7228 15.4790
" />
<path d="M10.7228 15.4790
L10.6623 15.6000
" />
<path d="M10.6623 15.6000
L10.5413 15.7210
" />
<path d="M10.5413 15.7210
L10.3599 15.7814
" />
<path d="M10.3599 15.7814
L10.0575 15.7814
" />
<path d="M11.2671 15.4186
L11.8718 15.4186
" />
<path d="M11.1461 15.7814
L11.5694 14.5114
" />
<path d="M11.5694 14.5114
L11.9928 15.7814
" />
</g><text x="6.1595" y="14.8463"
textLength="1.4127" font-size="1.6933" lengthAdjust="spacingAndGlyphs"
text-anchor="middle" opacity="0" stroke-opacity="0">4</text>
<g class="stroked-text"><desc>4</desc>
<path d="M6.4014 13.8362
L6.4014 14.6828
" />
<path d="M6.0990 13.3524
L5.7967 14.2595
" />
<path d="M5.7967 14.2595
L6.5828 14.2595
" />
</g><path d="M7.4295 17.7419
L4.8895 17.7419
" />
<text x="8.4455" y="18.3769"
textLength="3.8317" font-size="1.6933" lengthAdjust="spacingAndGlyphs"
text-anchor="start" opacity="0" stroke-opacity="0">RES</text>
<g class="stroked-text"><desc>RES</desc>
<path d="M9.5737 18.3214
L9.1504 17.7167
" />
<path d="M8.8480 18.3214
L8.8480 17.0514
" />
<path d="M8.8480 17.0514
L9.3318 17.0514
" />
<path d="M9.3318 17.0514
L9.4528 17.1119
" />
<path d="M9.4528 17.1119
L9.5133 17.1724
" />
<path d="M9.5133 17.1724
L9.5737 17.2933
" />
<path d="M9.5737 17.2933
L9.5737 17.4748
" />
<path d="M9.5737 17.4748
L9.5133 17.5957
" />
<path d="M9.5133 17.5957
L9.4528 17.6562
" />
<path d="M9.4528 17.6562
L9.3318 17.7167
" />
<path d="M9.3318 17.7167
L8.8480 17.7167
" />
<path d="M10.1180 17.6562
L10.5414 17.6562
" />
<path d="M10.7228 18.3214
L10.1180 18.3214
" />
<path d="M10.1180 18.3214
L10.1180 17.0514
" />
<path d="M10.1180 17.0514
L10.7228 17.0514
" />
<path d="M11.2066 18.2610
L11.3880 18.3214
" />
<path d="M11.3880 18.3214
L11.6904 18.3214
" />
<path d="M11.6904 18.3214
L11.8113 18.2610
" />
<path d="M11.8113 18.2610
L11.8718 18.2005
" />
<path d="M11.8718 18.2005
L11.9323 18.0795
" />
<path d="M11.9323 18.0795
L11.9323 17.9586
" />
<path d="M11.9323 17.9586
L11.8718 17.8376
" />
<path d="M11.8718 17.8376
L11.8113 17.7771
" />
<path d="M11.8113 17.7771
L11.6904 17.7167
" />
<path d="M11.6904 17.7167
L11.4485 17.6562
" />
<path d="M11.4485 17.6562
L11.3275 17.5957
" />
<path d="M11.3275 17.5957
L11.2670 17.5352
" />
<path d="M11.2670 17.5352
L11.2066 17.4143
" />
<path d="M11.2066 17.4143
L11.2066 17.2933
" />
<path d="M11.2066 17.2933
L11.2670 17.1724
" />
<path d="M11.2670 17.1724
L11.3275 17.1119
" />
<path d="M11.3275 17.1119
L11.4485 17.0514
" />
<path d="M11.4485 17.0514
L11.7508 17.0514
" />
<path d="M11.7508 17.0514
L11.9323 17.1119
" />
</g><text x="6.1595" y="17.3863"
textLength="1.4127" font-size="1.6933" lengthAdjust="spacingAndGlyphs"
text-anchor="middle" opacity="0" stroke-opacity="0">5</text>
<g class="stroked-text"><desc>5</desc>
<path d="M6.4619 15.9528
L5.8571 15.9528
" />
<path d="M5.8571 15.9528
L5.7967 16.5576
" />
<path d="M5.7967 16.5576
L5.8571 16.4971
" />
<path d="M5.8571 16.4971
L5.9781 16.4366
" />
<path d="M5.9781 16.4366
L6.2805 16.4366
" />
<path d="M6.2805 16.4366
L6.4014 16.4971
" />
<path d="M6.4014 16.4971
L6.4619 16.5576
" />
<path d="M6.4619 16.5576
L6.5224 16.6785
" />
<path d="M6.5224 16.6785
L6.5224 16.9809
" />
<path d="M6.5224 16.9809
L6.4619 17.1019
" />
<path d="M6.4619 17.1019
L6.4014 17.1624
" />
<path d="M6.4014 17.1624
L6.2805 17.2228
" />
<path d="M6.2805 17.2228
L5.9781 17.2228
" />
<path d="M5.9781 17.2228
L5.8571 17.1624
" />
<path d="M5.8571 17.1624
L5.7967 17.1019
" />
</g><path d="M7.4295 20.2819
L4.8895 20.2819
" />
<text x="8.4455" y="20.9169"
textLength="2.7432" font-size="1.6933" lengthAdjust="spacingAndGlyphs"
text-anchor="start" opacity="0" stroke-opacity="0">DC</text>
<g class="stroked-text"><desc>DC</desc>
<path d="M8.8480 20.8614
L8.8480 19.5914
" />
<path d="M8.8480 19.5914
L9.1504 19.5914
" />
<path d="M9.1504 19.5914
L9.3318 19.6519
" />
<path d="M9.3318 19.6519
L9.4528 19.7729
" />
<path d="M9.4528 19.7729
L9.5133 19.8938
" />
<path d="M9.5133 19.8938
L9.5737 20.1357
" />
<path d="M9.5737 20.1357
L9.5737 20.3171
" />
<path d="M9.5737 20.3171
L9.5133 20.5590
" />
<path d="M9.5133 20.5590
L9.4528 20.6800
" />
<path d="M9.4528 20.6800
L9.3318 20.8010
" />
<path d="M9.3318 20.8010
L9.1504 20.8614
" />
<path d="M9.1504 20.8614
L8.8480 20.8614
" />
<path d="M10.8437 20.7405
L10.7833 20.8010
" />
<path d="M10.7833 20.8010
L10.6018 20.8614
" />
<path d="M10.6018 20.8614
L10.4809 20.8614
" />
<path d="M10.4809 20.8614
L10.2995 20.8010
" />
<path d="M10.2995 20.8010
L10.1785 20.6800
" />
<path d="M10.1785 20.6800
L10.1180 20.5590
" />
<path d="M10.1180 20.5590
L10.0576 20.3171
" />
<path d="M10.0576 20.3171
L10.0576 20.1357
" />
<path d="M10.0576 20.1357
L10.1180 19.8938
" />
<path d="M10.1180 19.8938
L10.1785 19.7729
" />
<path d="M10.1785 19.7729
L10.2995 19.6519
" />
<path d="M10.2995 19.6519
L10.4809 19.5914
" />
<path d="M10.4809 19.5914
L10.6018 19.5914
" />
<path d="M10.6018 19.5914
L10.7833 19.6519
" />
<path d="M10.7833 19.6519
L10.8437 19.7124
" />
</g><text x="6.1595" y="19.9263"
textLength="1.4127" font-size="1.6933" lengthAdjust="spacingAndGlyphs"
text-anchor="middle" opacity="0" stroke-opacity="0">6</text>
<g class="stroked-text"><desc>6</desc>
<path d="M6.4014 18.4928
L6.1595 18.4928
" />
<path d="M6.1595 18.4928
L6.0386 18.5533
" />
<path d="M6.0386 18.5533
L5.9781 18.6138
" />
<path d="M5.9781 18.6138
L5.8571 18.7952
" />
<path d="M5.8571 18.7952
L5.7967 19.0371
" />
<path d="M5.7967 19.0371
L5.7967 19.5209
" />
<path d="M5.7967 19.5209
L5.8571 19.6419
" />
<path d="M5.8571 19.6419
L5.9176 19.7024
" />
<path d="M5.9176 19.7024
L6.0386 19.7628
" />
<path d="M6.0386 19.7628
L6.2805 19.7628
" />
<path d="M6.2805 19.7628
L6.4014 19.7024
" />
<path d="M6.4014 19.7024
L6.4619 19.6419
" />
<path d="M6.4619 19.6419
L6.5224 19.5209
" />
<path d="M6.5224 19.5209
L6.5224 19.2185
" />
<path d="M6.5224 19.2185
L6.4619 19.0976
" />
<path d="M6.4619 19.0976
L6.4014 19.0371
" />
<path d="M6.4014 19.0371
L6.2805 18.9766
" />
<path d="M6.2805 18.9766
L6.0386 18.9766
" />
<path d="M6.0386 18.9766
L5.9176 19.0371
" />
<path d="M5.9176 19.0371
L5.8571 19.0976
" />
<path d="M5.8571 19.0976
L5.7967 19.2185
" />
</g><path d="M7.4295 22.8219
L4.8895 22.8219
" />
<text x="8.4455" y="23.4569"
textLength="2.6827" font-size="1.6933" lengthAdjust="spacingAndGlyphs"
text-anchor="start" opacity="0" stroke-opacity="0">CS</text>
<g class="stroked-text"><desc>CS</desc>
<path d="M9.5737 23.2805
L9.5133 23.3410
" />
<path d="M9.5133 23.3410
L9.3318 23.4014
" />
<path d="M9.3318 23.4014
L9.2109 23.4014
" />
<path d="M9.2109 23.4014
L9.0295 23.3410
" />
<path d="M9.0295 23.3410
L8.9085 23.2200
" />
<path d="M8.9085 23.2200
L8.8480 23.0990
" />
<path d="M8.8480 23.0990
L8.7876 22.8571
" />
<path d="M8.7876 22.8571
L8.7876 22.6757
" />
<path d="M8.7876 22.6757
L8.8480 22.4338
" />
<path d="M8.8480 22.4338
L8.9085 22.3129
" />
<path d="M8.9085 22.3129
L9.0295 22.1919
" />
<path d="M9.0295 22.1919
L9.2109 22.1314
" />
<path d="M9.2109 22.1314
L9.3318 22.1314
" />
<path d="M9.3318 22.1314
L9.5133 22.1919
" />
<path d="M9.5133 22.1919
L9.5737 22.2524
" />
<path d="M10.0576 23.3410
L10.2390 23.4014
" />
<path d="M10.2390 23.4014
L10.5414 23.4014
" />
<path d="M10.5414 23.4014
L10.6623 23.3410
" />
<path d="M10.6623 23.3410
L10.7228 23.2805
" />
<path d="M10.7228 23.2805
L10.7833 23.1595
" />
<path d="M10.7833 23.1595
L10.7833 23.0386
" />
<path d="M10.7833 23.0386
L10.7228 22.9176
" />
<path d="M10.7228 22.9176
L10.6623 22.8571
" />
<path d="M10.6623 22.8571
L10.5414 22.7967
" />
<path d="M10.5414 22.7967
L10.2995 22.7362
" />
<path d="M10.2995 22.7362
L10.1785 22.6757
" />
<path d="M10.1785 22.6757
L10.1180 22.6152
" />
<path d="M10.1180 22.6152
L10.0576 22.4943
" />
<path d="M10.0576 22.4943
L10.0576 22.3733
" />
<path d="M10.0576 22.3733
L10.1180 22.2524
" />
<path d="M10.1180 22.2524
L10.1785 22.1919
" />
<path d="M10.1785 22.1919
L10.2995 22.1314
" />
<path d="M10.2995 22.1314
L10.6018 22.1314
" />
<path d="M10.6018 22.1314
L10.7833 22.1919
" />
</g><text x="6.1595" y="22.4663"
textLength="1.4127" font-size="1.6933" lengthAdjust="spacingAndGlyphs"
text-anchor="middle" opacity="0" stroke-opacity="0">7</text>
<g class="stroked-text"><desc>7</desc>
<path d="M5.7362 21.0328
L6.5828 21.0328
" />
<path d="M6.5828 21.0328
L6.0386 22.3028
" />
</g><path d="M7.4295 25.3619
L4.8895 25.3619
" />
<text x="8.4455" y="25.9969"
textLength="3.7713" font-size="1.6933" lengthAdjust="spacingAndGlyphs"
text-anchor="start" opacity="0" stroke-opacity="0">BLK</text>
<g class="stroked-text"><desc>BLK</desc>
<path d="M9.2714 25.2762
L9.4528 25.3367
" />
<path d="M9.4528 25.3367
L9.5133 25.3971
" />
<path d="M9.5133 25.3971
L9.5737 25.5181
" />
<path d="M9.5737 25.5181
L9.5737 25.6995
" />
<path d="M9.5737 25.6995
L9.5133 25.8205
" />
<path d="M9.5133 25.8205
L9.4528 25.8810
" />
<path d="M9.4528 25.8810
L9.3318 25.9414
" />
<path d="M9.3318 25.9414
L8.8480 25.9414
" />
<path d="M8.8480 25.9414
L8.8480 24.6714
" />
<path d="M8.8480 24.6714
L9.2714 24.6714
" />
<path d="M9.2714 24.6714
L9.3923 24.7319
" />
<path d="M9.3923 24.7319
L9.4528 24.7924
" />
<path d="M9.4528 24.7924
L9.5133 24.9133
" />
<path d="M9.5133 24.9133
L9.5133 25.0343
" />
<path d="M9.5133 25.0343
L9.4528 25.1552
" />
<path d="M9.4528 25.1552
L9.3923 25.2157
" />
<path d="M9.3923 25.2157
L9.2714 25.2762
" />
<path d="M9.2714 25.2762
L8.8480 25.2762
" />
<path d="M10.7228 25.9414
L10.1180 25.9414
" />
<path d="M10.1180 25.9414
L10.1180 24.6714
" />
<path d="M11.1461 25.9414
L11.1461 24.6714
" />
<path d="M11.8718 25.9414
L11.3276 25.2157
" />
<path d="M11.8718 24.6714
L11.1461 25.3971
" />
</g><text x="6.1595" y="25.0063"
textLength="1.4127" font-size="1.6933" lengthAdjust="spacingAndGlyphs"
text-anchor="middle" opacity="0" stroke-opacity="0">8</text>
<g class="stroked-text"><desc>8</desc>
<path d="M6.0386 24.1171
L5.9176 24.0566
" />
<path d="M5.9176 24.0566
L5.8571 23.9962
" />
<path d="M5.8571 23.9962
L5.7967 23.8752
" />
<path d="M5.7967 23.8752
L5.7967 23.8147
" />
<path d="M5.7967 23.8147
L5.8571 23.6938
" />
<path d="M5.8571 23.6938
L5.9176 23.6333
" />
<path d="M5.9176 23.6333
L6.0386 23.5728
" />
<path d="M6.0386 23.5728
L6.2805 23.5728
" />
<path d="M6.2805 23.5728
L6.4014 23.6333
" />
<path d="M6.4014 23.6333
L6.4619 23.6938
" />
<path d="M6.4619 23.6938
L6.5224 23.8147
" />
<path d="M6.5224 23.8147
L6.5224 23.8752
" />
<path d="M6.5224 23.8752
L6.4619 23.9962
" />
<path d="M6.4619 23.9962
L6.4014 24.0566
" />
<path d="M6.4014 24.0566
L6.2805 24.1171
" />
<path d="M6.2805 24.1171
L6.0386 24.1171
" />
<path d="M6.0386 24.1171
L5.9176 24.1776
" />
<path d="M5.9176 24.1776
L5.8571 24.2381
" />
<path d="M5.8571 24.2381
L5.7967 24.3590
" />
<path d="M5.7967 24.3590
L5.7967 24.6009
" />
<path d="M5.7967 24.6009
L5.8571 24.7219
" />
<path d="M5.8571 24.7219
L5.9176 24.7824
" />
<path d="M5.9176 24.7824
L6.0386 24.8428
" />
<path d="M6.0386 24.8428
L6.2805 24.8428
" />
<path d="M6.2805 24.8428
L6.4014 24.7824
" />
<path d="M6.4014 24.7824
L6.4619 24.7219
" />
<path d="M6.4619 24.7219
L6.5224 24.6009
" />
<path d="M6.5224 24.6009
L6.5224 24.3590
" />
<path d="M6.5224 24.3590
L6.4619 24.2381
" />
<path d="M6.4619 24.2381
L6.4014 24.1776
" />
<path d="M6.4014 24.1776
L6.2805 24.1171
" />
</g><text x="11.2395" y="4.4069"
textLength="2.6223" font-size="1.6933" lengthAdjust="spacingAndGlyphs"
text-anchor="middle" opacity="0" stroke-opacity="0">U?</text>
<g class="stroked-text"><desc>U?</desc>
<path d="M10.3323 3.0814
L10.3323 4.1095
" />
<path d="M10.3323 4.1095
L10.3928 4.2305
" />
<path d="M10.3928 4.2305
L10.4533 4.2910
" />
<path d="M10.4533 4.2910
L10.5742 4.3514
" />
<path d="M10.5742 4.3514
L10.8161 4.3514
" />
<path d="M10.8161 4.3514
L10.9371 4.2910
" />
<path d="M10.9371 4.2910
L10.9976 4.2305
" />
<path d="M10.9976 4.2305
L11.0580 4.1095
" />
<path d="M11.0580 4.1095
L11.0580 3.0814
" />
<path d="M11.8443 4.2305
L11.9047 4.2910
" />
<path d="M11.9047 4.2910
L11.8443 4.3514
" />
<path d="M11.8443 4.3514
L11.7838 4.2910
" />
<path d="M11.7838 4.2910
L11.8443 4.2305
" />
<path d="M11.8443 4.2305
L11.8443 4.3514
" />
<path d="M11.6024 3.1419
L11.7233 3.0814
" />
<path d="M11.7233 3.0814
L12.0257 3.0814
" />
<path d="M12.0257 3.0814
L12.1466 3.1419
" />
<path d="M12.1466 3.1419
L12.2071 3.2629
" />
<path d="M12.2071 3.2629
L12.2071 3.3838
" />
<path d="M12.2071 3.3838
L12.1466 3.5048
" />
<path d="M12.1466 3.5048
L12.0862 3.5652
" />
<path d="M12.0862 3.5652
L11.9652 3.6257
" />
<path d="M11.9652 3.6257
L11.9047 3.6862
" />
<path d="M11.9047 3.6862
L11.8443 3.8071
" />
<path d="M11.8443 3.8071
L11.8443 3.8676
" />
</g><text x="11.2395" y="29.8069"
textLength="18.7087" font-size="1.6933" lengthAdjust="spacingAndGlyphs"
text-anchor="middle" opacity="0" stroke-opacity="0">IPS_2.0_ST7789_8P</text>
<g class="stroked-text"><desc>IPS_2.0_ST7789_8P</desc>
<path d="M2.2891 29.7514
L2.2891 28.4814
" />
<path d="M2.8939 29.7514
L2.8939 28.4814
" />
<path d="M2.8939 28.4814
L3.3777 28.4814
" />
<path d="M3.3777 28.4814
L3.4987 28.5419
" />
<path d="M3.4987 28.5419
L3.5592 28.6024
" />
<path d="M3.5592 28.6024
L3.6196 28.7233
" />
<path d="M3.6196 28.7233
L3.6196 28.9048
" />
<path d="M3.6196 28.9048
L3.5592 29.0257
" />
<path d="M3.5592 29.0257
L3.4987 29.0862
" />
<path d="M3.4987 29.0862
L3.3777 29.1467
" />
<path d="M3.3777 29.1467
L2.8939 29.1467
" />
<path d="M4.1035 29.6910
L4.2849 29.7514
" />
<path d="M4.2849 29.7514
L4.5873 29.7514
" />
<path d="M4.5873 29.7514
L4.7082 29.6910
" />
<path d="M4.7082 29.6910
L4.7687 29.6305
" />
<path d="M4.7687 29.6305
L4.8292 29.5095
" />
<path d="M4.8292 29.5095
L4.8292 29.3886
" />
<path d="M4.8292 29.3886
L4.7687 29.2676
" />
<path d="M4.7687 29.2676
L4.7082 29.2071
" />
<path d="M4.7082 29.2071
L4.5873 29.1467
" />
<path d="M4.5873 29.1467
L4.3454 29.0862
" />
<path d="M4.3454 29.0862
L4.2244 29.0257
" />
<path d="M4.2244 29.0257
L4.1639 28.9652
" />
<path d="M4.1639 28.9652
L4.1035 28.8443
" />
<path d="M4.1035 28.8443
L4.1035 28.7233
" />
<path d="M4.1035 28.7233
L4.1639 28.6024
" />
<path d="M4.1639 28.6024
L4.2244 28.5419
" />
<path d="M4.2244 28.5419
L4.3454 28.4814
" />
<path d="M4.3454 28.4814
L4.6477 28.4814
" />
<path d="M4.6477 28.4814
L4.8292 28.5419
" />
<path d="M5.0711 29.8724
L6.0387 29.8724
" />
<path d="M6.2806 28.6024
L6.3410 28.5419
" />
<path d="M6.3410 28.5419
L6.4620 28.4814
" />
<path d="M6.4620 28.4814
L6.7644 28.4814
" />
<path d="M6.7644 28.4814
L6.8853 28.5419
" />
<path d="M6.8853 28.5419
L6.9458 28.6024
" />
<path d="M6.9458 28.6024
L7.0063 28.7233
" />
<path d="M7.0063 28.7233
L7.0063 28.8443
" />
<path d="M7.0063 28.8443
L6.9458 29.0257
" />
<path d="M6.9458 29.0257
L6.2201 29.7514
" />
<path d="M6.2201 29.7514
L7.0063 29.7514
" />
<path d="M7.5505 29.6305
L7.6110 29.6910
" />
<path d="M7.6110 29.6910
L7.5505 29.7514
" />
<path d="M7.5505 29.7514
L7.4901 29.6910
" />
<path d="M7.4901 29.6910
L7.5505 29.6305
" />
<path d="M7.5505 29.6305
L7.5505 29.7514
" />
<path d="M8.3972 28.4814
L8.5182 28.4814
" />
<path d="M8.5182 28.4814
L8.6391 28.5419
" />
<path d="M8.6391 28.5419
L8.6996 28.6024
" />
<path d="M8.6996 28.6024
L8.7601 28.7233
" />
<path d="M8.7601 28.7233
L8.8206 28.9652
" />
<path d="M8.8206 28.9652
L8.8206 29.2676
" />
<path d="M8.8206 29.2676
L8.7601 29.5095
" />
<path d="M8.7601 29.5095
L8.6996 29.6305
" />
<path d="M8.6996 29.6305
L8.6391 29.6910
" />
<path d="M8.6391 29.6910
L8.5182 29.7514
" />
<path d="M8.5182 29.7514
L8.3972 29.7514
" />
<path d="M8.3972 29.7514
L8.2763 29.6910
" />
<path d="M8.2763 29.6910
L8.2158 29.6305
" />
<path d="M8.2158 29.6305
L8.1553 29.5095
" />
<path d="M8.1553 29.5095
L8.0949 29.2676
" />
<path d="M8.0949 29.2676
L8.0949 28.9652
" />
<path d="M8.0949 28.9652
L8.1553 28.7233
" />
<path d="M8.1553 28.7233
L8.2158 28.6024
" />
<path d="M8.2158 28.6024
L8.2763 28.5419
" />
<path d="M8.2763 28.5419
L8.3972 28.4814
" />
<path d="M9.0625 29.8724
L10.0301 29.8724
" />
<path d="M10.2720 29.6910
L10.4534 29.7514
" />
<path d="M10.4534 29.7514
L10.7558 29.7514
" />
<path d="M10.7558 29.7514
L10.8767 29.6910
" />
<path d="M10.8767 29.6910
L10.9372 29.6305
" />
<path d="M10.9372 29.6305
L10.9977 29.5095
" />
<path d="M10.9977 29.5095
L10.9977 29.3886
" />
<path d="M10.9977 29.3886
L10.9372 29.2676
" />
<path d="M10.9372 29.2676
L10.8767 29.2071
" />
<path d="M10.8767 29.2071
L10.7558 29.1467
" />
<path d="M10.7558 29.1467
L10.5139 29.0862
" />
<path d="M10.5139 29.0862
L10.3929 29.0257
" />
<path d="M10.3929 29.0257
L10.3324 28.9652
" />
<path d="M10.3324 28.9652
L10.2720 28.8443
" />
<path d="M10.2720 28.8443
L10.2720 28.7233
" />
<path d="M10.2720 28.7233
L10.3324 28.6024
" />
<path d="M10.3324 28.6024
L10.3929 28.5419
" />
<path d="M10.3929 28.5419
L10.5139 28.4814
" />
<path d="M10.5139 28.4814
L10.8162 28.4814
" />
<path d="M10.8162 28.4814
L10.9977 28.5419
" />
<path d="M11.3605 28.4814
L12.0862 28.4814
" />
<path d="M11.7234 29.7514
L11.7234 28.4814
" />
<path d="M12.3886 28.4814
L13.2352 28.4814
" />
<path d="M13.2352 28.4814
L12.6910 29.7514
" />
<path d="M13.5981 28.4814
L14.4447 28.4814
" />
<path d="M14.4447 28.4814
L13.9005 29.7514
" />
<path d="M15.1100 29.0257
L14.9890 28.9652
" />
<path d="M14.9890 28.9652
L14.9285 28.9048
" />
<path d="M14.9285 28.9048
L14.8681 28.7838
" />
<path d="M14.8681 28.7838
L14.8681 28.7233
" />
<path d="M14.8681 28.7233
L14.9285 28.6024
" />
<path d="M14.9285 28.6024
L14.9890 28.5419
" />
<path d="M14.9890 28.5419
L15.1100 28.4814
" />
<path d="M15.1100 28.4814
L15.3519 28.4814
" />
<path d="M15.3519 28.4814
L15.4728 28.5419
" />
<path d="M15.4728 28.5419
L15.5333 28.6024
" />
<path d="M15.5333 28.6024
L15.5938 28.7233
" />
<path d="M15.5938 28.7233
L15.5938 28.7838
" />
<path d="M15.5938 28.7838
L15.5333 28.9048
" />
<path d="M15.5333 28.9048
L15.4728 28.9652
" />
<path d="M15.4728 28.9652
L15.3519 29.0257
" />
<path d="M15.3519 29.0257
L15.1100 29.0257
" />
<path d="M15.1100 29.0257
L14.9890 29.0862
" />
<path d="M14.9890 29.0862
L14.9285 29.1467
" />
<path d="M14.9285 29.1467
L14.8681 29.2676
" />
<path d="M14.8681 29.2676
L14.8681 29.5095
" />
<path d="M14.8681 29.5095
L14.9285 29.6305
" />
<path d="M14.9285 29.6305
L14.9890 29.6910
" />
<path d="M14.9890 29.6910
L15.1100 29.7514
" />
<path d="M15.1100 29.7514
L15.3519 29.7514
" />
<path d="M15.3519 29.7514
L15.4728 29.6910
" />
<path d="M15.4728 29.6910
L15.5333 29.6305
" />
<path d="M15.5333 29.6305
L15.5938 29.5095
" />
<path d="M15.5938 29.5095
L15.5938 29.2676
" />
<path d="M15.5938 29.2676
L15.5333 29.1467
" />
<path d="M15.5333 29.1467
L15.4728 29.0862
" />
<path d="M15.4728 29.0862
L15.3519 29.0257
" />
<path d="M16.1985 29.7514
L16.4404 29.7514
" />
<path d="M16.4404 29.7514
L16.5614 29.6910
" />
<path d="M16.5614 29.6910
L16.6218 29.6305
" />
<path d="M16.6218 29.6305
L16.7428 29.4490
" />
<path d="M16.7428 29.4490
L16.8033 29.2071
" />
<path d="M16.8033 29.2071
L16.8033 28.7233
" />
<path d="M16.8033 28.7233
L16.7428 28.6024
" />
<path d="M16.7428 28.6024
L16.6823 28.5419
" />
<path d="M16.6823 28.5419
L16.5614 28.4814
" />
<path d="M16.5614 28.4814
L16.3195 28.4814
" />
<path d="M16.3195 28.4814
L16.1985 28.5419
" />
<path d="M16.1985 28.5419
L16.1380 28.6024
" />
<path d="M16.1380 28.6024
L16.0776 28.7233
" />
<path d="M16.0776 28.7233
L16.0776 29.0257
" />
<path d="M16.0776 29.0257
L16.1380 29.1467
" />
<path d="M16.1380 29.1467
L16.1985 29.2071
" />
<path d="M16.1985 29.2071
L16.3195 29.2676
" />
<path d="M16.3195 29.2676
L16.5614 29.2676
" />
<path d="M16.5614 29.2676
L16.6823 29.2071
" />
<path d="M16.6823 29.2071
L16.7428 29.1467
" />
<path d="M16.7428 29.1467
L16.8033 29.0257
" />
<path d="M17.0452 29.8724
L18.0128 29.8724
" />
<path d="M18.4966 29.0257
L18.3756 28.9652
" />
<path d="M18.3756 28.9652
L18.3151 28.9048
" />
<path d="M18.3151 28.9048
L18.2547 28.7838
" />
<path d="M18.2547 28.7838
L18.2547 28.7233
" />
<path d="M18.2547 28.7233
L18.3151 28.6024
" />
<path d="M18.3151 28.6024
L18.3756 28.5419
" />
<path d="M18.3756 28.5419
L18.4966 28.4814
" />
<path d="M18.4966 28.4814
L18.7385 28.4814
" />
<path d="M18.7385 28.4814
L18.8594 28.5419
" />
<path d="M18.8594 28.5419
L18.9199 28.6024
" />
<path d="M18.9199 28.6024
L18.9804 28.7233
" />
<path d="M18.9804 28.7233
L18.9804 28.7838
" />
<path d="M18.9804 28.7838
L18.9199 28.9048
" />
<path d="M18.9199 28.9048
L18.8594 28.9652
" />
<path d="M18.8594 28.9652
L18.7385 29.0257
" />
<path d="M18.7385 29.0257
L18.4966 29.0257
" />
<path d="M18.4966 29.0257
L18.3756 29.0862
" />
<path d="M18.3756 29.0862
L18.3151 29.1467
" />
<path d="M18.3151 29.1467
L18.2547 29.2676
" />
<path d="M18.2547 29.2676
L18.2547 29.5095
" />
<path d="M18.2547 29.5095
L18.3151 29.6305
" />
<path d="M18.3151 29.6305
L18.3756 29.6910
" />
<path d="M18.3756 29.6910
L18.4966 29.7514
" />
<path d="M18.4966 29.7514
L18.7385 29.7514
" />
<path d="M18.7385 29.7514
L18.8594 29.6910
" />
<path d="M18.8594 29.6910
L18.9199 29.6305
" />
<path d="M18.9199 29.6305
L18.9804 29.5095
" />
<path d="M18.9804 29.5095
L18.9804 29.2676
" />
<path d="M18.9804 29.2676
L18.9199 29.1467
" />
<path d="M18.9199 29.1467
L18.8594 29.0862
" />
<path d="M18.8594 29.0862
L18.7385 29.0257
" />
<path d="M19.5246 29.7514
L19.5246 28.4814
" />
<path d="M19.5246 28.4814
L20.0084 28.4814
" />
<path d="M20.0084 28.4814
L20.1294 28.5419
" />
<path d="M20.1294 28.5419
L20.1899 28.6024
" />
<path d="M20.1899 28.6024
L20.2503 28.7233
" />
<path d="M20.2503 28.7233
L20.2503 28.9048
" />
<path d="M20.2503 28.9048
L20.1899 29.0257
" />
<path d="M20.1899 29.0257
L20.1294 29.0862
" />
<path d="M20.1294 29.0862
L20.0084 29.1467
" />
<path d="M20.0084 29.1467
L19.5246 29.1467
" />
</g></g> 
</svg>
